<?xml version="1.0" standalone="no"?>
<!DOCTYPE svg PUBLIC "-//W3C//DTD SVG 1.1//EN" "http://www.w3.org/Graphics/SVG/1.1/DTD/svg11.dtd" >
<!--
Created with mf2outline.
-->
<svg xmlns="http://www.w3.org/2000/svg" xmlns:xlink="http://www.w3.org/1999/xlink" version="1.1">
<metadata>
Created by FontForge 20170812 at Tue Sep  1 06:50:32 2020
 By app
Copyright (c) 2020, Metaflop (http://www.metaflop.com), Simon Egli, Marco Mueller, Alexis Reigel, with Reserved Font Name Bespoke. Dual licensed under the GPL v3 (http://www.gnu.org/copyleft/gpl.html) and the OFL v1.1 (http://scripts.sil.org/OFL_web).
</metadata>
<defs>
<font id="Bespoke-I68PWaAxQ5" horiz-adv-x="641" >
  <font-face 
    font-family="Bespoke"
    font-weight="500"
    font-stretch="normal"
    units-per-em="1000"
    panose-1="2 0 5 3 0 0 0 0 0 0"
    ascent="800"
    descent="-200"
    x-height="874"
    cap-height="920"
    bbox="-200 -592 1469 1341"
    underline-thickness="50"
    underline-position="-100"
    unicode-range="U+0020-FB04"
  />
    <missing-glyph />
    <glyph glyph-name="fi" unicode="fi" horiz-adv-x="635" 
d="M758 1033c-41 0 -8 53 -40 53h-75c-26 0 -30 -38 -52 -49c-5 -3 -12 -4 -18 -4c-14 0 -30 5 -44 5s-26 -5 -31 -23l-41 -141h350l-254 -874h-26l247 850h-323l-247 -850h-26l246 850h-143l7 24h143l41 141c7 23 21 29 39 29c15 0 33 -5 49 -5c9 0 18 1 25 5
c27 15 31 66 65 66h75c18 0 19 -14 19 -29v-9c0 -11 1 -22 8 -28c5 -4 13 -5 22 -5c16 0 36 5 51 5c14 0 25 -4 25 -17c0 -3 -1 -7 -2 -12h-27c1 4 2 7 2 10c0 11 -8 13 -19 13c-14 0 -32 -5 -46 -5z" />
    <glyph glyph-name="questiondown" unicode="&#x3f;&#x2018;" horiz-adv-x="581" 
d="M114 -396c0 65 -116 26 -116 82c0 4 1 9 3 15l67 234c20 69 114 39 157 81c51 50 18 180 112 180h37l139 481h27l-147 -505h-63c-86 0 -53 -118 -99 -164c-37 -38 -120 -13 -137 -73l-67 -234c-1 -5 -2 -9 -2 -13c0 -49 98 -18 98 -74c0 -35 -33 -89 -33 -122
c0 -17 9 -28 35 -28h100c86 0 53 118 99 164c37 38 120 13 137 73h26c-20 -69 -114 -39 -157 -81c-51 -50 -18 -180 -112 -180h-100c-29 0 -39 13 -39 32c0 36 35 94 35 132zM587 886c13 0 0 -19 4 -25s26 2 22 -11s-20 -5 -28 -11s-5 -24 -18 -24s0 18 -4 24s-26 -2 -22 11
s20 5 28 11s5 25 18 25z" />
    <glyph glyph-name="exclamdown" unicode="&#x21;&#x2018;" horiz-adv-x="323" 
d="M-1 -520l347 1197h26l-347 -1197h-26zM420 886c13 0 -1 -19 3 -25s26 2 22 -11s-20 -5 -28 -11s-5 -24 -18 -24s0 18 -4 24s-26 -2 -22 11s20 5 28 11s6 25 19 25z" />
    <glyph glyph-name="quotedblleft" unicode="&#x2018;&#x2018;" horiz-adv-x="621" 
d="M306 621l201 299h19l-194 -299h-26zM737 920h23l-194 -299h-30z" />
    <glyph glyph-name="endash" unicode="&#x2d;&#x2d;" horiz-adv-x="635" 
d="M164 425l7 24h553l-7 -24h-553z" />
    <glyph glyph-name="quotedblright" unicode="&#x2019;&#x2019;" horiz-adv-x="621" 
d="M309 621l194 299h27l-202 -299h-19zM734 920h30l-202 -299h-22z" />
    <glyph glyph-name="guillemotright" unicode="&#x3e;&#x3e;" horiz-adv-x="635" 
d="M444 437l-353 -437h-30l353 437l-99 437h30zM700 437l-352 -437h-31l353 437l-99 437h30z" />
    <glyph glyph-name="guillemotleft" unicode="&#x3c;&#x3c;" horiz-adv-x="635" 
d="M218 437l99 -437h-30l-99 437l352 437h31zM474 437l99 -437h-30l-99 437l353 437h30z" />
    <glyph glyph-name="fl" unicode="fl" horiz-adv-x="668" 
d="M588 1086c-16 0 -17 -26 -37 -26c-8 0 -18 3 -26 3c-7 0 -13 -3 -16 -13l-51 -176h142l-7 -24h-142l-246 -850h-27l247 850h-144l7 24h144l51 176c4 14 14 18 25 18c10 0 21 -2 31 -2c5 0 10 1 15 3c17 9 20 41 41 41h41c26 0 -3 -44 31 -44c10 0 22 2 32 2
c6 0 10 0 13 -3l-25 -15c1 2 1 5 1 6c0 6 -4 7 -10 7c-8 0 -19 -3 -27 -3c-20 0 -6 26 -22 26h-41zM561 0l311 1070h26l-311 -1070h-26z" />
    <glyph glyph-name="emdash" unicode="&#x2013;&#x2d;" horiz-adv-x="1107" 
d="M164 425l7 24h1025l-7 -24h-1025z" />
    <glyph glyph-name="N" unicode="N" horiz-adv-x="844" 
d="M95 0l267 920h49l313 -913l265 913h26l-267 -920h-49l-313 913l-265 -913h-26z" />
    <glyph glyph-name="eng" unicode="&#x14b;" 
d="M747 721c0 36 -72 15 -72 56c0 26 26 67 26 92c0 13 -7 21 -27 21h-99c-64 0 -57 -93 -101 -123c-15 -11 -35 -13 -55 -13c-10 0 -22 1 -32 1c-33 0 -62 -5 -73 -44l-207 -711h-26l254 874h26l-42 -143c32 48 112 10 156 43c47 35 34 140 107 140h99c23 0 30 -9 30 -24
c0 -28 -27 -74 -27 -103c0 -50 89 -20 89 -64c0 -3 0 -8 -1 -12c-103 -356 -207 -711 -310 -1067c-13 -45 -77 -33 -105 -64c-37 -41 -5 -140 -79 -140h-59c-22 0 -30 9 -30 23c0 29 33 78 33 108c0 10 -3 15 -9 20l9 10c6 -4 10 -10 10 -20c0 -27 -32 -73 -32 -98
c0 -12 7 -19 26 -19h59c65 0 35 87 66 124c22 26 75 20 85 56c103 356 206 711 309 1067c1 4 2 7 2 10z" />
    <glyph glyph-name="Y" unicode="Y" horiz-adv-x="702" 
d="M274 920h26l138 -612l493 612h32l-518 -644l-81 -276h-26l80 276z" />
    <glyph glyph-name="Eogonek" unicode="&#x118;" horiz-adv-x="628" 
d="M322 -449c0 46 -86 6 -86 45c0 3 1 7 2 11l33 113c20 68 110 86 163 138l123 142h-462l267 920h486l-7 -24h-460l-152 -525h447l-7 -24h-447l-94 -323h460l-7 -24h-3l-139 -161c-47 -46 -129 -58 -147 -119l-33 -113c-1 -3 -1 -7 -1 -9c0 -33 71 1 71 -38
c0 -15 -9 -36 -9 -51c0 -10 4 -17 18 -17h68c41 0 31 59 57 79s76 -4 88 36h21c-14 -48 -74 -18 -104 -42s-20 -92 -68 -92h-67c-16 0 -22 8 -22 20c0 17 11 41 11 58z" />
    <glyph glyph-name="Ccaron" unicode="&#x10c;" horiz-adv-x="911" 
d="M171 280c0 -86 187 -4 187 -105c0 -43 -28 -104 -28 -146c0 -26 12 -45 50 -45h177c114 0 86 163 156 220c67 55 202 -7 233 99h26c-33 -115 -180 -47 -253 -106c-76 -61 -46 -237 -169 -237h-177c-41 0 -54 19 -54 48c0 44 30 110 30 156c0 12 -2 24 -8 33
c-36 55 -196 1 -196 81c0 7 1 16 4 25l91 314c33 115 181 47 254 106c76 61 46 237 169 237h177c41 0 54 -19 54 -48c0 -44 -30 -110 -30 -156c0 -12 1 -24 7 -33c36 -55 197 -1 197 -81c0 -7 -1 -16 -4 -25h-27c3 9 4 16 4 23c0 86 -187 4 -187 105c0 43 29 104 29 146
c0 26 -12 45 -50 45h-177c-114 0 -86 -163 -156 -220c-67 -55 -203 7 -234 -99l-91 -314c-3 -9 -4 -16 -4 -23zM890 1173h23l-212 -184h-30l-104 184h22l102 -167z" />
    <glyph glyph-name="dieresis" unicode="&#xa8;" horiz-adv-x="284" 
d="M274 874c13 0 -1 -19 4 -25s26 2 22 -11s-21 -6 -29 -12s-5 -25 -18 -25s1 19 -4 25s-26 -1 -22 12s20 5 28 11s6 25 19 25zM516 874c13 0 -1 -19 4 -25s26 2 22 -11s-20 -6 -28 -12s-6 -25 -19 -25s1 19 -4 25s-26 -1 -22 12s21 5 29 11s5 25 18 25z" />
    <glyph glyph-name="Eth" unicode="&#xd0;" horiz-adv-x="905" 
d="M759 920c41 0 52 -21 52 -51c0 -38 -19 -90 -19 -129c0 -15 3 -28 11 -38c42 -52 213 13 213 -72c0 -8 -1 -16 -4 -26l-84 -288c-36 -123 -187 -41 -266 -98c-75 -54 -56 -218 -169 -218h-344l130 448h-101l7 24h101l130 448h343zM183 24h317c104 0 87 152 156 202
c73 53 213 -24 246 90l83 288c3 9 4 17 4 24c0 78 -158 18 -197 66c-7 9 -9 21 -9 35c0 36 17 85 17 120c0 27 -11 47 -48 47h-317l-122 -424h317l-7 -24h-317z" />
    <glyph glyph-name="guilsinglright" unicode="&#x203a;" horiz-adv-x="371" 
d="M437 437l-346 -437h-30l346 437l-92 437h30z" />
    <glyph glyph-name="OE" unicode="&#x152;" horiz-adv-x="1134" 
d="M905 636c0 71 -147 20 -147 102c0 45 40 115 40 159c0 24 -12 39 -48 39h-146c-115 0 -76 -160 -140 -220c-55 -52 -173 -12 -198 -99l-91 -314c-2 -7 -3 -13 -3 -19c0 -71 148 -20 148 -102c0 -45 -40 -115 -40 -159c0 -24 11 -39 47 -39h147c115 0 75 160 139 220
c55 52 173 12 198 99c30 105 61 209 91 314c2 7 3 13 3 19zM310 172c0 91 -164 31 -164 110c0 6 1 13 3 21l91 314c28 97 157 50 218 106c70 65 29 237 153 237h146c39 0 52 -17 52 -43c0 -47 -42 -120 -42 -169c0 -73 109 -48 150 -79l73 251h364l-7 -24h-338l-152 -525
h325l-7 -24h-325l-94 -323h338l-7 -24h-364l73 251c-51 -27 -132 -13 -177 -54c-70 -65 -28 -237 -152 -237h-146c-39 0 -52 17 -52 43c0 47 41 120 41 169z" />
    <glyph glyph-name="quotesinglbase" unicode="&#x201a;" horiz-adv-x="344" 
d="M243 115h30l-202 -299h-23z" />
    <glyph glyph-name="Udieresis" unicode="&#xdc;" horiz-adv-x="802" 
d="M256 112c31 0 50 -8 50 -39c0 -18 -5 -39 -5 -56c0 -19 6 -33 30 -33h130c60 0 58 89 102 117c14 9 30 11 47 11s34 -2 51 -2c30 0 56 6 67 43l223 767h26l-223 -767c-12 -42 -43 -49 -77 -49c-18 0 -36 2 -54 2c-20 0 -39 -3 -55 -13c-49 -32 -45 -133 -114 -133h-130
c-27 0 -34 16 -34 37c0 20 6 45 6 66c0 35 -21 43 -57 43c-18 0 -37 -2 -55 -2c-29 0 -51 5 -51 31c0 5 1 11 3 18l222 767h26l-222 -767c-2 -6 -3 -11 -3 -16c0 -23 20 -27 45 -27c17 0 35 2 52 2zM533 1127c13 0 -1 -19 4 -25s26 2 22 -11s-21 -6 -29 -12s-5 -25 -18 -25
s1 19 -4 25s-26 -1 -22 12s20 5 28 11s6 25 19 25zM775 1127c13 0 -1 -19 4 -25s26 2 22 -11s-20 -6 -28 -12s-6 -25 -19 -25s1 19 -4 25s-26 -1 -22 12s21 5 29 11s5 25 18 25z" />
    <glyph glyph-name="k" unicode="k" horiz-adv-x="587" 
d="M398 1070h26l-221 -762l589 566h35l-375 -360l121 -514h-28l-116 492l-240 -230l-76 -262h-26z" />
    <glyph glyph-name="eth" unicode="&#xf0;" horiz-adv-x="709" 
d="M271 166c0 78 -137 35 -137 103c0 5 0 12 2 19l87 298c24 83 138 50 190 102c24 24 33 64 41 103l-6 -3l8 29l4 1c12 52 29 96 91 96h109c-29 57 -67 110 -112 156h41c43 -48 77 -101 105 -158c7 -2 12 -4 16 -7l210 72l-8 -28l-190 -66c1 -9 0 -19 -3 -30
c25 -67 40 -139 46 -214c15 -7 26 -18 26 -36c0 -5 0 -11 -2 -17h-3c2 6 2 12 2 17c0 16 -9 25 -23 32c1 -21 2 -41 2 -62c0 -92 -14 -187 -42 -285c-24 -83 -138 -50 -190 -102c-63 -63 -20 -226 -138 -226h-123c-37 0 -49 16 -49 39c0 45 46 119 46 167zM160 271
c0 -60 121 -26 121 -95c0 -44 -45 -115 -45 -157c0 -21 11 -35 45 -35h123c110 0 67 150 125 209c46 48 149 21 170 95c28 95 41 188 41 278c0 27 -2 53 -4 79c-33 9 -68 15 -68 53c0 31 22 75 35 113c-6 20 -14 39 -22 58l-222 -77c-8 -41 -14 -85 -40 -111
c-46 -48 -149 -21 -170 -95l-86 -298c-2 -6 -3 -12 -3 -17zM736 650c-5 55 -17 108 -33 159c-15 -37 -32 -75 -32 -104c0 -38 33 -45 65 -55zM465 820l202 70h-123c-50 0 -68 -31 -79 -70z" />
    <glyph glyph-name="O" unicode="O" horiz-adv-x="945" 
d="M1041 640c0 86 -187 4 -187 105c0 43 29 104 29 146c0 26 -12 45 -50 45h-177c-114 0 -86 -163 -156 -220c-67 -55 -203 7 -234 -99l-91 -314c-3 -9 -4 -16 -4 -23c0 -86 187 -4 187 -105c0 -43 -28 -104 -28 -146c0 -26 12 -45 50 -45h177c114 0 86 163 156 220
c67 55 202 -7 233 99l91 314c3 9 4 16 4 23zM840 960c41 0 54 -19 54 -48c0 -44 -30 -110 -30 -156c0 -12 1 -24 7 -33c36 -55 197 -1 197 -81c0 -7 -1 -16 -4 -25l-92 -314c-33 -115 -180 -47 -253 -106c-76 -61 -46 -237 -169 -237h-177c-41 0 -54 19 -54 48
c0 44 30 110 30 156c0 12 -2 24 -8 33c-36 55 -196 1 -196 81c0 7 1 16 4 25l91 314c33 115 181 47 254 106c76 61 46 237 169 237h177z" />
    <glyph glyph-name="semicolon" unicode=";" horiz-adv-x="324" 
d="M237 175h33l-320 -437h-24zM456 874c13 0 0 -19 4 -25s26 2 22 -11s-20 -5 -28 -11s-5 -24 -18 -24s0 18 -4 24s-26 -2 -22 11s20 5 28 11s5 25 18 25z" />
    <glyph glyph-name="E" unicode="E" horiz-adv-x="628" 
d="M95 0l267 920h486l-7 -24h-460l-152 -525h447l-7 -24h-447l-94 -323h460l-7 -24h-486z" />
    <glyph glyph-name="u" unicode="u" 
d="M147 150c0 -48 104 -3 104 -59c0 -24 -16 -59 -16 -82c0 -15 7 -25 28 -25h99c64 0 49 91 88 123c38 31 113 -3 130 56l207 711h26l-254 -874h-26l42 146c-27 -37 -93 -16 -127 -46c-42 -38 -20 -140 -93 -140h-99c-25 0 -32 12 -32 29c0 26 18 65 18 92
c0 66 -122 11 -122 67c0 4 0 9 2 15l207 711h26l-206 -711c-1 -5 -2 -9 -2 -13z" />
    <glyph glyph-name="y" unicode="y" horiz-adv-x="567" 
d="M260 874h27l10 -822l487 822h29l-826 -1394h-29l313 529z" />
    <glyph glyph-name="egrave" unicode="&#xe8;" horiz-adv-x="668" 
d="M160 272c0 -58 115 -29 115 -95c0 -45 -46 -116 -46 -158c0 -21 11 -35 44 -35h119c65 0 55 95 98 126c45 33 133 -14 154 57h26c-23 -81 -123 -27 -174 -64c-49 -36 -37 -143 -111 -143h-119c-36 0 -48 15 -48 38c0 45 47 121 47 169c0 75 -131 37 -131 103
c0 5 0 11 2 18l87 298c23 80 135 50 185 102c62 64 17 226 135 226h119c36 0 48 -15 48 -38c0 -45 -47 -121 -47 -169c0 -75 131 -37 131 -103c0 -5 0 -11 -2 -18c-16 -54 -31 -107 -47 -161h-542l-40 -137c-2 -6 -3 -11 -3 -16zM479 1333h28l74 -184h-21zM768 602
c0 58 -115 29 -115 95c0 45 46 116 46 158c0 21 -11 35 -44 35h-119c-110 0 -65 -149 -122 -209c-44 -47 -144 -24 -165 -95l-40 -137h517l39 137c2 6 3 11 3 16z" />
    <glyph glyph-name="atilde" unicode="&#xe3;" horiz-adv-x="635" 
d="M615 707c0 -66 112 -40 112 -99c0 -5 0 -10 -2 -16l-172 -592h-26l41 141c-27 -38 -96 -14 -131 -44c-42 -36 -23 -137 -94 -137h-103c-24 0 -32 12 -32 29c0 25 16 61 16 87c0 69 -127 9 -127 67c0 4 0 9 2 15l50 172c21 71 110 26 155 61s30 137 101 137h103
c23 0 31 -11 31 -27c0 -26 -20 -66 -20 -93c0 -58 103 -16 109 -61l71 245c2 5 2 10 2 14c0 51 -96 33 -96 91c0 45 51 119 51 161c0 20 -11 32 -43 32h-103c-108 0 -60 -145 -113 -206c-36 -41 -115 -32 -141 -80l-20 11c34 44 116 34 155 77c59 65 9 222 126 222h103
c35 0 47 -14 47 -36c0 -45 -52 -123 -52 -171zM353 1153h-21c13 45 70 18 98 40c29 23 19 89 65 89c57 0 37 -93 94 -93c38 0 29 55 53 74s71 -4 82 33h21c-13 -45 -70 -18 -98 -40c-29 -23 -18 -89 -64 -89c-57 0 -37 94 -94 94c-39 0 -30 -55 -54 -74s-71 3 -82 -34z
M625 343c0 50 -110 0 -110 59c0 23 14 54 14 76c0 15 -7 26 -28 26h-103c-62 0 -49 -89 -88 -120s-117 8 -135 -54l-50 -172c-1 -5 -2 -9 -2 -13c0 -50 110 0 110 -59c0 -23 -14 -54 -14 -76c0 -15 7 -26 28 -26h103c62 0 49 89 88 120s117 -8 135 54c17 57 33 115 50 172
c1 5 2 9 2 13z" />
    <glyph glyph-name="four" unicode="4" horiz-adv-x="668" 
d="M552 264l-76 -264h-27l77 264h-407l14 49l560 607h49l-183 -632h151l-7 -24h-151zM533 288l178 616l-568 -616h390z" />
    <glyph glyph-name="Sacute" unicode="&#x15a;" horiz-adv-x="702" 
d="M249 64c0 34 -23 41 -58 41c-15 0 -30 -1 -44 -1c-29 0 -53 4 -53 30c0 5 1 11 3 18h26c-2 -6 -2 -12 -2 -16c0 -22 20 -26 45 -26c14 0 28 1 42 1c31 0 50 -6 50 -36c0 -19 -6 -42 -6 -60s6 -31 29 -31h123c59 0 57 87 99 115c15 10 33 11 52 11c11 0 23 -1 34 -1
c31 0 60 6 71 43l42 147c3 9 4 19 4 27c0 50 -43 82 -86 109l-332 29c-36 22 -53 62 -53 107c0 18 2 37 8 56l45 154c12 40 41 45 74 45c14 0 29 -1 43 -1c20 0 39 2 54 12c46 30 44 123 107 123h120c25 0 31 -14 31 -34c0 -19 -6 -43 -6 -62c0 -32 20 -39 53 -39
c16 0 35 1 51 1c27 0 47 -4 47 -28c0 -5 0 -10 -2 -17h-27c2 6 3 11 3 15c0 21 -18 25 -41 25c-15 0 -33 -2 -48 -2c-29 0 -45 7 -45 35c0 16 4 35 4 51c0 17 -5 31 -27 31h-120c-55 0 -54 -81 -94 -106c-13 -8 -29 -10 -46 -10c-14 0 -28 1 -41 1c-29 0 -54 -5 -64 -40
l-44 -154c-5 -17 -8 -32 -8 -48c0 -38 16 -72 46 -91l331 -29c48 -30 94 -70 94 -127c0 -10 -2 -21 -5 -33l-42 -147c-12 -43 -45 -48 -81 -48h-35c-22 0 -44 -2 -61 -13c-48 -32 -44 -131 -112 -131h-123c-26 0 -33 15 -33 35c0 21 8 47 8 69zM711 1173h28l-188 -184h-21z
" />
    <glyph glyph-name="nine" unicode="9" horiz-adv-x="662" 
d="M229 52c0 31 -19 38 -51 38c-16 0 -34 -2 -50 -2c-25 0 -45 5 -45 28c0 5 0 10 2 16h27c-2 -6 -3 -10 -3 -14c0 -20 17 -24 39 -24c15 0 32 2 47 2c28 0 44 -7 44 -34c0 -15 -4 -33 -4 -48c0 -17 5 -30 26 -30h115c53 0 52 78 90 102c12 7 26 10 41 10s31 -2 46 -2
c26 0 50 5 59 38l125 431c-30 -43 -105 -12 -145 -44c-45 -36 -28 -140 -101 -140h-115c-26 0 -34 13 -34 32c0 25 13 59 13 84c0 37 -34 40 -68 40h-16c-31 0 -58 2 -58 30c0 5 1 11 3 17l51 175c23 78 119 27 169 63c48 35 36 140 108 140h115c26 0 33 -13 33 -32
c0 -25 -12 -59 -12 -84c0 -37 34 -40 68 -40h16c31 0 58 -2 58 -30c0 -5 -1 -11 -3 -17l-181 -625c-11 -38 -38 -44 -69 -44c-16 0 -33 2 -49 2c-18 0 -35 -2 -49 -11c-44 -28 -41 -119 -102 -119h-115c-24 0 -30 14 -30 33c0 18 5 41 5 59zM795 772c0 56 -125 -5 -125 62
c0 22 11 52 11 74c0 17 -6 28 -29 28h-115c-64 0 -53 -92 -95 -123c-44 -32 -129 13 -149 -56l-51 -175c-2 -6 -2 -11 -2 -15c0 -56 124 5 124 -62c0 -22 -11 -52 -11 -74c0 -17 7 -28 30 -28h115c64 0 53 92 95 123c44 32 129 -13 149 56l51 175c2 6 2 11 2 15z" />
    <glyph glyph-name="five" unicode="5" horiz-adv-x="648" 
d="M229 82c0 76 -141 7 -141 71c0 5 0 11 2 17h27c-2 -6 -3 -11 -3 -15c0 -56 125 4 125 -63c0 -24 -13 -56 -13 -79c0 -17 7 -29 30 -29h115c67 0 55 97 98 129c44 33 130 -12 150 57l53 184c2 6 2 10 2 14c0 55 -120 -2 -120 63c0 24 14 58 14 81c0 16 -7 28 -30 28h-113
c-78 0 -163 -43 -221 -112h-26c48 164 95 328 143 492h528l-7 -24h-502l-133 -460c53 77 142 128 225 128h113c26 0 33 -13 33 -32c0 -26 -15 -64 -15 -91c0 -74 138 -8 138 -71c0 -5 -1 -10 -3 -16l-53 -184c-23 -79 -121 -27 -171 -65c-49 -37 -35 -145 -110 -145h-115
c-26 0 -34 13 -34 32c0 26 14 63 14 90z" />
    <glyph glyph-name="gbreve" unicode="&#x11f;" horiz-adv-x="689" 
d="M271 198c0 73 -130 35 -130 99c0 5 1 11 3 17l83 286c23 78 131 47 180 97c60 61 17 217 131 217h115c34 0 46 -14 46 -35c0 -44 -50 -119 -50 -166c0 -64 108 -40 112 -94l74 255h26l-344 -1185c-23 -78 -123 -35 -173 -77c-53 -46 -28 -172 -118 -172h-116
c-29 0 -38 14 -38 34c0 33 25 83 25 117c0 7 -2 13 -4 18l11 7c2 -4 2 -10 2 -15c0 -31 -24 -77 -24 -107c0 -18 9 -30 35 -30h116c81 0 57 114 105 155c44 38 133 1 153 70l176 606c-32 -48 -116 -35 -155 -78c-57 -63 -10 -217 -124 -217h-115c-35 0 -47 15 -47 37
c0 44 45 115 45 161zM516 1184c-31 0 -7 51 -47 51c-19 0 -45 -8 -63 -8c-12 0 -19 3 -19 15c0 3 1 8 2 12l13 47h21l-14 -47c-1 -4 -1 -7 -1 -10c0 -9 6 -12 15 -12c16 0 42 8 59 8c4 0 8 0 11 -1c15 -6 10 -33 29 -33h76c24 0 32 34 61 34c17 0 37 -8 53 -8
c12 0 22 5 27 22l13 47h21l-13 -47c-6 -21 -18 -27 -33 -27c-18 0 -39 8 -58 8c-40 0 -45 -51 -77 -51h-76zM758 615c0 57 -113 27 -113 91c0 43 44 111 44 151c0 20 -11 33 -43 33h-115c-105 0 -63 -143 -118 -200c-43 -45 -140 -21 -160 -90l-83 -286c-2 -6 -2 -10 -2 -15
c0 -57 112 -27 112 -91c0 -43 -43 -111 -43 -151c0 -20 11 -33 43 -33h115c105 0 63 143 118 200c43 45 139 21 159 90l83 286c2 6 3 10 3 15z" />
    <glyph glyph-name="iacute" unicode="&#xed;" horiz-adv-x="257" 
d="M115 0l254 874h26l-253 -874h-27zM492 1333h28l-188 -184h-21z" />
    <glyph glyph-name="U" unicode="U" horiz-adv-x="802" 
d="M256 112c31 0 50 -8 50 -39c0 -18 -5 -39 -5 -56c0 -19 6 -33 30 -33h130c60 0 58 89 102 117c14 9 30 11 47 11s34 -2 51 -2c30 0 56 6 67 43l223 767h26l-223 -767c-12 -42 -43 -49 -77 -49c-18 0 -36 2 -54 2c-20 0 -39 -3 -55 -13c-49 -32 -45 -133 -114 -133h-130
c-27 0 -34 16 -34 37c0 20 6 45 6 66c0 35 -21 43 -57 43c-18 0 -37 -2 -55 -2c-29 0 -51 5 -51 31c0 5 1 11 3 18l222 767h26l-222 -767c-2 -6 -3 -11 -3 -16c0 -23 20 -27 45 -27c17 0 35 2 52 2z" />
    <glyph glyph-name="ccaron" unicode="&#x10d;" horiz-adv-x="656" 
d="M160 272c0 -58 115 -29 115 -95c0 -45 -46 -116 -46 -158c0 -21 11 -35 44 -35h119c110 0 65 149 122 209c44 47 144 24 165 95h26c-23 -80 -135 -50 -185 -102c-62 -64 -17 -226 -135 -226h-119c-36 0 -48 15 -48 38c0 45 47 121 47 169c0 75 -131 37 -131 103
c0 5 0 11 2 18l87 298c23 80 135 50 185 102c62 64 17 226 135 226h119c36 0 48 -15 48 -38c0 -45 -47 -121 -47 -169c0 -75 131 -37 131 -103c0 -5 0 -11 -2 -18h-27c2 6 3 11 3 16c0 58 -115 29 -115 95c0 45 46 116 46 158c0 21 -11 35 -44 35h-119
c-110 0 -65 -149 -122 -209c-44 -47 -144 -24 -165 -95l-86 -298c-2 -6 -3 -11 -3 -16zM755 1333h22l-211 -184h-30l-105 184h23l102 -167z" />
    <glyph glyph-name="Tcaron" unicode="&#x164;" horiz-adv-x="621" 
d="M262 896l7 24h616l-7 -24h-295l-260 -896h-26l260 896h-295zM727 1173h23l-211 -184h-31l-104 184h23l102 -167z" />
    <glyph glyph-name="zcaron" unicode="&#x17e;" horiz-adv-x="500" 
d="M280 850l6 24h434l-14 -49l-645 -801h413l-7 -24h-434l14 49l646 801h-413zM667 1333h23l-211 -184h-31l-104 184h22l102 -167z" />
    <glyph glyph-name="Odieresis" unicode="&#xd6;" horiz-adv-x="945" 
d="M605 1127c13 0 -1 -19 4 -25s26 2 22 -11s-20 -6 -28 -12s-6 -25 -19 -25s1 19 -4 25s-26 -1 -22 12s21 5 29 11s5 25 18 25zM847 1127c13 0 -1 -19 4 -25s26 2 22 -11s-20 -6 -28 -12s-6 -25 -19 -25s1 19 -4 25s-25 -1 -21 12s20 5 28 11s5 25 18 25zM1041 640
c0 86 -187 4 -187 105c0 43 29 104 29 146c0 26 -12 45 -50 45h-177c-114 0 -86 -163 -156 -220c-67 -55 -203 7 -234 -99l-91 -314c-3 -9 -4 -16 -4 -23c0 -86 187 -4 187 -105c0 -43 -28 -104 -28 -146c0 -26 12 -45 50 -45h177c114 0 86 163 156 220c67 55 202 -7 233 99
l91 314c3 9 4 16 4 23zM840 960c41 0 54 -19 54 -48c0 -44 -30 -110 -30 -156c0 -12 1 -24 7 -33c36 -55 197 -1 197 -81c0 -7 -1 -16 -4 -25l-92 -314c-33 -115 -180 -47 -253 -106c-76 -61 -46 -237 -169 -237h-177c-41 0 -54 19 -54 48c0 44 30 110 30 156
c0 12 -2 24 -8 33c-36 55 -196 1 -196 81c0 7 1 16 4 25l91 314c33 115 181 47 254 106c76 61 46 237 169 237h177z" />
    <glyph glyph-name="T" unicode="T" horiz-adv-x="621" 
d="M262 896l7 24h616l-7 -24h-295l-260 -896h-26l260 896h-295z" />
    <glyph glyph-name="racute" unicode="&#x155;" horiz-adv-x="452" 
d="M726 711c0 46 -98 9 -98 62c0 27 21 66 21 92c0 15 -7 25 -29 25h-95c-69 0 -48 -97 -88 -132c-36 -32 -111 -2 -127 -59l-203 -699h-26l254 874h26l-46 -158c26 36 91 19 123 50c43 41 16 148 94 148h95c25 0 33 -11 33 -28c0 -29 -23 -73 -23 -103
c0 -63 115 -16 115 -70c0 -4 0 -9 -2 -14h-26c1 5 2 8 2 12zM626 1333h28l-188 -184h-21z" />
    <glyph glyph-name="ffl" unicode="&#xfb04;" horiz-adv-x="938" 
d="M893 1086c-16 0 -17 -26 -37 -26c-8 0 -17 3 -25 3c-7 0 -13 -3 -16 -13l-51 -176h145l-7 -24h-145l-247 -850h-26l247 850h-281l-247 -850h-26l247 850h-143l7 24h143l51 176c4 14 13 18 24 18c10 0 21 -2 31 -2c5 0 10 1 15 3c17 9 20 41 41 41h40c12 0 13 -10 13 -20
c0 -16 1 -24 18 -24c10 0 22 2 32 2c5 0 9 0 12 -3l-24 -15c1 2 1 5 1 6c0 6 -4 7 -10 7c-8 0 -19 -3 -27 -3c-20 0 -6 26 -22 26h-40c-16 0 -17 -26 -37 -26c-8 0 -17 3 -25 3c-7 0 -13 -3 -16 -13l-51 -176h281l51 176c4 14 13 18 24 18c10 0 21 -2 31 -2c5 0 10 1 15 3
c17 9 20 41 41 41h40c12 0 13 -10 13 -20c0 -16 1 -24 18 -24c10 0 22 2 32 2c5 0 10 0 13 -3l-25 -15c1 2 1 5 1 6c0 6 -4 7 -10 7c-8 0 -19 -3 -27 -3c-20 0 -6 26 -22 26h-40zM830 0l311 1070h26l-311 -1070h-26z" />
    <glyph glyph-name="Uhungarumlaut" unicode="&#x170;" horiz-adv-x="802" 
d="M256 112c31 0 50 -8 50 -39c0 -18 -5 -39 -5 -56c0 -19 6 -33 30 -33h130c60 0 58 89 102 117c14 9 30 11 47 11s34 -2 51 -2c30 0 56 6 67 43l223 767h26l-223 -767c-12 -42 -43 -49 -77 -49c-18 0 -36 2 -54 2c-20 0 -39 -3 -55 -13c-49 -32 -45 -133 -114 -133h-130
c-27 0 -34 16 -34 37c0 20 6 45 6 66c0 35 -21 43 -57 43c-18 0 -37 -2 -55 -2c-29 0 -51 5 -51 31c0 5 1 11 3 18l222 767h26l-222 -767c-2 -6 -3 -11 -3 -16c0 -23 20 -27 45 -27c17 0 35 2 52 2zM483 989l170 184h28l-178 -184h-20zM855 1173h28l-178 -184h-21z" />
    <glyph glyph-name="x" unicode="x" horiz-adv-x="547" 
d="M272 874h27l109 -405l341 405h32l-366 -434l118 -440h-26l-112 416l-350 -416h-32l374 445z" />
    <glyph glyph-name="two" unicode="2" 
d="M670 879c0 -29 16 -37 46 -37c17 0 36 2 52 2c23 0 41 -4 41 -25c0 -4 -1 -10 -3 -16l-38 -130c-49 -168 -216 -293 -372 -409l-300 -240h484l-7 -24h-520l7 24l330 264c147 109 306 227 352 385l38 130c2 5 2 10 2 14c0 18 -15 22 -34 22c-15 0 -33 -3 -49 -3
c-26 0 -39 8 -39 33c0 12 3 27 3 39c0 16 -5 28 -25 28h-107c-47 0 -48 -71 -83 -92c-10 -6 -22 -8 -35 -8c-16 0 -33 3 -48 3c-24 0 -44 -6 -53 -36h-26c10 35 34 41 62 41c16 0 34 -2 51 -2c16 0 32 2 44 10c41 25 39 108 95 108h107c23 0 29 -14 29 -32
c0 -15 -4 -33 -4 -49z" />
    <glyph glyph-name="c" unicode="c" horiz-adv-x="656" 
d="M160 272c0 -58 115 -29 115 -95c0 -45 -46 -116 -46 -158c0 -21 11 -35 44 -35h119c110 0 65 149 122 209c44 47 144 24 165 95h26c-23 -80 -135 -50 -185 -102c-62 -64 -17 -226 -135 -226h-119c-36 0 -48 15 -48 38c0 45 47 121 47 169c0 75 -131 37 -131 103
c0 5 0 11 2 18l87 298c23 80 135 50 185 102c62 64 17 226 135 226h119c36 0 48 -15 48 -38c0 -45 -47 -121 -47 -169c0 -75 131 -37 131 -103c0 -5 0 -11 -2 -18h-27c2 6 3 11 3 16c0 58 -115 29 -115 95c0 45 46 116 46 158c0 21 -11 35 -44 35h-119
c-110 0 -65 -149 -122 -209c-44 -47 -144 -24 -165 -95l-86 -298c-2 -6 -3 -11 -3 -16z" />
    <glyph glyph-name="Cacute" unicode="&#x106;" horiz-adv-x="911" 
d="M171 280c0 -86 187 -4 187 -105c0 -43 -28 -104 -28 -146c0 -26 12 -45 50 -45h177c114 0 86 163 156 220c67 55 202 -7 233 99h26c-33 -115 -180 -47 -253 -106c-76 -61 -46 -237 -169 -237h-177c-41 0 -54 19 -54 48c0 44 30 110 30 156c0 12 -2 24 -8 33
c-36 55 -196 1 -196 81c0 7 1 16 4 25l91 314c33 115 181 47 254 106c76 61 46 237 169 237h177c41 0 54 -19 54 -48c0 -44 -30 -110 -30 -156c0 -12 1 -24 7 -33c36 -55 197 -1 197 -81c0 -7 -1 -16 -4 -25h-27c3 9 4 16 4 23c0 86 -187 4 -187 105c0 43 29 104 29 146
c0 26 -12 45 -50 45h-177c-114 0 -86 -163 -156 -220c-67 -55 -203 7 -234 -99l-91 -314c-3 -9 -4 -16 -4 -23zM836 1173h29l-188 -184h-21z" />
    <glyph glyph-name="a" unicode="a" horiz-adv-x="635" 
d="M615 707c0 -66 112 -40 112 -99c0 -5 0 -10 -2 -16l-172 -592h-26l41 141c-27 -38 -96 -14 -131 -44c-42 -36 -23 -137 -94 -137h-103c-24 0 -32 12 -32 29c0 25 16 61 16 87c0 69 -127 9 -127 67c0 4 0 9 2 15l50 172c21 71 110 26 155 61s30 137 101 137h103
c23 0 31 -11 31 -27c0 -26 -20 -66 -20 -93c0 -58 103 -16 109 -61l71 245c2 5 2 10 2 14c0 51 -96 33 -96 91c0 45 51 119 51 161c0 20 -11 32 -43 32h-103c-108 0 -60 -145 -113 -206c-36 -41 -115 -32 -141 -80l-20 11c34 44 116 34 155 77c59 65 9 222 126 222h103
c35 0 47 -14 47 -36c0 -45 -52 -123 -52 -171zM625 343c0 50 -110 0 -110 59c0 23 14 54 14 76c0 15 -7 26 -28 26h-103c-62 0 -49 -89 -88 -120s-117 8 -135 -54l-50 -172c-1 -5 -2 -9 -2 -13c0 -50 110 0 110 -59c0 -23 -14 -54 -14 -76c0 -15 7 -26 28 -26h103
c62 0 49 89 88 120s117 -8 135 54c17 57 33 115 50 172c1 5 2 9 2 13z" />
    <glyph glyph-name="tcedilla" unicode="&#x163;" horiz-adv-x="365" 
d="M249 -272c0 33 -72 0 -72 39c0 15 10 36 10 51c0 10 -5 16 -19 16h-88l90 166l246 850h-162l7 24h162l57 196h26l-57 -196h162l-7 -24h-162l-246 -850h-5l-80 -146h63c16 0 21 -8 21 -20c0 -17 -10 -42 -10 -59c0 -46 85 -6 85 -45c0 -3 0 -6 -1 -10l-33 -113
c-14 -48 -74 -18 -104 -42s-21 -92 -69 -92h-67c-16 0 -21 8 -21 20c0 17 10 41 10 58c0 46 -85 6 -85 45c0 3 1 7 2 11h20c-1 -3 -1 -7 -1 -9c0 -33 72 1 72 -38c0 -15 -9 -36 -9 -51c0 -10 4 -17 18 -17h67c41 0 32 59 58 79s76 -4 88 36l33 113c1 3 1 6 1 8z" />
    <glyph glyph-name="quoteleft" unicode="&#x2018;" horiz-adv-x="344" 
d="M480 920h22l-194 -299h-30z" />
    <glyph glyph-name="Ohungarumlaut" unicode="&#x150;" horiz-adv-x="945" 
d="M555 989l171 184h28l-178 -184h-21zM928 1173h27l-178 -184h-20zM1041 640c0 86 -187 4 -187 105c0 43 29 104 29 146c0 26 -12 45 -50 45h-177c-114 0 -86 -163 -156 -220c-67 -55 -203 7 -234 -99l-91 -314c-3 -9 -4 -16 -4 -23c0 -86 187 -4 187 -105
c0 -43 -28 -104 -28 -146c0 -26 12 -45 50 -45h177c114 0 86 163 156 220c67 55 202 -7 233 99l91 314c3 9 4 16 4 23zM840 960c41 0 54 -19 54 -48c0 -44 -30 -110 -30 -156c0 -12 1 -24 7 -33c36 -55 197 -1 197 -81c0 -7 -1 -16 -4 -25l-92 -314
c-33 -115 -180 -47 -253 -106c-76 -61 -46 -237 -169 -237h-177c-41 0 -54 19 -54 48c0 44 30 110 30 156c0 12 -2 24 -8 33c-36 55 -196 1 -196 81c0 7 1 16 4 25l91 314c33 115 181 47 254 106c76 61 46 237 169 237h177z" />
    <glyph glyph-name="p" unicode="p" horiz-adv-x="689" 
d="M681 706c0 -73 127 -38 127 -102c0 -5 0 -12 -2 -18l-87 -298c-23 -78 -132 -51 -181 -102c-62 -64 -14 -226 -133 -226h-116c-35 0 -47 14 -47 36c0 46 54 126 54 175c0 65 -107 43 -111 97l-228 -788h-27l405 1394h26l-78 -268c32 49 117 38 156 82
c59 66 8 226 127 226h115c36 0 48 -15 48 -38c0 -46 -48 -122 -48 -170zM782 602c0 57 -111 30 -111 94c0 45 48 118 48 160c0 21 -12 34 -45 34h-115c-110 0 -65 -149 -121 -209c-43 -47 -141 -25 -161 -94c-29 -100 -57 -199 -86 -299c-2 -6 -3 -11 -3 -16
c0 -57 111 -30 111 -94c0 -45 -47 -118 -47 -160c0 -21 11 -34 44 -34h116c110 0 64 149 120 209c43 47 141 26 161 95l87 298c2 6 2 11 2 16z" />
    <glyph glyph-name="braceleft" unicode="{" horiz-adv-x="412" 
d="M82 -371c-2 -8 -4 -16 -4 -22c0 -30 27 -36 60 -36c19 0 41 2 61 2c37 0 64 -6 64 -43c0 -24 -10 -55 -14 -82l8 1c1 27 15 63 15 90c0 33 -24 40 -58 40c-18 0 -38 -2 -56 -2c-30 0 -53 5 -53 32c0 6 1 12 3 20l124 429c1 5 2 9 2 12c0 12 -7 18 -18 21l-10 -33
c1 4 2 7 2 10c0 38 -80 5 -80 48c0 21 15 51 15 71c0 12 -5 20 -23 20l8 26c54 0 38 76 70 103c29 25 89 0 102 46l125 429c14 49 49 58 89 58c19 0 40 -2 60 -2c24 0 47 2 65 15c32 22 57 110 57 110l8 -1c-20 -37 -26 -93 -59 -116c-16 -11 -37 -14 -59 -14
c-18 0 -36 2 -54 2c-36 0 -68 -8 -81 -52l-125 -429c-16 -55 -86 -23 -123 -54c-29 -24 -25 -82 -50 -108z" />
    <glyph glyph-name="Uacute" unicode="&#xda;" horiz-adv-x="802" 
d="M256 112c31 0 50 -8 50 -39c0 -18 -5 -39 -5 -56c0 -19 6 -33 30 -33h130c60 0 58 89 102 117c14 9 30 11 47 11s34 -2 51 -2c30 0 56 6 67 43l223 767h26l-223 -767c-12 -42 -43 -49 -77 -49c-18 0 -36 2 -54 2c-20 0 -39 -3 -55 -13c-49 -32 -45 -133 -114 -133h-130
c-27 0 -34 16 -34 37c0 20 6 45 6 66c0 35 -21 43 -57 43c-18 0 -37 -2 -55 -2c-29 0 -51 5 -51 31c0 5 1 11 3 18l222 767h26l-222 -767c-2 -6 -3 -11 -3 -16c0 -23 20 -27 45 -27c17 0 35 2 52 2zM764 1173h29l-189 -184h-21z" />
    <glyph glyph-name="t" unicode="t" horiz-adv-x="365" 
d="M254 850l7 24h162l57 196h26l-57 -196h162l-7 -24h-162l-246 -850h-26l246 850h-162z" />
    <glyph glyph-name="hyphen" unicode="-" horiz-adv-x="392" 
d="M176 425l7 24h286l-7 -24h-286z" />
    <glyph glyph-name="ugrave" unicode="&#xf9;" 
d="M147 150c0 -48 104 -3 104 -59c0 -24 -16 -59 -16 -82c0 -15 7 -25 28 -25h99c64 0 49 91 88 123c38 31 113 -3 130 56l207 711h26l-254 -874h-26l42 146c-27 -37 -93 -16 -127 -46c-42 -38 -20 -140 -93 -140h-99c-25 0 -32 12 -32 29c0 26 18 65 18 92
c0 66 -122 11 -122 67c0 4 0 9 2 15l207 711h26l-206 -711c-1 -5 -2 -9 -2 -13zM459 1333h28l74 -184h-21z" />
    <glyph glyph-name="numbersign" unicode="#" horiz-adv-x="729" 
d="M116 310l7 24h176l115 252h-191l7 24h195l141 310h29l-142 -310h226l141 310h28l-141 -310h173l-7 -24h-177l-115 -252h192l-7 -24h-195l-142 -310h-28l141 310h-225l-141 -310h-29l142 310h-173zM553 334l115 252h-226l-114 -252h225z" />
    <glyph glyph-name="abreve" unicode="&#x103;" horiz-adv-x="635" 
d="M615 707c0 -66 112 -40 112 -99c0 -5 0 -10 -2 -16l-172 -592h-26l41 141c-27 -38 -96 -14 -131 -44c-42 -36 -23 -137 -94 -137h-103c-24 0 -32 12 -32 29c0 25 16 61 16 87c0 69 -127 9 -127 67c0 4 0 9 2 15l50 172c21 71 110 26 155 61s30 137 101 137h103
c23 0 31 -11 31 -27c0 -26 -20 -66 -20 -93c0 -58 103 -16 109 -61l71 245c2 5 2 10 2 14c0 51 -96 33 -96 91c0 45 51 119 51 161c0 20 -11 32 -43 32h-103c-108 0 -60 -145 -113 -206c-36 -41 -115 -32 -141 -80l-20 11c34 44 116 34 155 77c59 65 9 222 126 222h103
c35 0 47 -14 47 -36c0 -45 -52 -123 -52 -171zM489 1184c-31 0 -7 51 -47 51c-19 0 -45 -8 -63 -8c-12 0 -19 3 -19 15c0 3 0 8 1 12l14 47h21l-14 -47c-1 -4 -1 -7 -1 -10c0 -9 6 -12 15 -12c16 0 41 8 58 8c4 0 9 0 12 -1c15 -6 10 -33 29 -33h76c24 0 32 34 61 34
c17 0 37 -8 53 -8c12 0 22 5 27 22l13 47h21l-13 -47c-6 -21 -19 -27 -34 -27c-18 0 -38 8 -57 8c-40 0 -45 -51 -77 -51h-76zM625 343c0 50 -110 0 -110 59c0 23 14 54 14 76c0 15 -7 26 -28 26h-103c-62 0 -49 -89 -88 -120s-117 8 -135 -54l-50 -172c-1 -5 -2 -9 -2 -13
c0 -50 110 0 110 -59c0 -23 -14 -54 -14 -76c0 -15 7 -26 28 -26h103c62 0 49 89 88 120s117 -8 135 54c17 57 33 115 50 172c1 5 2 9 2 13z" />
    <glyph glyph-name="bar" unicode="|" horiz-adv-x="270" 
d="M108 -46l294 1012h26l-294 -1012h-26z" />
    <glyph glyph-name="IJ" unicode="&#x132;" horiz-adv-x="817" 
d="M388 89c25 0 45 -3 45 -28c0 -17 -7 -38 -7 -54c0 -13 5 -23 23 -23h93c49 0 44 72 77 95c12 9 28 10 45 10h17c26 0 49 3 58 33l232 798h26l-232 -798c-10 -36 -38 -39 -69 -39h-18c-20 0 -38 -1 -53 -11c-39 -28 -32 -112 -90 -112h-93c-21 0 -27 11 -27 27
c0 19 8 44 8 64c0 29 -23 32 -53 32h-17c-26 0 -50 2 -50 25c0 4 1 9 3 14h26c-1 -5 -2 -9 -2 -12c0 -19 19 -21 41 -21h17zM107 0l267 920h26l-267 -920h-26z" />
    <glyph glyph-name="L" unicode="L" horiz-adv-x="621" 
d="M95 0l267 920h26l-260 -896h458l-7 -24h-484z" />
    <glyph glyph-name="Dcaron" unicode="&#x10e;" horiz-adv-x="851" 
d="M95 0l267 920h344c41 0 52 -21 52 -51c0 -38 -19 -90 -19 -129c0 -15 3 -28 11 -38c42 -52 214 13 214 -72c0 -8 -2 -16 -5 -26l-83 -288c-36 -124 -187 -41 -266 -98c-75 -54 -58 -218 -171 -218h-344zM783 1173h22l-211 -184h-30l-105 184h23l102 -167zM128 24h318
c104 0 89 152 158 202c73 53 213 -24 246 90l83 288c3 9 4 17 4 24c0 78 -158 18 -197 66c-7 9 -10 21 -10 35c0 36 17 85 17 120c0 27 -10 47 -48 47h-318z" />
    <glyph glyph-name="s" unicode="s" horiz-adv-x="540" 
d="M197 68c0 63 -117 9 -117 62c0 4 1 8 3 13h26c-1 -5 -2 -8 -2 -11c0 -46 99 0 99 -54c0 -21 -13 -51 -13 -71c0 -14 6 -23 26 -23h93c56 0 45 81 81 109c35 28 106 -5 122 50l40 140c3 10 4 19 4 28c0 43 -30 74 -60 103l-252 23c-24 24 -35 57 -35 94c0 21 3 43 10 66
l43 145c18 62 96 25 136 55c39 30 28 117 89 117h90c21 0 28 -11 28 -26c0 -21 -13 -52 -13 -74c0 -61 113 -6 113 -58c0 -4 -1 -9 -2 -14h-26c1 4 2 9 2 12c0 44 -96 -2 -96 50c0 19 11 45 11 64c0 13 -6 22 -24 22h-90c-52 0 -42 -75 -76 -101s-101 6 -116 -47l-42 -145
c-5 -18 -8 -36 -8 -53c0 -33 9 -62 31 -83l252 -23c33 -32 62 -71 62 -119c0 -11 -1 -24 -5 -36l-40 -140c-19 -64 -101 -26 -142 -58c-42 -32 -29 -125 -94 -125h-93c-23 0 -29 11 -29 27c0 23 14 57 14 81z" />
    <glyph glyph-name="Icircumflex" unicode="&#xce;" horiz-adv-x="242" 
d="M107 0l267 920h26l-267 -920h-26zM383 1156l-199 -167h-22l211 184h30l105 -184h-23z" />
    <glyph glyph-name="ae" unicode="&#xe6;" horiz-adv-x="999" 
d="M644 605c0 45 -78 38 -78 88c0 46 57 123 57 166c0 19 -11 31 -42 31h-88c-108 0 -57 -143 -106 -206c-31 -39 -100 -38 -123 -81l-19 12c32 38 103 37 136 77c55 67 2 222 119 222h88c34 0 46 -13 46 -34c0 -46 -58 -127 -58 -176c0 -51 71 -48 90 -81
c38 28 103 28 136 65c58 67 6 226 125 226h99c35 0 47 -14 47 -36c0 -46 -55 -127 -55 -176c0 -64 107 -43 107 -100c0 -5 0 -10 -2 -16c-16 -54 -31 -107 -47 -161h-456l-40 -137c-2 -5 -2 -11 -2 -15c0 -49 90 -36 90 -91c0 -46 -54 -123 -54 -166c0 -20 11 -32 43 -32h99
c66 0 48 93 88 126c37 31 114 -2 131 57h26c-20 -69 -108 -28 -151 -64c-45 -37 -27 -143 -101 -143h-99c-35 0 -47 14 -47 36c0 46 55 127 55 176s-61 47 -91 70l-25 -84c-18 -62 -98 -27 -137 -61c-42 -36 -23 -137 -94 -137h-88c-23 0 -30 11 -30 27c0 26 20 66 20 93
c0 59 -108 14 -108 65c0 4 1 8 2 13l50 172c18 62 98 27 137 61c42 36 23 137 94 137h88c22 0 30 -9 30 -24c0 -27 -26 -72 -26 -100c0 -48 85 -21 91 -58c24 82 47 164 71 246c1 5 2 9 2 13zM568 341c0 43 -91 7 -91 57c0 24 19 60 19 83c0 14 -7 23 -27 23h-88
c-63 0 -44 -88 -81 -120c-33 -29 -102 -1 -117 -54l-50 -172c-1 -4 -2 -8 -2 -11c0 -43 91 -7 91 -57c0 -24 -19 -60 -19 -83c0 -14 7 -23 27 -23h88c63 0 44 88 81 120c33 29 102 1 117 54l50 172c1 4 2 8 2 11zM1099 600c0 49 -91 37 -91 92c0 46 55 123 55 166
c0 20 -12 32 -44 32h-99c-110 0 -60 -146 -112 -209c-37 -44 -123 -35 -141 -95l-40 -137h430l40 137c2 5 2 10 2 14z" />
    <glyph glyph-name="r" unicode="r" horiz-adv-x="452" 
d="M726 711c0 46 -98 9 -98 62c0 27 21 66 21 92c0 15 -7 25 -29 25h-95c-69 0 -48 -97 -88 -132c-36 -32 -111 -2 -127 -59l-203 -699h-26l254 874h26l-46 -158c26 36 91 19 123 50c43 41 16 148 94 148h95c25 0 33 -11 33 -28c0 -29 -23 -73 -23 -103
c0 -63 115 -16 115 -70c0 -4 0 -9 -2 -14h-26c1 5 2 8 2 12z" />
    <glyph glyph-name="Acircumflex" unicode="&#xc2;" horiz-adv-x="749" 
d="M13 0l604 920h49l70 -920h-26l-20 254h-481l-167 -254h-29zM689 278l-49 633l-415 -633h464zM636 1156l-199 -167h-22l211 184h30l105 -184h-23z" />
    <glyph glyph-name="Iacute" unicode="&#xcd;" horiz-adv-x="242" 
d="M107 0l267 920h26l-267 -920h-26zM485 1173h28l-188 -184h-21z" />
    <glyph glyph-name="agrave" unicode="&#xe0;" horiz-adv-x="635" 
d="M615 707c0 -66 112 -40 112 -99c0 -5 0 -10 -2 -16l-172 -592h-26l41 141c-27 -38 -96 -14 -131 -44c-42 -36 -23 -137 -94 -137h-103c-24 0 -32 12 -32 29c0 25 16 61 16 87c0 69 -127 9 -127 67c0 4 0 9 2 15l50 172c21 71 110 26 155 61s30 137 101 137h103
c23 0 31 -11 31 -27c0 -26 -20 -66 -20 -93c0 -58 103 -16 109 -61l71 245c2 5 2 10 2 14c0 51 -96 33 -96 91c0 45 51 119 51 161c0 20 -11 32 -43 32h-103c-108 0 -60 -145 -113 -206c-36 -41 -115 -32 -141 -80l-20 11c34 44 116 34 155 77c59 65 9 222 126 222h103
c35 0 47 -14 47 -36c0 -45 -52 -123 -52 -171zM445 1333h28l74 -184h-21zM625 343c0 50 -110 0 -110 59c0 23 14 54 14 76c0 15 -7 26 -28 26h-103c-62 0 -49 -89 -88 -120s-117 8 -135 -54l-50 -172c-1 -5 -2 -9 -2 -13c0 -50 110 0 110 -59c0 -23 -14 -54 -14 -76
c0 -15 7 -26 28 -26h103c62 0 49 89 88 120s117 -8 135 54c17 57 33 115 50 172c1 5 2 9 2 13z" />
    <glyph glyph-name="j" unicode="j" horiz-adv-x="284" 
d="M-174 -400c8 -4 13 -10 13 -21c0 -27 -28 -70 -28 -95c0 -12 6 -20 26 -20h69c65 0 38 88 71 124c26 28 83 15 95 56l357 1230h26l-356 -1230c-15 -50 -85 -32 -116 -64c-39 -40 -10 -140 -84 -140h-68c-23 0 -31 10 -31 24c0 28 30 75 30 105c0 11 -5 17 -12 22z
M408 1287c13 0 -1 -19 4 -25s26 1 22 -12s-21 -5 -29 -11s-5 -25 -18 -25s1 19 -4 25s-26 -2 -22 11s20 6 28 12s6 25 19 25z" />
    <glyph glyph-name="germandbls" unicode="&#xdf;" horiz-adv-x="668" 
d="M704 807c0 41 -89 -1 -89 47c0 18 10 43 10 61c0 12 -5 21 -22 21h-84c-50 0 -39 -72 -71 -97s-95 7 -110 -43c-77 -265 -154 -531 -231 -796h-26c77 265 154 531 231 796c17 60 92 22 130 51s25 113 84 113h84c20 0 26 -11 26 -25c0 -21 -12 -50 -12 -71
c0 -58 107 -6 107 -55c0 -4 -1 -8 -2 -13l-40 -138c-11 -37 -63 -26 -86 -51c-22 -24 -14 -73 -32 -98c5 -5 6 -12 6 -21c0 -24 -13 -57 -13 -82c0 -72 134 -6 134 -67c0 -5 -1 -10 -3 -16l-49 -168c-16 -54 -88 -29 -122 -61c-39 -37 -16 -134 -86 -134h-108
c-22 0 -29 9 -29 23c0 27 26 71 26 99c0 48 -85 20 -85 62c0 3 1 7 2 11h26c-1 -3 -1 -6 -1 -9c0 -34 68 -15 68 -54c0 -25 -25 -64 -25 -88c0 -12 6 -20 25 -20h108c62 0 39 85 73 118c28 27 89 8 102 53l49 168c2 5 2 10 2 14c0 24 -25 25 -51 25h-7c-29 0 -58 1 -58 33
c0 22 11 51 11 72c0 16 -6 27 -28 27h-111l7 24h111c51 0 28 68 52 97c17 20 58 15 66 43l40 138c1 4 1 8 1 11z" />
    <glyph glyph-name="oacute" unicode="&#xf3;" horiz-adv-x="675" 
d="M701 1333h28l-188 -184h-21zM768 602c0 58 -115 29 -115 95c0 45 46 116 46 158c0 21 -11 35 -44 35h-119c-110 0 -65 -149 -122 -209c-44 -47 -144 -24 -165 -95l-86 -298c-2 -6 -3 -11 -3 -16c0 -58 115 -29 115 -95c0 -45 -46 -116 -46 -158c0 -21 11 -35 44 -35h119
c110 0 65 149 122 209c44 47 144 24 165 95l86 298c2 6 3 11 3 16zM265 167c0 75 -131 37 -131 103c0 5 0 11 2 18l87 298c23 80 135 50 185 102c62 64 17 226 135 226h119c36 0 48 -15 48 -38c0 -45 -47 -121 -47 -169c0 -75 131 -37 131 -103c0 -5 0 -11 -2 -18l-87 -298
c-23 -80 -135 -50 -185 -102c-62 -64 -17 -226 -135 -226h-119c-36 0 -48 15 -48 38c0 45 47 121 47 169z" />
    <glyph glyph-name="Racute" unicode="&#x154;" horiz-adv-x="682" 
d="M693 803c0 -38 27 -44 65 -44c13 0 27 1 40 1c32 0 60 -4 60 -33c0 -5 -1 -12 -3 -19l-54 -185c-13 -46 -47 -52 -86 -52c-13 0 -28 1 -41 1c-24 0 -46 -3 -64 -15c-25 -17 -37 -52 -50 -83l117 -374h-28l-107 341c-12 -18 -27 -30 -52 -30h-278l-91 -311h-26l267 920
h304c28 0 36 -16 36 -37c0 -24 -9 -55 -9 -80zM675 1173h29l-189 -184h-21zM740 754c-34 0 -57 5 -57 39c0 22 8 49 8 70c0 19 -7 33 -32 33h-278l-162 -561h277c67 0 61 99 108 130c16 11 35 12 56 12h39c34 0 64 5 76 46l54 185c2 7 3 12 3 17c0 25 -25 29 -53 29h-39z
" />
    <glyph glyph-name="C" unicode="C" horiz-adv-x="911" 
d="M171 280c0 -86 187 -4 187 -105c0 -43 -28 -104 -28 -146c0 -26 12 -45 50 -45h177c114 0 86 163 156 220c67 55 202 -7 233 99h26c-33 -115 -180 -47 -253 -106c-76 -61 -46 -237 -169 -237h-177c-41 0 -54 19 -54 48c0 44 30 110 30 156c0 12 -2 24 -8 33
c-36 55 -196 1 -196 81c0 7 1 16 4 25l91 314c33 115 181 47 254 106c76 61 46 237 169 237h177c41 0 54 -19 54 -48c0 -44 -30 -110 -30 -156c0 -12 1 -24 7 -33c36 -55 197 -1 197 -81c0 -7 -1 -16 -4 -25h-27c3 9 4 16 4 23c0 86 -187 4 -187 105c0 43 29 104 29 146
c0 26 -12 45 -50 45h-177c-114 0 -86 -163 -156 -220c-67 -55 -203 7 -234 -99l-91 -314c-3 -9 -4 -16 -4 -23z" />
    <glyph glyph-name="Ncaron" unicode="&#x147;" horiz-adv-x="844" 
d="M95 0l267 920h49l313 -913l265 913h26l-267 -920h-49l-313 913l-265 -913h-26zM839 1173h22l-211 -184h-30l-104 184h22l102 -167z" />
    <glyph glyph-name="slash" unicode="/" horiz-adv-x="506" 
d="M14 -46l714 1012h31l-714 -1012h-31z" />
    <glyph glyph-name="Uring" unicode="&#x16e;" horiz-adv-x="802" 
d="M256 112c31 0 50 -8 50 -39c0 -18 -5 -39 -5 -56c0 -19 6 -33 30 -33h130c60 0 58 89 102 117c14 9 30 11 47 11s34 -2 51 -2c30 0 56 6 67 43l223 767h26l-223 -767c-12 -42 -43 -49 -77 -49c-18 0 -36 2 -54 2c-20 0 -39 -3 -55 -13c-49 -32 -45 -133 -114 -133h-130
c-27 0 -34 16 -34 37c0 20 6 45 6 66c0 35 -21 43 -57 43c-18 0 -37 -2 -55 -2c-29 0 -51 5 -51 31c0 5 1 11 3 18l222 767h26l-222 -767c-2 -6 -3 -11 -3 -16c0 -23 20 -27 45 -27c17 0 35 2 52 2zM709 1122c-10 0 -19 1 -19 11c0 7 3 16 3 23c0 5 -2 9 -9 9h-38
c-20 0 -17 -29 -31 -39c-5 -4 -12 -4 -19 -4h-5c-11 0 -20 0 -24 -13l-16 -56c-1 -2 -1 -4 -1 -5c0 -8 8 -8 17 -8h5c10 0 19 -1 19 -11c0 -7 -3 -16 -3 -23c0 -5 2 -9 9 -9h38c20 0 17 29 31 39c5 4 12 4 19 4h5c11 0 21 0 25 13l16 56c1 2 1 4 1 5c0 8 -9 8 -18 8h-5z
M585 1022c0 13 -11 14 -25 14h-5c-12 0 -23 1 -23 11c0 2 0 4 1 6l16 56c5 16 18 17 32 17h5c9 0 18 0 25 5c17 12 14 50 40 50h38c9 0 12 -5 12 -12c0 -9 -4 -20 -4 -29c0 -13 10 -14 24 -14h5c12 0 23 -1 23 -11c0 -2 0 -4 -1 -6l-16 -56c-5 -16 -18 -17 -32 -17h-5
c-9 0 -18 0 -25 -5c-17 -12 -13 -50 -39 -50h-38c-9 0 -12 5 -12 12c0 9 4 20 4 29z" />
    <glyph glyph-name="Tcedilla" unicode="&#x162;" horiz-adv-x="621" 
d="M377 -272c0 33 -72 0 -72 39c0 15 9 36 9 51c0 10 -4 16 -18 16h-88l89 166l260 896h-295l7 24h616l-7 -24h-295l-260 -896h-5l-79 -146h62c16 0 22 -8 22 -20c0 -17 -11 -42 -11 -59c0 -46 86 -6 86 -45c0 -3 -1 -6 -2 -10l-33 -113c-14 -48 -74 -18 -104 -42
s-20 -92 -68 -92h-67c-16 0 -22 8 -22 20c0 17 11 41 11 58c0 46 -86 6 -86 45c0 3 1 7 2 11h21c-1 -3 -1 -7 -1 -9c0 -33 71 1 71 -38c0 -15 -9 -36 -9 -51c0 -10 4 -17 18 -17h68c41 0 31 59 57 79s76 -4 88 36l33 113c1 3 2 6 2 8z" />
    <glyph glyph-name="d" unicode="d" horiz-adv-x="695" 
d="M261 168c0 73 -127 38 -127 102c0 5 0 12 2 18l87 298c23 78 132 51 181 102c62 64 15 226 134 226h115c35 0 48 -14 48 -36c0 -46 -55 -126 -55 -175c0 -65 107 -43 111 -97l135 464h26l-310 -1070h-27l78 268c-32 -49 -117 -38 -156 -82c-59 -66 -8 -226 -127 -226
h-115c-36 0 -48 15 -48 38c0 46 48 122 48 170zM754 602c0 57 -111 30 -111 94c0 45 47 118 47 160c0 21 -11 34 -44 34h-115c-110 0 -65 -149 -121 -209c-43 -47 -141 -26 -161 -95l-86 -298c-2 -6 -3 -11 -3 -16c0 -57 111 -30 111 -94c0 -45 -47 -118 -47 -160
c0 -21 11 -34 44 -34h115c110 0 65 149 121 209c43 47 141 25 161 94c29 100 57 199 86 299c2 6 3 11 3 16z" />
    <glyph glyph-name="Zcaron" unicode="&#x17d;" horiz-adv-x="689" 
d="M293 896l7 24h622l-14 -49l-850 -847h605l-7 -24h-623l14 49l850 847h-604zM762 1173h22l-211 -184h-30l-105 184h23l102 -167z" />
    <glyph glyph-name="A" unicode="A" horiz-adv-x="749" 
d="M13 0l604 920h49l70 -920h-26l-20 254h-481l-167 -254h-29zM689 278l-49 633l-415 -633h464z" />
    <glyph glyph-name="ampersand" unicode="&#x26;" horiz-adv-x="837" 
d="M716 0h-368c-27 0 -32 18 -32 40c0 12 1 27 1 39c0 15 -2 28 -11 36c-9 7 -22 9 -38 9c-23 0 -51 -5 -73 -5c-24 0 -43 6 -43 29c0 5 1 11 3 18l41 140c11 38 37 47 67 47c22 0 47 -5 70 -5c16 0 31 2 44 9c46 26 49 115 108 115h109c-39 16 -26 87 -65 106
c-10 5 -22 7 -36 7c-6 0 -12 0 -19 -1c10 1 20 2 29 2c14 0 26 -2 35 -7c41 -21 16 -107 75 -107h327l-7 -24h-87zM783 868c0 -34 18 -43 52 -43c20 0 44 3 64 3c26 0 46 -5 46 -29c0 -5 -1 -11 -3 -18h-26c2 6 3 11 3 16c0 21 -17 26 -40 26c-19 0 -41 -4 -60 -4
c-30 0 -46 9 -46 39c0 14 3 30 3 44c0 19 -5 34 -29 34h-128c-55 0 -55 -82 -97 -107c-12 -7 -27 -10 -42 -10c-19 0 -39 4 -58 4c-28 0 -52 -7 -62 -42l-45 -154c-3 -10 -4 -19 -4 -26c0 -26 18 -35 45 -35c10 0 22 2 34 4c-21 -4 -41 -8 -58 -8c-28 0 -47 9 -47 37
c0 8 1 17 4 28l45 154c12 40 39 47 71 47c20 0 42 -3 62 -3c18 0 35 2 49 11c47 29 46 124 110 124h128c27 0 33 -17 33 -38c0 -17 -4 -37 -4 -54zM820 448h-342c-51 0 -55 -76 -95 -98c-11 -6 -24 -8 -37 -8c-22 0 -45 5 -66 5c-26 0 -48 -7 -58 -41l-40 -140
c-2 -6 -3 -11 -3 -16c0 -20 15 -25 36 -25s47 5 69 5c13 0 26 -2 33 -8c9 -7 10 -21 10 -35v-24c0 -21 3 -39 28 -39h342zM390 570c28 5 58 12 84 14c-27 -3 -57 -10 -84 -14z" />
    <glyph glyph-name="plus" unicode="+" horiz-adv-x="662" 
d="M571 874h26l-123 -425h264l-7 -24h-264l-124 -425h-26l123 425h-264l7 24h264z" />
    <glyph glyph-name="Ocircumflex" unicode="&#xd4;" horiz-adv-x="945" 
d="M1041 640c0 86 -187 4 -187 105c0 43 29 104 29 146c0 26 -12 45 -50 45h-177c-114 0 -86 -163 -156 -220c-67 -55 -203 7 -234 -99l-91 -314c-3 -9 -4 -16 -4 -23c0 -86 187 -4 187 -105c0 -43 -28 -104 -28 -146c0 -26 12 -45 50 -45h177c114 0 86 163 156 220
c67 55 202 -7 233 99l91 314c3 9 4 16 4 23zM840 960c41 0 54 -19 54 -48c0 -44 -30 -110 -30 -156c0 -12 1 -24 7 -33c36 -55 197 -1 197 -81c0 -7 -1 -16 -4 -25l-92 -314c-33 -115 -180 -47 -253 -106c-76 -61 -46 -237 -169 -237h-177c-41 0 -54 19 -54 48
c0 44 30 110 30 156c0 12 -2 24 -8 33c-36 55 -196 1 -196 81c0 7 1 16 4 25l91 314c33 115 181 47 254 106c76 61 46 237 169 237h177zM735 1156l-199 -167h-23l211 184h31l104 -184h-22z" />
    <glyph glyph-name="ocircumflex" unicode="&#xf4;" horiz-adv-x="675" 
d="M768 602c0 58 -115 29 -115 95c0 45 46 116 46 158c0 21 -11 35 -44 35h-119c-110 0 -65 -149 -122 -209c-44 -47 -144 -24 -165 -95l-86 -298c-2 -6 -3 -11 -3 -16c0 -58 115 -29 115 -95c0 -45 -46 -116 -46 -158c0 -21 11 -35 44 -35h119c110 0 65 149 122 209
c44 47 144 24 165 95l86 298c2 6 3 11 3 16zM265 167c0 75 -131 37 -131 103c0 5 0 11 2 18l87 298c23 80 135 50 185 102c62 64 17 226 135 226h119c36 0 48 -15 48 -38c0 -45 -47 -121 -47 -169c0 -75 131 -37 131 -103c0 -5 0 -11 -2 -18l-87 -298
c-23 -80 -135 -50 -185 -102c-62 -64 -17 -226 -135 -226h-119c-36 0 -48 15 -48 38c0 45 47 121 47 169zM599 1316l-199 -167h-22l211 184h30l105 -184h-23z" />
    <glyph glyph-name="visiblespace" unicode="&#x2420;" horiz-adv-x="540" 
d="M27 0h26l-57 -196h434l57 196h26c-21 -73 -43 -147 -64 -220h-486c21 73 43 147 64 220z" />
    <glyph glyph-name="Zacute" unicode="&#x179;" horiz-adv-x="689" 
d="M293 896l7 24h622l-14 -49l-850 -847h605l-7 -24h-623l14 49l850 847h-604zM708 1173h28l-188 -184h-21z" />
    <glyph glyph-name="z" unicode="z" horiz-adv-x="500" 
d="M280 850l6 24h434l-14 -49l-645 -801h413l-7 -24h-434l14 49l646 801h-413z" />
    <glyph glyph-name="V" unicode="V" horiz-adv-x="710" 
d="M278 920h26l53 -910l580 910h30l-587 -920h-49z" />
    <glyph glyph-name="yacute" unicode="&#xfd;" horiz-adv-x="567" 
d="M260 874h27l10 -822l487 822h29l-826 -1394h-29l313 529zM647 1333h28l-188 -184h-21z" />
    <glyph glyph-name="sterling" unicode="&#xa3;" horiz-adv-x="648" 
d="M791 753c0 40 -81 15 -81 61c0 28 26 72 26 99c0 14 -6 23 -28 23h-83c-70 0 -43 -96 -81 -133c-31 -31 -99 -11 -113 -60l-108 -372h291l-7 -24h-291l-61 -211c-8 -27 -25 -32 -46 -32c-16 0 -34 3 -50 3c-11 0 -21 -2 -30 -7c-27 -16 -32 -63 -60 -76h538l-7 -24h-552
l6 21l1 3c40 0 37 59 66 77c9 6 20 8 32 8c10 0 21 -1 31 -1c20 0 38 3 45 28l61 211h-141l7 24h141l108 372c17 59 96 32 133 67c43 41 16 150 94 150h83c25 0 32 -11 32 -27c0 -30 -28 -78 -28 -109c0 -55 99 -21 99 -69c0 -4 -1 -7 -2 -12h-26c1 4 1 7 1 10z" />
    <glyph glyph-name="dotaccent" unicode="&#x2d9;" horiz-adv-x="243" 
d="M375 874c13 0 -1 -19 4 -25s26 2 22 -11s-21 -6 -29 -12s-5 -25 -18 -25s1 19 -4 25s-26 -1 -22 12s20 5 28 11s6 25 19 25z" />
    <glyph glyph-name="ffi" unicode="&#xfb03;" horiz-adv-x="938" 
d="M1064 1033c-41 0 -7 53 -38 53h-72c-26 0 -30 -38 -51 -49c-5 -3 -12 -4 -18 -4c-13 0 -28 4 -41 4s-25 -4 -30 -22l-41 -141h337l-254 -874h-26l247 850h-311l-247 -850h-26l247 850h-290l-247 -850h-26l247 850h-143l7 24h143l47 162c5 16 16 20 29 20c8 0 16 -1 24 -1
c7 0 14 0 20 4c19 12 19 51 45 51h43c11 0 13 -6 13 -15c0 -7 -2 -16 -2 -23c0 -14 8 -17 22 -17c8 0 16 1 24 1c12 0 22 -3 19 -17l-27 -2c0 2 1 4 1 5c0 7 -6 8 -13 8s-14 -1 -21 -1c-10 0 -14 3 -14 13v12c0 7 -1 12 -9 12h-43c-18 0 -18 -26 -32 -34c-4 -2 -8 -3 -13 -3
c-7 0 -13 1 -20 1c-9 0 -17 -3 -20 -14l-47 -162h290l40 141c7 23 22 28 39 28c15 0 31 -4 46 -4c9 0 18 1 25 5c27 15 30 66 64 66h71c17 0 19 -12 19 -27v-13c0 -21 7 -31 29 -31c15 0 33 4 48 4c14 0 25 -4 25 -17c0 -3 -1 -7 -2 -11h-26c1 4 1 6 1 9c0 10 -7 13 -18 13
c-13 0 -31 -4 -44 -4z" />
    <glyph glyph-name="cwm" horiz-adv-x="0" 
d="M52 -3c-2 -6 -6 -9 -11 -9c-7 0 -14 6 -12 15l266 920c2 6 6 9 11 9c7 0 14 -6 12 -15z" />
    <glyph glyph-name="oe" unicode="&#x153;" horiz-adv-x="1067" 
d="M634 273c0 -50 94 -35 94 -92c0 -46 -54 -122 -54 -165c0 -20 12 -32 44 -32h101c66 0 49 93 89 126c38 32 115 -3 133 57h27c-20 -70 -110 -28 -154 -64c-46 -37 -28 -143 -102 -143h-101c-35 0 -48 14 -48 36c0 46 55 126 55 175c0 56 -82 47 -105 82
c-38 -31 -107 -28 -141 -67c-59 -66 -7 -226 -126 -226h-101c-35 0 -47 14 -47 36c0 46 54 126 54 175c0 65 -110 43 -110 101c0 5 1 10 3 16l86 298c20 70 121 53 165 102c59 66 7 226 126 226h101c35 0 47 -14 47 -36c0 -46 -54 -126 -54 -175c0 -56 81 -47 104 -82
c38 31 107 28 141 67c59 66 8 226 127 226h101c35 0 47 -14 47 -36c0 -46 -54 -126 -54 -175c0 -65 110 -43 110 -101c0 -5 -1 -10 -3 -16c-16 -54 -31 -107 -47 -161h-466l-39 -137c-2 -5 -3 -11 -3 -15zM699 601c0 50 -93 35 -93 92c0 46 53 122 53 165
c0 20 -11 32 -43 32h-101c-110 0 -61 -147 -114 -209c-38 -45 -126 -33 -144 -95l-86 -298c-2 -5 -3 -11 -3 -15c0 -50 94 -35 94 -92c0 -46 -54 -122 -54 -165c0 -20 12 -32 44 -32h101c110 0 60 147 113 209c38 45 126 33 144 95l87 298c2 5 2 11 2 15zM1165 601
c0 50 -93 35 -93 92c0 46 53 122 53 165c0 20 -11 32 -43 32h-101c-110 0 -61 -147 -114 -209c-38 -45 -126 -33 -144 -95l-40 -137h440l40 137c2 5 2 11 2 15z" />
    <glyph glyph-name="Lacute" unicode="&#x139;" horiz-adv-x="621" 
d="M95 0l267 920h26l-260 -896h458l-7 -24h-484zM472 1173h28l-188 -184h-21z" />
    <glyph glyph-name="zdotaccent" unicode="&#x17c;" horiz-adv-x="500" 
d="M280 850l6 24h434l-14 -49l-645 -801h413l-7 -24h-434l14 49l646 801h-413zM503 1287c13 0 -1 -19 4 -25s26 1 22 -12s-20 -5 -28 -11s-6 -25 -19 -25s1 19 -4 25s-25 -2 -21 11s20 6 28 12s5 25 18 25z" />
    <glyph glyph-name="aogonek" unicode="&#x105;" horiz-adv-x="635" 
d="M701 606c0 51 -96 33 -96 91c0 45 51 119 51 161c0 20 -11 32 -43 32h-103c-108 0 -60 -145 -113 -206c-36 -41 -115 -32 -141 -80l-20 11c34 44 116 34 155 77c59 65 9 222 126 222h103c35 0 47 -14 47 -36c0 -45 -52 -123 -52 -171c0 -66 112 -40 112 -99
c0 -5 0 -10 -2 -16l-170 -586l1 -6l-139 -161c-47 -46 -129 -58 -147 -119l-33 -113c-1 -3 -1 -7 -1 -9c0 -33 71 1 71 -38c0 -15 -9 -36 -9 -51c0 -10 4 -17 18 -17h67c41 0 32 59 58 79s76 -4 88 36h21c-14 -48 -74 -18 -104 -42s-20 -92 -68 -92h-67c-16 0 -22 8 -22 20
c0 17 11 41 11 58c0 46 -86 6 -86 45c0 3 1 7 2 11l33 113c20 68 110 86 163 138l123 142h-8l41 141c-27 -38 -96 -14 -131 -44c-42 -36 -23 -137 -94 -137h-103c-24 0 -32 12 -32 29c0 25 16 61 16 87c0 69 -127 9 -127 67c0 4 0 9 2 15l50 172c21 71 110 26 155 61
s30 137 101 137h103c23 0 31 -11 31 -27c0 -26 -20 -66 -20 -93c0 -58 103 -16 109 -61l71 245c2 5 2 10 2 14zM625 343c0 50 -110 0 -110 59c0 23 14 54 14 76c0 15 -7 26 -28 26h-103c-62 0 -49 -89 -88 -120s-117 8 -135 -54l-50 -172c-1 -5 -2 -9 -2 -13
c0 -50 110 0 110 -59c0 -23 -14 -54 -14 -76c0 -15 7 -26 28 -26h103c62 0 49 89 88 120s117 -8 135 54c17 57 33 115 50 172c1 5 2 9 2 13z" />
    <glyph glyph-name="Oacute" unicode="&#xd3;" horiz-adv-x="945" 
d="M836 1173h29l-188 -184h-21zM1041 640c0 86 -187 4 -187 105c0 43 29 104 29 146c0 26 -12 45 -50 45h-177c-114 0 -86 -163 -156 -220c-67 -55 -203 7 -234 -99l-91 -314c-3 -9 -4 -16 -4 -23c0 -86 187 -4 187 -105c0 -43 -28 -104 -28 -146c0 -26 12 -45 50 -45h177
c114 0 86 163 156 220c67 55 202 -7 233 99l91 314c3 9 4 16 4 23zM840 960c41 0 54 -19 54 -48c0 -44 -30 -110 -30 -156c0 -12 1 -24 7 -33c36 -55 197 -1 197 -81c0 -7 -1 -16 -4 -25l-92 -314c-33 -115 -180 -47 -253 -106c-76 -61 -46 -237 -169 -237h-177
c-41 0 -54 19 -54 48c0 44 30 110 30 156c0 12 -2 24 -8 33c-36 55 -196 1 -196 81c0 7 1 16 4 25l91 314c33 115 181 47 254 106c76 61 46 237 169 237h177z" />
    <glyph glyph-name="edieresis" unicode="&#xeb;" horiz-adv-x="668" 
d="M160 272c0 -58 115 -29 115 -95c0 -45 -46 -116 -46 -158c0 -21 11 -35 44 -35h119c65 0 55 95 98 126c45 33 133 -14 154 57h26c-23 -81 -123 -27 -174 -64c-49 -36 -37 -143 -111 -143h-119c-36 0 -48 15 -48 38c0 45 47 121 47 169c0 75 -131 37 -131 103
c0 5 0 11 2 18l87 298c23 80 135 50 185 102c62 64 17 226 135 226h119c36 0 48 -15 48 -38c0 -45 -47 -121 -47 -169c0 -75 131 -37 131 -103c0 -5 0 -11 -2 -18c-16 -54 -31 -107 -47 -161h-542l-40 -137c-2 -6 -3 -11 -3 -16zM470 1287c13 0 -1 -19 4 -25s26 1 22 -12
s-21 -5 -29 -11s-5 -25 -18 -25s1 19 -4 25s-26 -2 -22 11s20 6 28 12s6 25 19 25zM712 1287c13 0 -1 -19 4 -25s26 1 22 -12s-21 -5 -29 -11s-5 -25 -18 -25s1 19 -4 25s-26 -2 -22 11s20 6 28 12s6 25 19 25zM768 602c0 58 -115 29 -115 95c0 45 46 116 46 158
c0 21 -11 35 -44 35h-119c-110 0 -65 -149 -122 -209c-44 -47 -144 -24 -165 -95l-40 -137h517l39 137c2 6 3 11 3 16z" />
    <glyph glyph-name="l" unicode="l" horiz-adv-x="188" 
d="M81 0l311 1070h26l-311 -1070h-26z" />
    <glyph glyph-name="b" unicode="b" horiz-adv-x="695" 
d="M687 706c0 -73 127 -38 127 -102c0 -5 0 -12 -2 -18l-87 -298c-23 -78 -132 -51 -181 -102c-62 -64 -14 -226 -133 -226h-116c-35 0 -47 14 -47 36c0 46 54 126 54 175c0 65 -107 43 -111 97l-78 -268h-26l311 1070h26l-135 -464c32 49 117 38 156 82
c59 66 8 226 127 226h115c36 0 48 -15 48 -38c0 -46 -48 -122 -48 -170zM788 602c0 57 -111 30 -111 94c0 45 48 118 48 160c0 21 -12 34 -45 34h-115c-110 0 -65 -149 -121 -209c-43 -47 -140 -25 -160 -94c-29 -100 -58 -199 -87 -299c-2 -6 -3 -11 -3 -16
c0 -57 111 -30 111 -94c0 -45 -47 -118 -47 -160c0 -21 11 -34 44 -34h116c110 0 64 149 120 209c43 47 141 26 161 95l87 298c2 6 2 11 2 16z" />
    <glyph glyph-name="dcroat" unicode="&#x111;" horiz-adv-x="709" 
d="M261 168c0 73 -127 38 -127 102c0 5 0 12 2 18l87 298c23 78 132 51 181 102c62 64 15 226 134 226h115c35 0 48 -14 48 -36c0 -3 -1 -7 -1 -10h133l59 202h26l-59 -202h88l-7 -24h-88l-244 -844h-27l78 268c-32 -49 -117 -38 -156 -82c-59 -66 -8 -226 -127 -226h-115
c-36 0 -48 15 -48 38c0 46 48 122 48 170zM754 602c0 57 -111 30 -111 94c0 41 39 105 46 148h-114l7 24h107c-4 14 -17 22 -43 22h-115c-110 0 -65 -149 -121 -209c-43 -47 -141 -26 -161 -95l-86 -298c-2 -6 -3 -11 -3 -16c0 -57 111 -30 111 -94c0 -45 -47 -118 -47 -160
c0 -21 11 -34 44 -34h115c110 0 65 149 121 209c43 47 141 25 161 94c29 100 57 199 86 299c2 6 3 11 3 16zM757 606l69 238h-132c-14 -45 -48 -102 -48 -141c0 -65 107 -43 111 -97z" />
    <glyph glyph-name="ohungarumlaut" unicode="&#x151;" horiz-adv-x="675" 
d="M419 1149l171 184h28l-178 -184h-21zM792 1333h28l-178 -184h-21zM768 602c0 58 -115 29 -115 95c0 45 46 116 46 158c0 21 -11 35 -44 35h-119c-110 0 -65 -149 -122 -209c-44 -47 -144 -24 -165 -95l-86 -298c-2 -6 -3 -11 -3 -16c0 -58 115 -29 115 -95
c0 -45 -46 -116 -46 -158c0 -21 11 -35 44 -35h119c110 0 65 149 122 209c44 47 144 24 165 95l86 298c2 6 3 11 3 16zM265 167c0 75 -131 37 -131 103c0 5 0 11 2 18l87 298c23 80 135 50 185 102c62 64 17 226 135 226h119c36 0 48 -15 48 -38c0 -45 -47 -121 -47 -169
c0 -75 131 -37 131 -103c0 -5 0 -11 -2 -18l-87 -298c-23 -80 -135 -50 -185 -102c-62 -64 -17 -226 -135 -226h-119c-36 0 -48 15 -48 38c0 45 47 121 47 169z" />
    <glyph glyph-name="X" unicode="X" horiz-adv-x="668" 
d="M280 920h27l167 -433l414 433h35l-439 -458l178 -462h-27l-171 441l-422 -441h-35l447 467z" />
    <glyph glyph-name="e" unicode="e" horiz-adv-x="668" 
d="M160 272c0 -58 115 -29 115 -95c0 -45 -46 -116 -46 -158c0 -21 11 -35 44 -35h119c65 0 55 95 98 126c45 33 133 -14 154 57h26c-23 -81 -123 -27 -174 -64c-49 -36 -37 -143 -111 -143h-119c-36 0 -48 15 -48 38c0 45 47 121 47 169c0 75 -131 37 -131 103
c0 5 0 11 2 18l87 298c23 80 135 50 185 102c62 64 17 226 135 226h119c36 0 48 -15 48 -38c0 -45 -47 -121 -47 -169c0 -75 131 -37 131 -103c0 -5 0 -11 -2 -18c-16 -54 -31 -107 -47 -161h-542l-40 -137c-2 -6 -3 -11 -3 -16zM768 602c0 58 -115 29 -115 95
c0 45 46 116 46 158c0 21 -11 35 -44 35h-119c-110 0 -65 -149 -122 -209c-44 -47 -144 -24 -165 -95l-40 -137h517l39 137c2 6 3 11 3 16z" />
    <glyph glyph-name="Egrave" unicode="&#xc8;" horiz-adv-x="628" 
d="M95 0l267 920h486l-7 -24h-460l-152 -525h447l-7 -24h-447l-94 -323h460l-7 -24h-486zM480 1173h28l74 -184h-21z" />
    <glyph glyph-name="section" unicode="&#xa7;" 
d="M90 -446c0 66 -123 9 -123 65c0 4 0 9 2 15h26c-1 -5 -2 -9 -2 -13c0 -48 106 0 106 -57c0 -22 -14 -53 -14 -75c0 -15 6 -25 27 -25h99c61 0 48 87 86 117s113 -6 130 53l49 168c1 5 2 9 2 13c0 48 -106 0 -106 57c0 22 14 53 14 75c0 15 -6 25 -27 25h-100
c-22 0 -27 12 -27 29c0 18 7 41 7 59c0 29 -20 34 -49 34c-11 0 -23 -1 -34 -1c-24 0 -45 3 -45 25c0 4 1 9 3 15l39 134c10 35 36 40 65 40c11 0 23 -1 34 -1c18 0 35 2 48 11c37 25 35 97 79 109c-13 4 -17 14 -17 27c0 21 10 49 10 70c0 33 -28 34 -61 34h-8
c-29 0 -57 1 -57 26c0 4 1 9 3 15l48 168c20 69 106 26 150 60s29 134 99 134h99c24 0 31 -12 31 -29c0 -25 -15 -60 -15 -85c0 -66 123 -9 123 -65c0 -4 -1 -9 -3 -15h-26c1 5 2 9 2 13c0 48 -105 -1 -105 56c0 22 13 54 13 76c0 15 -6 25 -27 25h-99
c-61 0 -48 -87 -86 -117s-113 6 -130 -53l-48 -168c-1 -5 -2 -9 -2 -13c0 -48 106 0 106 -57c0 -22 -14 -53 -14 -75c0 -15 6 -25 27 -25h99c22 0 27 -12 27 -29c0 -18 -6 -41 -6 -59c0 -29 19 -34 48 -34c11 0 24 1 35 1c24 0 44 -3 44 -25c0 -4 0 -9 -2 -15l-39 -134
c-10 -35 -36 -40 -65 -40c-11 0 -23 1 -34 1c-18 0 -35 -2 -48 -11c-37 -25 -35 -97 -79 -109c13 -4 16 -14 16 -27c0 -21 -9 -49 -9 -70c0 -33 27 -34 60 -34h9c29 0 56 -1 56 -26c0 -4 0 -9 -2 -15l-49 -168c-20 -69 -106 -26 -150 -60s-28 -134 -98 -134h-100
c-24 0 -31 12 -31 29c0 25 16 60 16 85zM543 301c-25 0 -41 5 -41 29c0 15 6 34 6 49c0 14 -5 25 -24 25h-99c-49 0 -45 -71 -79 -94c-11 -8 -25 -9 -40 -9h-32c-25 0 -46 -4 -55 -34l-39 -134c-1 -5 -2 -9 -2 -13c0 -18 17 -21 37 -21h32c25 0 41 -5 41 -29
c0 -15 -5 -34 -5 -49c0 -14 4 -25 23 -25h100c49 0 45 71 79 94c11 8 25 9 40 9h32c25 0 46 4 55 34l39 134c1 5 2 9 2 13c0 18 -18 21 -38 21h-32z" />
    <glyph glyph-name="braceright" unicode="}" horiz-adv-x="412" 
d="M332 372c0 -38 80 -5 80 -48c0 -21 -16 -51 -16 -71c0 -12 5 -20 23 -20l-8 -26c-54 0 -37 -76 -69 -103c-29 -25 -90 0 -103 -46l-124 -429c-14 -49 -51 -57 -91 -57c-17 0 -35 1 -53 1c-25 0 -48 -2 -66 -15c-44 -31 -44 -112 -80 -150l-13 11c48 25 42 114 87 146
c16 12 37 14 59 14c16 0 33 -1 49 -1c36 0 68 7 81 51l125 429c16 55 88 24 123 54c29 24 25 82 50 108c-1 3 -2 7 -2 11c0 23 18 58 18 82c0 53 -97 12 -97 57c0 3 1 7 2 12l124 429c2 7 4 15 4 20c0 27 -25 31 -55 31c-16 0 -34 -1 -50 -1c-34 0 -58 6 -58 39
c0 28 16 66 16 94c0 12 -3 21 -11 27l19 11c2 -5 3 -11 3 -17c0 -31 -18 -75 -18 -106c0 -37 28 -42 65 -42c18 0 37 1 54 1c34 0 61 -5 61 -35c0 -6 -1 -14 -3 -22l-125 -429c-1 -4 -1 -7 -1 -10z" />
    <glyph glyph-name="Ograve" unicode="&#xd2;" horiz-adv-x="945" 
d="M614 1173h29l74 -184h-21zM1041 640c0 86 -187 4 -187 105c0 43 29 104 29 146c0 26 -12 45 -50 45h-177c-114 0 -86 -163 -156 -220c-67 -55 -203 7 -234 -99l-91 -314c-3 -9 -4 -16 -4 -23c0 -86 187 -4 187 -105c0 -43 -28 -104 -28 -146c0 -26 12 -45 50 -45h177
c114 0 86 163 156 220c67 55 202 -7 233 99l91 314c3 9 4 16 4 23zM840 960c41 0 54 -19 54 -48c0 -44 -30 -110 -30 -156c0 -12 1 -24 7 -33c36 -55 197 -1 197 -81c0 -7 -1 -16 -4 -25l-92 -314c-33 -115 -180 -47 -253 -106c-76 -61 -46 -237 -169 -237h-177
c-41 0 -54 19 -54 48c0 44 30 110 30 156c0 12 -2 24 -8 33c-36 55 -196 1 -196 81c0 7 1 16 4 25l91 314c33 115 181 47 254 106c76 61 46 237 169 237h177z" />
    <glyph glyph-name="uacute" unicode="&#xfa;" 
d="M147 150c0 -48 104 -3 104 -59c0 -24 -16 -59 -16 -82c0 -15 7 -25 28 -25h99c64 0 49 91 88 123c38 31 113 -3 130 56l207 711h26l-254 -874h-26l42 146c-27 -37 -93 -16 -127 -46c-42 -38 -20 -140 -93 -140h-99c-25 0 -32 12 -32 29c0 26 18 65 18 92
c0 66 -122 11 -122 67c0 4 0 9 2 15l207 711h26l-206 -711c-1 -5 -2 -9 -2 -13zM681 1333h28l-188 -184h-21z" />
    <glyph glyph-name="scaron" unicode="&#x161;" horiz-adv-x="540" 
d="M197 68c0 63 -117 9 -117 62c0 4 1 8 3 13h26c-1 -5 -2 -8 -2 -11c0 -46 99 0 99 -54c0 -21 -13 -51 -13 -71c0 -14 6 -23 26 -23h93c56 0 45 81 81 109c35 28 106 -5 122 50l40 140c3 10 4 19 4 28c0 43 -30 74 -60 103l-252 23c-24 24 -35 57 -35 94c0 21 3 43 10 66
l43 145c18 62 96 25 136 55c39 30 28 117 89 117h90c21 0 28 -11 28 -26c0 -21 -13 -52 -13 -74c0 -61 113 -6 113 -58c0 -4 -1 -9 -2 -14h-26c1 4 2 9 2 12c0 44 -96 -2 -96 50c0 19 11 45 11 64c0 13 -6 22 -24 22h-90c-52 0 -42 -75 -76 -101s-101 6 -116 -47l-42 -145
c-5 -18 -8 -36 -8 -53c0 -33 9 -62 31 -83l252 -23c33 -32 62 -71 62 -119c0 -11 -1 -24 -5 -36l-40 -140c-19 -64 -101 -26 -142 -58c-42 -32 -29 -125 -94 -125h-93c-23 0 -29 11 -29 27c0 23 14 57 14 81zM687 1333h23l-211 -184h-31l-104 184h22l102 -167z" />
    <glyph glyph-name="hungarumlaut" unicode="&#x2dd;" horiz-adv-x="284" 
d="M224 736l170 184h28l-178 -184h-20zM596 920h28l-178 -184h-21z" />
    <glyph glyph-name="Scedilla" unicode="&#x15e;" horiz-adv-x="702" 
d="M249 64c0 34 -23 41 -58 41c-15 0 -30 -1 -44 -1c-29 0 -53 4 -53 30c0 5 1 11 3 18h26c-2 -6 -2 -12 -2 -16c0 -22 20 -26 45 -26c14 0 28 1 42 1c31 0 50 -6 50 -36c0 -19 -6 -42 -6 -60s6 -31 29 -31h45l14 26h20l-13 -26h57c59 0 57 87 99 115c15 10 33 11 52 11
c11 0 23 -1 34 -1c31 0 60 6 71 43l42 147c3 9 4 19 4 27c0 50 -43 82 -86 109l-332 29c-36 22 -53 62 -53 107c0 18 2 37 8 56l45 154c12 40 41 45 74 45c14 0 29 -1 43 -1c20 0 39 2 54 12c46 30 44 123 107 123h120c25 0 31 -14 31 -34c0 -19 -6 -43 -6 -62
c0 -32 20 -39 53 -39c16 0 35 1 51 1c27 0 47 -4 47 -28c0 -5 0 -10 -2 -17h-27c2 6 3 11 3 15c0 21 -18 25 -41 25c-15 0 -33 -2 -48 -2c-29 0 -45 7 -45 35c0 16 4 35 4 51c0 17 -5 31 -27 31h-120c-55 0 -54 -81 -94 -106c-13 -8 -29 -10 -46 -10c-14 0 -28 1 -41 1
c-29 0 -54 -5 -64 -40l-44 -154c-5 -17 -8 -32 -8 -48c0 -38 16 -72 46 -91l331 -29c48 -30 94 -70 94 -127c0 -10 -2 -21 -5 -33l-42 -147c-12 -43 -45 -48 -81 -48h-35c-22 0 -44 -2 -61 -13c-48 -32 -44 -131 -112 -131h-63l-58 -106h63c16 0 21 -8 21 -20
c0 -17 -10 -42 -10 -59c0 -46 85 -6 85 -45c0 -3 -1 -6 -2 -10l-33 -113c-14 -48 -74 -18 -104 -42s-20 -92 -68 -92h-67c-16 0 -22 8 -22 20c0 17 11 41 11 58c0 46 -85 6 -85 45c0 3 0 7 1 11h21c-1 -3 -1 -7 -1 -9c0 -33 71 1 71 -38c0 -15 -9 -36 -9 -51
c0 -10 4 -17 18 -17h68c41 0 32 59 58 79s76 -4 88 36l32 113c1 3 2 6 2 8c0 33 -72 0 -72 39c0 15 9 36 9 51c0 10 -4 16 -18 16h-88l68 126h-39c-26 0 -33 15 -33 35c0 21 8 47 8 69z" />
    <glyph glyph-name="Ecaron" unicode="&#x11a;" horiz-adv-x="628" 
d="M95 0l267 920h486l-7 -24h-460l-152 -525h447l-7 -24h-447l-94 -323h460l-7 -24h-486zM756 1173h22l-211 -184h-30l-105 184h23l102 -167z" />
    <glyph glyph-name="ij" unicode="&#x133;" horiz-adv-x="621" 
d="M375 874h26l-253 -874h-27zM153 -400c8 -4 14 -10 14 -22c0 -26 -27 -68 -27 -93c0 -12 6 -21 26 -21h72c65 0 39 89 73 124c27 28 87 13 99 56l357 1230h26l-357 -1230c-15 -52 -86 -32 -119 -64c-40 -39 -12 -140 -86 -140h-72c-23 0 -30 9 -30 24c0 28 28 74 28 104
c0 12 -5 18 -12 23zM863 1267c13 0 -1 -19 4 -25s26 2 22 -11s-21 -5 -29 -11s-5 -25 -18 -25s1 19 -4 25s-26 -2 -22 11s20 5 28 11s6 25 19 25zM533 1267c13 0 -1 -19 4 -25s25 2 21 -11s-20 -5 -28 -11s-5 -25 -18 -25s1 19 -4 25s-26 -2 -22 11s20 5 28 11s6 25 19 25z
" />
    <glyph glyph-name="nacute" unicode="&#x144;" 
d="M747 721c0 36 -72 15 -72 56c0 26 26 67 26 92c0 13 -7 21 -27 21h-99c-64 0 -57 -93 -101 -123c-15 -11 -35 -13 -55 -13c-10 0 -22 1 -32 1c-33 0 -62 -5 -73 -44l-207 -711h-26l254 874h26l-42 -143c32 48 112 10 156 43c47 35 34 140 107 140h99c23 0 30 -9 30 -24
c0 -28 -27 -74 -27 -103c0 -50 89 -20 89 -64c0 -3 0 -8 -1 -12l-207 -711h-26l206 711c1 4 2 7 2 10zM687 1333h28l-188 -184h-21z" />
    <glyph glyph-name="aring" unicode="&#xe5;" horiz-adv-x="635" 
d="M615 707c0 -66 112 -40 112 -99c0 -5 0 -10 -2 -16l-172 -592h-26l41 141c-27 -38 -96 -14 -131 -44c-42 -36 -23 -137 -94 -137h-103c-24 0 -32 12 -32 29c0 25 16 61 16 87c0 69 -127 9 -127 67c0 4 0 9 2 15l50 172c21 71 110 26 155 61s30 137 101 137h103
c23 0 31 -11 31 -27c0 -26 -20 -66 -20 -93c0 -58 103 -16 109 -61l71 245c2 5 2 10 2 14c0 51 -96 33 -96 91c0 45 51 119 51 161c0 20 -11 32 -43 32h-103c-108 0 -60 -145 -113 -206c-36 -41 -115 -32 -141 -80l-20 11c34 44 116 34 155 77c59 65 9 222 126 222h103
c35 0 47 -14 47 -36c0 -45 -52 -123 -52 -171zM625 343c0 50 -110 0 -110 59c0 23 14 54 14 76c0 15 -7 26 -28 26h-103c-62 0 -49 -89 -88 -120s-117 8 -135 -54l-50 -172c-1 -5 -2 -9 -2 -13c0 -50 110 0 110 -59c0 -23 -14 -54 -14 -76c0 -15 7 -26 28 -26h103
c62 0 49 89 88 120s117 -8 135 54c17 57 33 115 50 172c1 5 2 9 2 13zM612 1282c-11 0 -19 1 -19 11c0 7 3 16 3 23c0 5 -2 9 -9 9h-38c-20 0 -17 -29 -31 -39c-5 -4 -12 -4 -19 -4h-5c-11 0 -21 0 -25 -13l-16 -56c-1 -2 -1 -4 -1 -5c0 -8 9 -8 18 -8h5c10 0 19 -1 19 -11
c0 -7 -3 -16 -3 -23c0 -5 2 -9 9 -9h38c20 0 17 29 31 39c5 4 12 4 19 4h5c11 0 20 0 24 13l16 56c1 2 1 3 1 4c0 8 -8 9 -17 9h-5zM487 1182c0 13 -10 14 -24 14h-5c-12 0 -23 1 -23 11c0 2 0 4 1 6l16 56c5 16 18 17 32 17h5c9 0 18 0 25 5c17 12 13 50 39 50h38
c9 0 12 -5 12 -12c0 -9 -4 -20 -4 -29c0 -13 11 -14 25 -14h5c12 0 23 -1 23 -11c0 -2 0 -4 -1 -6l-16 -56c-5 -16 -18 -17 -32 -17h-5c-9 0 -18 0 -25 -5c-17 -12 -14 -50 -40 -50h-38c-9 0 -12 5 -12 12c0 9 4 20 4 29z" />
    <glyph glyph-name="ecircumflex" unicode="&#xea;" horiz-adv-x="668" 
d="M160 272c0 -58 115 -29 115 -95c0 -45 -46 -116 -46 -158c0 -21 11 -35 44 -35h119c65 0 55 95 98 126c45 33 133 -14 154 57h26c-23 -81 -123 -27 -174 -64c-49 -36 -37 -143 -111 -143h-119c-36 0 -48 15 -48 38c0 45 47 121 47 169c0 75 -131 37 -131 103
c0 5 0 11 2 18l87 298c23 80 135 50 185 102c62 64 17 226 135 226h119c36 0 48 -15 48 -38c0 -45 -47 -121 -47 -169c0 -75 131 -37 131 -103c0 -5 0 -11 -2 -18c-16 -54 -31 -107 -47 -161h-542l-40 -137c-2 -6 -3 -11 -3 -16zM768 602c0 58 -115 29 -115 95
c0 45 46 116 46 158c0 21 -11 35 -44 35h-119c-110 0 -65 -149 -122 -209c-44 -47 -144 -24 -165 -95l-40 -137h517l39 137c2 6 3 11 3 16zM599 1316l-199 -167h-22l211 184h30l105 -184h-23z" />
    <glyph glyph-name="Lslash" unicode="&#x141;" horiz-adv-x="635" 
d="M593 0h-486l105 363l-97 -56l9 30l97 55l153 528h26l-148 -510l357 203l-8 -30l-357 -203l-104 -356h460z" />
    <glyph glyph-name="backslash" unicode="\" horiz-adv-x="506" 
d="M433 -46l-126 1012h33l126 -1012h-33z" />
    <glyph glyph-name="ucircumflex" unicode="&#xfb;" 
d="M147 150c0 -48 104 -3 104 -59c0 -24 -16 -59 -16 -82c0 -15 7 -25 28 -25h99c64 0 49 91 88 123c38 31 113 -3 130 56l207 711h26l-254 -874h-26l42 146c-27 -37 -93 -16 -127 -46c-42 -38 -20 -140 -93 -140h-99c-25 0 -32 12 -32 29c0 26 18 65 18 92
c0 66 -122 11 -122 67c0 4 0 9 2 15l207 711h26l-206 -711c-1 -5 -2 -9 -2 -13zM579 1316l-199 -167h-22l211 184h30l105 -184h-23z" />
    <glyph glyph-name="dcaron" unicode="&#x10f;" horiz-adv-x="695" 
d="M261 168c0 73 -127 38 -127 102c0 5 0 12 2 18l87 298c23 78 132 51 181 102c62 64 15 226 134 226h115c35 0 48 -14 48 -36c0 -46 -55 -126 -55 -175c0 -65 107 -43 111 -97l135 464h26l-310 -1070h-27l78 268c-32 -49 -117 -38 -156 -82c-59 -66 -8 -226 -127 -226
h-115c-36 0 -48 15 -48 38c0 46 48 122 48 170zM1057 1070h30l-203 -299h-22zM754 602c0 57 -111 30 -111 94c0 45 47 118 47 160c0 21 -11 34 -44 34h-115c-110 0 -65 -149 -121 -209c-43 -47 -141 -26 -161 -95l-86 -298c-2 -6 -3 -11 -3 -16c0 -57 111 -30 111 -94
c0 -45 -47 -118 -47 -160c0 -21 11 -34 44 -34h115c110 0 65 149 121 209c43 47 141 25 161 94c29 100 57 199 86 299c2 6 3 11 3 16z" />
    <glyph glyph-name="ograve" unicode="&#xf2;" horiz-adv-x="675" 
d="M479 1333h28l74 -184h-21zM768 602c0 58 -115 29 -115 95c0 45 46 116 46 158c0 21 -11 35 -44 35h-119c-110 0 -65 -149 -122 -209c-44 -47 -144 -24 -165 -95l-86 -298c-2 -6 -3 -11 -3 -16c0 -58 115 -29 115 -95c0 -45 -46 -116 -46 -158c0 -21 11 -35 44 -35h119
c110 0 65 149 122 209c44 47 144 24 165 95l86 298c2 6 3 11 3 16zM265 167c0 75 -131 37 -131 103c0 5 0 11 2 18l87 298c23 80 135 50 185 102c62 64 17 226 135 226h119c36 0 48 -15 48 -38c0 -45 -47 -121 -47 -169c0 -75 131 -37 131 -103c0 -5 0 -11 -2 -18l-87 -298
c-23 -80 -135 -50 -185 -102c-62 -64 -17 -226 -135 -226h-119c-36 0 -48 15 -48 38c0 45 47 121 47 169z" />
    <glyph glyph-name="eight" unicode="8" horiz-adv-x="675" 
d="M205 108c30 0 50 -5 50 -34c0 -19 -8 -43 -8 -61c0 -17 6 -29 28 -29h115c58 0 53 86 93 113c14 9 31 11 49 11c10 0 21 -1 31 -1c30 0 57 5 67 40l47 161c2 6 2 11 2 15c0 22 -21 25 -46 25c-10 0 -21 -1 -31 -1c-30 0 -50 5 -50 34c0 19 7 43 7 61c0 17 -6 29 -28 29
h-115c-58 0 -52 -86 -92 -113c-14 -9 -32 -11 -50 -11c-10 0 -21 1 -31 1c-30 0 -56 -5 -66 -40l-47 -161c-2 -6 -2 -11 -2 -15c0 -22 21 -25 46 -25c10 0 21 1 31 1zM561 391c0 -33 24 -38 58 -38h33c29 0 54 -3 54 -28c0 -5 -1 -11 -3 -17l-47 -161
c-12 -41 -43 -45 -77 -45h-32c-21 0 -43 -2 -59 -13c-46 -32 -38 -129 -105 -129h-115c-25 0 -31 13 -31 32c0 21 8 50 8 72c0 33 -24 38 -58 38h-33c-29 0 -53 3 -53 28c0 5 1 11 3 17l46 161c12 41 44 45 78 45h32c21 0 42 2 58 13c43 29 39 116 92 128
c-10 4 -13 12 -13 23c0 18 8 41 8 59c0 27 -20 31 -48 31c-7 0 -15 -1 -22 -1c-24 0 -44 2 -44 23c0 4 1 9 2 14l42 145c18 62 96 24 135 54s27 118 88 118h115c21 0 28 -11 28 -26c0 -22 -13 -52 -13 -74c0 -60 111 -7 111 -58c0 -4 -1 -9 -2 -14l-43 -145
c-10 -33 -35 -37 -63 -37c-7 0 -14 1 -21 1c-18 0 -36 -2 -49 -11c-33 -23 -31 -90 -71 -102c15 -4 20 -16 20 -31c0 -21 -9 -50 -9 -72zM317 631c0 -43 94 2 94 -49c0 -19 -11 -46 -11 -65c0 -13 5 -22 23 -22h115c53 0 42 76 76 102c33 26 99 -7 114 46l42 145
c1 4 2 9 2 12c0 43 -94 -2 -94 49c0 19 12 46 12 65c0 13 -6 22 -24 22h-115c-53 0 -41 -76 -75 -102c-33 -26 -100 7 -115 -46l-42 -145c-1 -4 -2 -9 -2 -12z" />
    <glyph glyph-name="quoteright" unicode="&#x2019;" horiz-adv-x="344" 
d="M476 920h30l-202 -299h-22z" />
    <glyph glyph-name="J" unicode="J" horiz-adv-x="594" 
d="M127 88c26 0 40 -7 40 -32c0 -14 -3 -30 -3 -44c0 -16 5 -28 25 -28h107c49 0 48 73 84 95c11 7 24 9 38 9s30 -2 44 -2c25 0 45 6 54 36l232 798h26l-232 -798c-10 -35 -35 -42 -64 -42c-15 0 -32 2 -47 2c-17 0 -32 -2 -45 -10c-42 -27 -39 -112 -97 -112h-107
c-23 0 -29 13 -29 31c0 17 5 38 5 55c0 29 -18 36 -48 36c-15 0 -32 -2 -47 -2c-24 0 -43 4 -43 26c0 4 0 10 2 16h26c-2 -5 -2 -10 -2 -14c0 -18 16 -22 36 -22c14 0 31 2 45 2z" />
    <glyph glyph-name="igrave" unicode="&#xec;" horiz-adv-x="257" 
d="M115 0l254 874h26l-253 -874h-27zM270 1333h29l74 -184h-21z" />
    <glyph glyph-name="ogonek" unicode="&#x2db;" horiz-adv-x="270" 
d="M-63 -449c0 46 -85 6 -85 45c0 3 0 7 1 11l33 113c20 68 111 86 164 138l139 161l5 -19l-140 -161c-47 -46 -129 -58 -147 -119l-33 -113c-1 -3 -1 -7 -1 -9c0 -33 72 1 72 -38c0 -15 -10 -36 -10 -51c0 -10 5 -17 19 -17h67c41 0 32 59 58 79s76 -4 88 36h21
c-14 -48 -75 -18 -105 -42s-20 -92 -68 -92h-67c-16 0 -21 8 -21 20c0 17 10 41 10 58z" />
    <glyph glyph-name="udieresis" unicode="&#xfc;" 
d="M147 150c0 -48 104 -3 104 -59c0 -24 -16 -59 -16 -82c0 -15 7 -25 28 -25h99c64 0 49 91 88 123c38 31 113 -3 130 56l207 711h26l-254 -874h-26l42 146c-27 -37 -93 -16 -127 -46c-42 -38 -20 -140 -93 -140h-99c-25 0 -32 12 -32 29c0 26 18 65 18 92
c0 66 -122 11 -122 67c0 4 0 9 2 15l207 711h26l-206 -711c-1 -5 -2 -9 -2 -13zM450 1287c13 0 -1 -19 4 -25s25 1 21 -12s-20 -5 -28 -11s-5 -25 -18 -25s1 19 -4 25s-26 -2 -22 11s20 6 28 12s6 25 19 25zM692 1287c13 0 -1 -19 4 -25s26 1 22 -12s-21 -5 -29 -11
s-5 -25 -18 -25s1 19 -4 25s-26 -2 -22 11s20 6 28 12s6 25 19 25z" />
    <glyph glyph-name="eacute" unicode="&#xe9;" horiz-adv-x="668" 
d="M160 272c0 -58 115 -29 115 -95c0 -45 -46 -116 -46 -158c0 -21 11 -35 44 -35h119c65 0 55 95 98 126c45 33 133 -14 154 57h26c-23 -81 -123 -27 -174 -64c-49 -36 -37 -143 -111 -143h-119c-36 0 -48 15 -48 38c0 45 47 121 47 169c0 75 -131 37 -131 103
c0 5 0 11 2 18l87 298c23 80 135 50 185 102c62 64 17 226 135 226h119c36 0 48 -15 48 -38c0 -45 -47 -121 -47 -169c0 -75 131 -37 131 -103c0 -5 0 -11 -2 -18c-16 -54 -31 -107 -47 -161h-542l-40 -137c-2 -6 -3 -11 -3 -16zM701 1333h28l-188 -184h-21zM768 602
c0 58 -115 29 -115 95c0 45 46 116 46 158c0 21 -11 35 -44 35h-119c-110 0 -65 -149 -122 -209c-44 -47 -144 -24 -165 -95l-40 -137h517l39 137c2 6 3 11 3 16z" />
    <glyph glyph-name="ccedilla" unicode="&#xe7;" horiz-adv-x="656" 
d="M160 272c0 -58 115 -29 115 -95c0 -45 -46 -116 -46 -158c0 -21 11 -35 44 -35h43l14 26h20l-13 -26h55c110 0 65 149 122 209c44 47 144 24 165 95h26c-23 -80 -135 -50 -185 -102c-62 -64 -17 -226 -135 -226h-61l-58 -106h63c16 0 21 -8 21 -20c0 -17 -10 -42 -10 -59
c0 -46 85 -6 85 -45c0 -3 -1 -6 -2 -10l-33 -113c-14 -48 -74 -18 -104 -42s-20 -92 -68 -92h-67c-16 0 -22 8 -22 20c0 17 11 41 11 58c0 46 -86 6 -86 45c0 3 1 7 2 11h21c-1 -3 -1 -7 -1 -9c0 -33 71 1 71 -38c0 -15 -9 -36 -9 -51c0 -10 4 -17 18 -17h68
c41 0 31 59 57 79s76 -4 88 36l33 113c1 3 2 6 2 8c0 33 -72 0 -72 39c0 15 9 36 9 51c0 10 -4 16 -18 16h-88l68 126h-37c-36 0 -48 15 -48 38c0 45 47 121 47 169c0 75 -131 37 -131 103c0 5 0 11 2 18l87 298c23 80 135 50 185 102c62 64 17 226 135 226h119
c36 0 48 -15 48 -38c0 -45 -47 -121 -47 -169c0 -75 131 -37 131 -103c0 -5 0 -11 -2 -18h-27c2 6 3 11 3 16c0 58 -115 29 -115 95c0 45 46 116 46 158c0 21 -11 35 -44 35h-119c-110 0 -65 -149 -122 -209c-44 -47 -144 -24 -165 -95l-86 -298c-2 -6 -3 -11 -3 -16z" />
    <glyph glyph-name="ecaron" unicode="&#x11b;" horiz-adv-x="668" 
d="M160 272c0 -58 115 -29 115 -95c0 -45 -46 -116 -46 -158c0 -21 11 -35 44 -35h119c65 0 55 95 98 126c45 33 133 -14 154 57h26c-23 -81 -123 -27 -174 -64c-49 -36 -37 -143 -111 -143h-119c-36 0 -48 15 -48 38c0 45 47 121 47 169c0 75 -131 37 -131 103
c0 5 0 11 2 18l87 298c23 80 135 50 185 102c62 64 17 226 135 226h119c36 0 48 -15 48 -38c0 -45 -47 -121 -47 -169c0 -75 131 -37 131 -103c0 -5 0 -11 -2 -18c-16 -54 -31 -107 -47 -161h-542l-40 -137c-2 -6 -3 -11 -3 -16zM755 1333h22l-211 -184h-30l-105 184h23
l102 -167zM768 602c0 58 -115 29 -115 95c0 45 46 116 46 158c0 21 -11 35 -44 35h-119c-110 0 -65 -149 -122 -209c-44 -47 -144 -24 -165 -95l-40 -137h517l39 137c2 6 3 11 3 16z" />
    <glyph glyph-name="idieresis" unicode="&#xef;" horiz-adv-x="257" 
d="M115 0l254 874h26l-253 -874h-27zM261 1287c13 0 -1 -19 4 -25s26 1 22 -12s-21 -5 -29 -11s-5 -25 -18 -25s1 19 -4 25s-26 -2 -22 11s20 6 28 12s6 25 19 25zM503 1287c13 0 -1 -19 4 -25s26 1 22 -12s-21 -5 -29 -11s-5 -25 -18 -25s1 19 -4 25s-26 -2 -22 11
s20 6 28 12s6 25 19 25z" />
    <glyph glyph-name="grave" unicode="`" horiz-adv-x="270" 
d="M323 920h29l74 -184h-21z" />
    <glyph glyph-name="asterisk" unicode="*" horiz-adv-x="628" 
d="M568 920h26l-66 -229l213 114l-10 -32l-207 -111l117 -202h-28l-110 191l-221 -191h-27l233 202l-143 111l10 32l147 -114z" />
    <glyph glyph-name="i" unicode="i" horiz-adv-x="257" 
d="M115 0l254 874h26l-253 -874h-27zM382 1287c13 0 -1 -19 4 -25s26 1 22 -12s-21 -5 -29 -11s-5 -25 -18 -25s1 19 -4 25s-26 -2 -22 11s20 6 28 12s6 25 19 25z" />
    <glyph glyph-name="equal" unicode="=" horiz-adv-x="662" 
d="M227 600l7 24h554l-7 -24h-554zM126 250l7 24h554l-7 -24h-554z" />
    <glyph glyph-name="cedilla" unicode="&#xb8;" horiz-adv-x="270" 
d="M201 -272c0 33 -72 0 -72 39c0 15 9 36 9 51c0 10 -4 16 -18 16h-88l95 176h21l-85 -156h63c16 0 21 -8 21 -20c0 -17 -10 -42 -10 -59c0 -46 85 -6 85 -45c0 -3 -1 -6 -2 -10l-32 -113c-14 -48 -75 -18 -105 -42s-20 -92 -68 -92h-67c-16 0 -21 8 -21 20
c0 17 10 41 10 58c0 46 -85 6 -85 45c0 3 0 7 1 11h21c-1 -3 -1 -7 -1 -9c0 -33 72 1 72 -38c0 -15 -10 -36 -10 -51c0 -10 5 -17 19 -17h67c41 0 32 59 58 79s76 -4 88 36l32 113c1 3 2 6 2 8z" />
    <glyph glyph-name="asciicircum" unicode="^" horiz-adv-x="729" 
d="M624 895l-438 -527h-27l459 552h27l138 -552h-27z" />
    <glyph glyph-name="rcaron" unicode="&#x159;" horiz-adv-x="452" 
d="M726 711c0 46 -98 9 -98 62c0 27 21 66 21 92c0 15 -7 25 -29 25h-95c-69 0 -48 -97 -88 -132c-36 -32 -111 -2 -127 -59l-203 -699h-26l254 874h26l-46 -158c26 36 91 19 123 50c43 41 16 148 94 148h95c25 0 33 -11 33 -28c0 -29 -23 -73 -23 -103
c0 -63 115 -16 115 -70c0 -4 0 -9 -2 -14h-26c1 5 2 8 2 12zM680 1333h22l-211 -184h-31l-104 184h23l102 -167z" />
    <glyph glyph-name="tilde" unicode="&#x2dc;" horiz-adv-x="284" 
d="M192 741h-21c13 45 70 18 98 40c29 23 18 88 64 88c57 0 37 -93 94 -93c38 0 30 55 54 74s70 -4 81 33h21c-13 -45 -70 -18 -98 -40c-29 -23 -18 -89 -64 -89c-57 0 -37 94 -94 94c-39 0 -30 -55 -54 -74s-70 4 -81 -33z" />
    <glyph glyph-name="underscore" unicode="_" horiz-adv-x="635" 
d="M-4 -154l7 24h553l-7 -24h-553z" />
    <glyph glyph-name="acircumflex" unicode="&#xe2;" horiz-adv-x="635" 
d="M615 707c0 -66 112 -40 112 -99c0 -5 0 -10 -2 -16l-172 -592h-26l41 141c-27 -38 -96 -14 -131 -44c-42 -36 -23 -137 -94 -137h-103c-24 0 -32 12 -32 29c0 25 16 61 16 87c0 69 -127 9 -127 67c0 4 0 9 2 15l50 172c21 71 110 26 155 61s30 137 101 137h103
c23 0 31 -11 31 -27c0 -26 -20 -66 -20 -93c0 -58 103 -16 109 -61l71 245c2 5 2 10 2 14c0 51 -96 33 -96 91c0 45 51 119 51 161c0 20 -11 32 -43 32h-103c-108 0 -60 -145 -113 -206c-36 -41 -115 -32 -141 -80l-20 11c34 44 116 34 155 77c59 65 9 222 126 222h103
c35 0 47 -14 47 -36c0 -45 -52 -123 -52 -171zM625 343c0 50 -110 0 -110 59c0 23 14 54 14 76c0 15 -7 26 -28 26h-103c-62 0 -49 -89 -88 -120s-117 8 -135 -54l-50 -172c-1 -5 -2 -9 -2 -13c0 -50 110 0 110 -59c0 -23 -14 -54 -14 -76c0 -15 7 -26 28 -26h103
c62 0 49 89 88 120s117 -8 135 54c17 57 33 115 50 172c1 5 2 9 2 13zM565 1316l-199 -167h-22l211 184h30l105 -184h-23z" />
    <glyph glyph-name="Aacute" unicode="&#xc1;" horiz-adv-x="749" 
d="M13 0l604 920h49l70 -920h-26l-20 254h-481l-167 -254h-29zM738 1173h28l-188 -184h-21zM689 278l-49 633l-415 -633h464z" />
    <glyph glyph-name="Idieresis" unicode="&#xcf;" horiz-adv-x="242" 
d="M107 0l267 920h26l-267 -920h-26zM254 1127c13 0 -1 -19 4 -25s26 2 22 -11s-21 -6 -29 -12s-5 -25 -18 -25s1 19 -4 25s-26 -1 -22 12s20 5 28 11s6 25 19 25zM496 1127c13 0 -1 -19 4 -25s26 2 22 -11s-21 -6 -29 -12s-5 -25 -18 -25s1 19 -4 25s-26 -1 -22 12
s20 5 28 11s6 25 19 25z" />
    <glyph glyph-name="six" unicode="6" horiz-adv-x="662" 
d="M698 868c0 -31 19 -38 51 -38c16 0 34 2 50 2c25 0 46 -5 46 -28c0 -5 -1 -10 -3 -16h-26c2 6 2 10 2 14c0 20 -17 24 -39 24c-15 0 -32 -2 -47 -2c-28 0 -43 7 -43 34c0 15 4 33 4 48c0 17 -6 30 -27 30h-115l7 24h115c24 0 31 -14 31 -33c0 -18 -6 -41 -6 -59zM132 148
c0 -56 125 5 125 -62c0 -22 -11 -52 -11 -74c0 -17 6 -28 29 -28h115c64 0 54 92 96 123c44 32 129 -13 149 56l51 175c2 6 2 11 2 15c0 56 -125 -5 -125 62c0 22 11 52 11 74c0 17 -6 28 -29 28h-115c-64 0 -54 -92 -96 -123c-44 -32 -129 13 -149 -56l-51 -175
c-2 -6 -2 -11 -2 -15zM572 425c0 -37 34 -40 68 -40h16c31 0 58 -2 58 -30c0 -5 0 -11 -2 -17l-51 -175c-23 -78 -119 -27 -169 -63c-48 -35 -37 -140 -109 -140h-115c-26 0 -33 13 -33 32c0 25 13 59 13 84c0 37 -34 40 -68 40h-16c-31 0 -58 2 -58 30c0 5 0 11 2 17
l182 625c11 38 37 44 68 44c16 0 33 -2 49 -2c18 0 35 2 49 11c44 28 41 119 102 119c-2 -8 -5 -16 -7 -24c-53 0 -51 -78 -89 -102c-12 -7 -26 -10 -41 -10s-31 2 -46 2c-26 0 -50 -5 -59 -38l-125 -431c30 43 105 12 145 44c45 36 28 140 101 140h115c26 0 33 -13 33 -32
c0 -25 -13 -59 -13 -84z" />
    <glyph glyph-name="dotlessj" unicode="&#x237;" horiz-adv-x="284" 
d="M-174 -400c8 -4 13 -10 13 -21c0 -27 -28 -70 -28 -95c0 -12 6 -20 26 -20h69c65 0 38 88 71 124c26 28 83 15 95 56l357 1230h26l-356 -1230c-15 -50 -85 -32 -116 -64c-39 -40 -10 -140 -84 -140h-68c-23 0 -31 10 -31 24c0 28 30 75 30 105c0 11 -5 17 -12 22z" />
    <glyph glyph-name="Thorn" unicode="&#xde;" horiz-adv-x="702" 
d="M646 649c0 -35 19 -44 55 -44c20 0 44 3 64 3c28 0 50 -6 50 -31c0 -5 -2 -12 -4 -19l-47 -164c-12 -42 -42 -50 -76 -50c-20 0 -42 2 -62 2c-19 0 -37 -2 -52 -11c-50 -31 -48 -132 -116 -132h-278l-59 -203h-26l267 920h26l-50 -172h278c28 0 34 -17 34 -39
c0 -19 -4 -41 -4 -60zM685 599c-32 0 -49 9 -49 40c0 16 4 34 4 50c0 20 -6 35 -31 35h-278l-144 -497h278c59 0 59 88 103 115c13 8 28 10 45 10c19 0 40 -3 59 -3c30 0 55 8 66 45l47 164c2 7 3 12 3 17c0 22 -19 27 -43 27c-19 0 -41 -3 -60 -3z" />
    <glyph glyph-name="dotlessi" unicode="&#x131;" horiz-adv-x="257" 
d="M115 0l254 874h26l-253 -874h-27z" />
    <glyph glyph-name="sacute" unicode="&#x15b;" horiz-adv-x="540" 
d="M197 68c0 63 -117 9 -117 62c0 4 1 8 3 13h26c-1 -5 -2 -8 -2 -11c0 -46 99 0 99 -54c0 -21 -13 -51 -13 -71c0 -14 6 -23 26 -23h93c56 0 45 81 81 109c35 28 106 -5 122 50l40 140c3 10 4 19 4 28c0 43 -30 74 -60 103l-252 23c-24 24 -35 57 -35 94c0 21 3 43 10 66
l43 145c18 62 96 25 136 55c39 30 28 117 89 117h90c21 0 28 -11 28 -26c0 -21 -13 -52 -13 -74c0 -61 113 -6 113 -58c0 -4 -1 -9 -2 -14h-26c1 4 2 9 2 12c0 44 -96 -2 -96 50c0 19 11 45 11 64c0 13 -6 22 -24 22h-90c-52 0 -42 -75 -76 -101s-101 6 -116 -47l-42 -145
c-5 -18 -8 -36 -8 -53c0 -33 9 -62 31 -83l252 -23c33 -32 62 -71 62 -119c0 -11 -1 -24 -5 -36l-40 -140c-19 -64 -101 -26 -142 -58c-42 -32 -29 -125 -94 -125h-93c-23 0 -29 11 -29 27c0 23 14 57 14 81zM634 1333h28l-188 -184h-21z" />
    <glyph glyph-name="bracketleft" unicode="[" horiz-adv-x="378" 
d="M-29 -520l431 1486h215l-7 -24h-189l-417 -1438h189l-7 -24h-215z" />
    <glyph glyph-name="Eng" unicode="&#x14a;" horiz-adv-x="844" 
d="M352 -400c9 -4 15 -9 15 -22c0 -26 -25 -68 -25 -93c0 -13 6 -21 26 -21h74c65 0 41 89 75 124c28 28 89 12 102 56l103 356h-23l-313 913l-265 -913h-26l267 920h49l313 -913l265 913h26l-370 -1276c-16 -54 -88 -31 -122 -64c-40 -39 -14 -140 -88 -140h-74
c-23 0 -30 10 -30 25c0 28 27 73 27 102c0 12 -5 19 -13 24z" />
    <glyph glyph-name="acute" unicode="&#xb4;" horiz-adv-x="270" 
d="M451 920h28l-188 -184h-21z" />
    <glyph glyph-name="M" unicode="M" horiz-adv-x="1046" 
d="M95 0l267 920h49l111 -911l647 911h49l-267 -920h-26l260 898l-637 -898h-49l-112 915l-266 -915h-26z" />
    <glyph glyph-name="guilsinglleft" unicode="&#x2039;" horiz-adv-x="371" 
d="M218 437l92 -437h-30l-92 437l346 437h30z" />
    <glyph glyph-name="ntilde" unicode="&#xf1;" 
d="M747 721c0 36 -72 15 -72 56c0 26 26 67 26 92c0 13 -7 21 -27 21h-99c-64 0 -57 -93 -101 -123c-15 -11 -35 -13 -55 -13c-10 0 -22 1 -32 1c-33 0 -62 -5 -73 -44l-207 -711h-26l254 874h26l-42 -143c32 48 112 10 156 43c47 35 34 140 107 140h99c23 0 30 -9 30 -24
c0 -28 -27 -74 -27 -103c0 -50 89 -20 89 -64c0 -3 0 -8 -1 -12l-207 -711h-26l206 711c1 4 2 7 2 10zM373 1153h-21c13 45 70 18 98 40c29 23 19 89 65 89c57 0 37 -93 94 -93c38 0 30 55 54 74s70 -4 81 33h21c-13 -45 -70 -18 -98 -40c-29 -23 -18 -89 -64 -89
c-57 0 -37 94 -94 94c-39 0 -30 -55 -54 -74s-71 3 -82 -34z" />
    <glyph glyph-name="cacute" unicode="&#x107;" horiz-adv-x="656" 
d="M160 272c0 -58 115 -29 115 -95c0 -45 -46 -116 -46 -158c0 -21 11 -35 44 -35h119c110 0 65 149 122 209c44 47 144 24 165 95h26c-23 -80 -135 -50 -185 -102c-62 -64 -17 -226 -135 -226h-119c-36 0 -48 15 -48 38c0 45 47 121 47 169c0 75 -131 37 -131 103
c0 5 0 11 2 18l87 298c23 80 135 50 185 102c62 64 17 226 135 226h119c36 0 48 -15 48 -38c0 -45 -47 -121 -47 -169c0 -75 131 -37 131 -103c0 -5 0 -11 -2 -18h-27c2 6 3 11 3 16c0 58 -115 29 -115 95c0 45 46 116 46 158c0 21 -11 35 -44 35h-119
c-110 0 -65 -149 -122 -209c-44 -47 -144 -24 -165 -95l-86 -298c-2 -6 -3 -11 -3 -16zM701 1333h28l-188 -184h-21z" />
    <glyph glyph-name="Scaron" unicode="&#x160;" horiz-adv-x="702" 
d="M249 64c0 34 -23 41 -58 41c-15 0 -30 -1 -44 -1c-29 0 -53 4 -53 30c0 5 1 11 3 18h26c-2 -6 -2 -12 -2 -16c0 -22 20 -26 45 -26c14 0 28 1 42 1c31 0 50 -6 50 -36c0 -19 -6 -42 -6 -60s6 -31 29 -31h123c59 0 57 87 99 115c15 10 33 11 52 11c11 0 23 -1 34 -1
c31 0 60 6 71 43l42 147c3 9 4 19 4 27c0 50 -43 82 -86 109l-332 29c-36 22 -53 62 -53 107c0 18 2 37 8 56l45 154c12 40 41 45 74 45c14 0 29 -1 43 -1c20 0 39 2 54 12c46 30 44 123 107 123h120c25 0 31 -14 31 -34c0 -19 -6 -43 -6 -62c0 -32 20 -39 53 -39
c16 0 35 1 51 1c27 0 47 -4 47 -28c0 -5 0 -10 -2 -17h-27c2 6 3 11 3 15c0 21 -18 25 -41 25c-15 0 -33 -2 -48 -2c-29 0 -45 7 -45 35c0 16 4 35 4 51c0 17 -5 31 -27 31h-120c-55 0 -54 -81 -94 -106c-13 -8 -29 -10 -46 -10c-14 0 -28 1 -41 1c-29 0 -54 -5 -64 -40
l-44 -154c-5 -17 -8 -32 -8 -48c0 -38 16 -72 46 -91l331 -29c48 -30 94 -70 94 -127c0 -10 -2 -21 -5 -33l-42 -147c-12 -43 -45 -48 -81 -48h-35c-22 0 -44 -2 -61 -13c-48 -32 -44 -131 -112 -131h-123c-26 0 -33 15 -33 35c0 21 8 47 8 69zM765 1173h22l-211 -184h-30
l-105 184h23l102 -167z" />
    <glyph glyph-name="aacute" unicode="&#xe1;" horiz-adv-x="635" 
d="M615 707c0 -66 112 -40 112 -99c0 -5 0 -10 -2 -16l-172 -592h-26l41 141c-27 -38 -96 -14 -131 -44c-42 -36 -23 -137 -94 -137h-103c-24 0 -32 12 -32 29c0 25 16 61 16 87c0 69 -127 9 -127 67c0 4 0 9 2 15l50 172c21 71 110 26 155 61s30 137 101 137h103
c23 0 31 -11 31 -27c0 -26 -20 -66 -20 -93c0 -58 103 -16 109 -61l71 245c2 5 2 10 2 14c0 51 -96 33 -96 91c0 45 51 119 51 161c0 20 -11 32 -43 32h-103c-108 0 -60 -145 -113 -206c-36 -41 -115 -32 -141 -80l-20 11c34 44 116 34 155 77c59 65 9 222 126 222h103
c35 0 47 -14 47 -36c0 -45 -52 -123 -52 -171zM667 1333h28l-188 -184h-21zM625 343c0 50 -110 0 -110 59c0 23 14 54 14 76c0 15 -7 26 -28 26h-103c-62 0 -49 -89 -88 -120s-117 8 -135 -54l-50 -172c-1 -5 -2 -9 -2 -13c0 -50 110 0 110 -59c0 -23 -14 -54 -14 -76
c0 -15 7 -26 28 -26h103c62 0 49 89 88 120s117 -8 135 54c17 57 33 115 50 172c1 5 2 9 2 13z" />
    <glyph glyph-name="ncaron" unicode="&#x148;" 
d="M747 721c0 36 -72 15 -72 56c0 26 26 67 26 92c0 13 -7 21 -27 21h-99c-64 0 -57 -93 -101 -123c-15 -11 -35 -13 -55 -13c-10 0 -22 1 -32 1c-33 0 -62 -5 -73 -44l-207 -711h-26l254 874h26l-42 -143c32 48 112 10 156 43c47 35 34 140 107 140h99c23 0 30 -9 30 -24
c0 -28 -27 -74 -27 -103c0 -50 89 -20 89 -64c0 -3 0 -8 -1 -12l-207 -711h-26l206 711c1 4 2 7 2 10zM741 1333h22l-211 -184h-30l-105 184h23l102 -167z" />
    <glyph glyph-name="Rcaron" unicode="&#x158;" horiz-adv-x="682" 
d="M693 803c0 -38 27 -44 65 -44c13 0 27 1 40 1c32 0 60 -4 60 -33c0 -5 -1 -12 -3 -19l-54 -185c-13 -46 -47 -52 -86 -52c-13 0 -28 1 -41 1c-24 0 -46 -3 -64 -15c-25 -17 -37 -52 -50 -83l117 -374h-28l-107 341c-12 -18 -27 -30 -52 -30h-278l-91 -311h-26l267 920
h304c28 0 36 -16 36 -37c0 -24 -9 -55 -9 -80zM729 1173h22l-211 -184h-30l-105 184h23l102 -167zM740 754c-34 0 -57 5 -57 39c0 22 8 49 8 70c0 19 -7 33 -32 33h-278l-162 -561h277c67 0 61 99 108 130c16 11 35 12 56 12h39c34 0 64 5 76 46l54 185c2 7 3 12 3 17
c0 25 -25 29 -53 29h-39z" />
    <glyph glyph-name="Gbreve" unicode="&#x11e;" horiz-adv-x="965" 
d="M171 280c0 -86 187 -4 187 -105c0 -43 -28 -104 -28 -146c0 -26 12 -45 50 -45h177c91 0 80 133 143 176c22 15 51 18 80 18c14 0 28 -1 42 -1c47 0 90 6 106 62l31 108h-386l7 24h412l-107 -371h-27l63 215c-43 -73 -159 -16 -222 -62c-66 -48 -49 -193 -149 -193h-177
c-41 0 -54 19 -54 48c0 44 30 110 30 156c0 12 -2 24 -8 33c-36 55 -196 1 -196 81c0 7 1 16 4 25l91 314c33 115 181 47 254 106c76 61 46 237 169 237h177c41 0 54 -19 54 -48c0 -44 -30 -110 -30 -156c0 -12 1 -24 7 -33c36 -55 197 -1 197 -81c0 -7 -1 -16 -4 -25h-27
c3 9 4 16 4 23c0 86 -187 4 -187 105c0 43 29 104 29 146c0 26 -12 45 -50 45h-177c-114 0 -86 -163 -156 -220c-67 -55 -203 7 -234 -99l-91 -314c-3 -9 -4 -16 -4 -23zM741 1046c24 0 32 35 61 35c17 0 37 -9 53 -9c12 0 21 5 26 22l14 47h21l-14 -47
c-6 -21 -18 -27 -33 -27c-18 0 -39 8 -58 8c-40 0 -45 -51 -77 -51h-75c-26 0 -14 38 -32 48c-4 2 -10 3 -16 3c-19 0 -44 -8 -62 -8c-12 0 -20 3 -20 15c0 3 1 8 2 12l14 47h21l-14 -47c-1 -4 -2 -7 -2 -10c0 -9 7 -12 16 -12c16 0 41 9 58 9c4 0 8 -1 11 -2
c15 -6 11 -33 30 -33h76z" />
    <glyph glyph-name="n" unicode="n" 
d="M747 721c0 36 -72 15 -72 56c0 26 26 67 26 92c0 13 -7 21 -27 21h-99c-64 0 -57 -93 -101 -123c-15 -11 -35 -13 -55 -13c-10 0 -22 1 -32 1c-33 0 -62 -5 -73 -44l-207 -711h-26l254 874h26l-42 -143c32 48 112 10 156 43c47 35 34 140 107 140h99c23 0 30 -9 30 -24
c0 -28 -27 -74 -27 -103c0 -50 89 -20 89 -64c0 -3 0 -8 -1 -12l-207 -711h-26l206 711c1 4 2 7 2 10z" />
    <glyph glyph-name="scedilla" unicode="&#x15f;" horiz-adv-x="540" 
d="M197 68c0 63 -117 9 -117 62c0 4 1 8 3 13h26c-1 -5 -2 -8 -2 -11c0 -46 99 0 99 -54c0 -21 -13 -51 -13 -71c0 -14 6 -23 26 -23h30l14 26h20l-14 -26h43c56 0 45 81 81 109c35 28 106 -5 122 50l40 140c3 10 4 19 4 28c0 43 -30 74 -60 103l-252 23
c-24 24 -35 57 -35 94c0 21 3 43 10 66l43 145c18 62 96 25 136 55c39 30 28 117 89 117h90c21 0 28 -11 28 -26c0 -21 -13 -52 -13 -74c0 -61 113 -6 113 -58c0 -4 -1 -9 -2 -14h-26c1 4 2 9 2 12c0 44 -96 -2 -96 50c0 19 11 45 11 64c0 13 -6 22 -24 22h-90
c-52 0 -42 -75 -76 -101s-101 6 -116 -47l-42 -145c-5 -18 -8 -36 -8 -53c0 -33 9 -62 31 -83l252 -23c33 -32 62 -71 62 -119c0 -11 -1 -24 -5 -36l-40 -140c-19 -64 -101 -26 -142 -58c-42 -32 -29 -125 -94 -125h-49l-57 -106h62c16 0 22 -8 22 -20
c0 -17 -11 -42 -11 -59c0 -46 86 -6 86 -45c0 -3 -1 -6 -2 -10l-33 -113c-14 -48 -74 -18 -104 -42s-20 -92 -68 -92h-67c-16 0 -22 8 -22 20c0 17 11 41 11 58c0 46 -86 6 -86 45c0 3 1 7 2 11h21c-1 -3 -2 -7 -2 -9c0 -33 72 1 72 -38c0 -15 -9 -36 -9 -51
c0 -10 4 -17 18 -17h67c41 0 32 59 58 79s76 -4 88 36l33 113c1 3 1 6 1 8c0 33 -71 0 -71 39c0 15 9 36 9 51c0 10 -4 16 -18 16h-88l68 126h-24c-23 0 -29 11 -29 27c0 23 14 57 14 81z" />
    <glyph glyph-name="Q" unicode="Q" horiz-adv-x="945" 
d="M1041 640c0 86 -187 4 -187 105c0 43 29 104 29 146c0 26 -12 45 -50 45h-177c-114 0 -86 -163 -156 -220c-67 -55 -203 7 -234 -99l-91 -314c-3 -9 -4 -16 -4 -23c0 -86 187 -4 187 -105c0 -43 -28 -104 -28 -146c0 -26 12 -45 50 -45h177c122 0 80 183 171 230l-16 29
h38l10 -18c70 16 161 -7 186 78l91 314c3 9 4 16 4 23zM733 206c-95 -52 -53 -246 -183 -246h-177c-41 0 -54 19 -54 48c0 44 30 110 30 156c0 12 -2 24 -8 33c-36 55 -196 1 -196 81c0 7 1 16 4 25l91 314c33 115 181 47 254 106c76 61 46 237 169 237h177
c41 0 54 -19 54 -48c0 -44 -30 -110 -30 -156c0 -12 1 -24 7 -33c36 -55 197 -1 197 -81c0 -7 -1 -16 -4 -25l-92 -314c-27 -95 -131 -66 -208 -85l126 -218h-37z" />
    <glyph glyph-name="percent" unicode="%" horiz-adv-x="1107" 
d="M120 -46l1096 1012h37l-1095 -1012h-38zM646 778c0 32 -69 4 -69 41c0 17 13 43 13 60c0 10 -4 17 -19 17h-67c-46 0 -32 -64 -59 -87c-25 -21 -77 0 -88 -40l-37 -124c-1 -3 -1 -7 -1 -9c0 -32 69 -4 69 -41c0 -17 -13 -43 -13 -60c0 -10 5 -17 20 -17h66
c46 0 33 64 60 87c25 21 77 0 88 40l36 124c1 3 1 7 1 9zM379 585c0 47 -86 9 -86 49c0 3 0 7 1 11l36 124c14 49 78 21 109 47c33 27 18 104 72 104h67c18 0 23 -9 23 -21c0 -20 -14 -50 -14 -70c0 -47 86 -9 86 -49c0 -3 -1 -7 -2 -11l-36 -124c-14 -49 -77 -21 -108 -47
c-33 -27 -19 -104 -73 -104h-66c-18 0 -24 9 -24 21c0 20 15 50 15 70zM1054 284c0 32 -69 4 -69 41c0 17 13 43 13 60c0 10 -5 17 -20 17h-66c-46 0 -33 -64 -60 -87c-25 -21 -77 0 -88 -40l-36 -124c-1 -3 -1 -7 -1 -9c0 -32 69 -4 69 -41c0 -17 -13 -43 -13 -60
c0 -10 4 -17 19 -17h67c46 0 33 64 60 87c25 21 77 0 88 40l36 124c1 3 1 7 1 9zM786 91c0 47 -86 9 -86 49c0 3 1 7 2 11l36 124c14 49 77 21 108 47c33 27 19 104 73 104h66c18 0 24 -9 24 -21c0 -20 -14 -50 -14 -70c0 -47 86 -9 86 -49c0 -3 -1 -7 -2 -11l-36 -124
c-14 -49 -77 -21 -108 -47c-33 -27 -19 -104 -73 -104h-66c-18 0 -24 9 -24 21c0 20 14 50 14 70z" />
    <glyph glyph-name="Igrave" unicode="&#xcc;" horiz-adv-x="242" 
d="M107 0l267 920h26l-267 -920h-26zM263 1173h28l75 -184h-21z" />
    <glyph glyph-name="W" unicode="W" horiz-adv-x="1053" 
d="M280 920h26l56 -910l277 431l-30 479h27l27 -442l284 442h29l-310 -484l26 -426l584 910h30l-591 -920h-49l-24 399l-256 -399h-49z" />
    <glyph glyph-name="quotedbl" unicode="&#x22;" horiz-adv-x="398" 
d="M308 920h26l-87 -299h-26zM623 920l-86 -299h-27l87 299h26z" />
    <glyph glyph-name="h" unicode="h" horiz-adv-x="614" 
d="M721 721c0 36 -72 15 -72 56c0 26 26 67 26 92c0 13 -7 21 -27 21h-92c-64 0 -52 -92 -93 -123c-42 -32 -124 10 -143 -56l-207 -711h-26l311 1070h26l-99 -341c29 41 101 14 139 45c44 37 26 140 99 140h92c23 0 30 -9 30 -24c0 -28 -27 -74 -27 -103
c0 -50 89 -20 89 -64c0 -3 -1 -8 -2 -12l-206 -711h-26l206 711c1 4 2 7 2 10z" />
    <glyph glyph-name="quotedblbase" unicode="&#x201e;" horiz-adv-x="621" 
d="M76 -184l194 299h26l-201 -299h-19zM500 115h30l-202 -299h-22z" />
    <glyph glyph-name="w" unicode="w" horiz-adv-x="871" 
d="M260 874h27l13 -865l241 404l-7 461h26l7 -418l249 418h28l-276 -464l6 -401l516 865h28l-521 -874h-49l-6 367l-219 -367h-49z" />
    <glyph glyph-name="Nacute" unicode="&#x143;" horiz-adv-x="844" 
d="M95 0l267 920h49l313 -913l265 913h26l-267 -920h-49l-313 913l-265 -913h-26zM785 1173h29l-189 -184h-21z" />
    <glyph glyph-name="lslash" unicode="&#x142;" horiz-adv-x="311" 
d="M315 596l138 474h26l-133 -457l180 98l-9 -31l-180 -99l-168 -581h-26l163 564l-179 -98l9 31z" />
    <glyph glyph-name="caron" unicode="&#x2c7;" horiz-adv-x="284" 
d="M559 920h22l-211 -184h-30l-105 184h23l102 -167z" />
    <glyph glyph-name="oslash" unicode="&#xf8;" horiz-adv-x="675" 
d="M667 665c-9 7 -14 17 -14 32c0 45 46 116 46 158c0 21 -11 35 -44 35h-119c-110 0 -65 -149 -122 -209c-44 -47 -144 -24 -165 -95l-86 -298c-2 -6 -3 -11 -3 -16c0 -35 45 -39 79 -51zM662 914c36 0 48 -15 48 -38c0 -45 -47 -121 -47 -169c0 -15 5 -26 13 -33l193 200
h33l-205 -212c39 -15 97 -16 97 -58c0 -5 0 -11 -2 -18l-87 -298c-23 -80 -135 -50 -185 -102c-62 -64 -17 -226 -135 -226h-119c-36 0 -48 15 -48 38c0 45 47 121 47 169c0 15 -5 26 -13 33l-193 -200h-33l205 212c-39 15 -97 16 -97 58c0 5 0 11 2 18l87 298
c23 80 135 50 185 102c62 64 17 226 135 226h119zM261 209c9 -7 14 -17 14 -32c0 -45 -46 -116 -46 -158c0 -21 11 -35 44 -35h119c110 0 65 149 122 209c44 47 144 24 165 95l86 298c2 6 3 11 3 16c0 35 -45 39 -79 51z" />
    <glyph glyph-name="o" unicode="o" horiz-adv-x="675" 
d="M768 602c0 58 -115 29 -115 95c0 45 46 116 46 158c0 21 -11 35 -44 35h-119c-110 0 -65 -149 -122 -209c-44 -47 -144 -24 -165 -95l-86 -298c-2 -6 -3 -11 -3 -16c0 -58 115 -29 115 -95c0 -45 -46 -116 -46 -158c0 -21 11 -35 44 -35h119c110 0 65 149 122 209
c44 47 144 24 165 95l86 298c2 6 3 11 3 16zM265 167c0 75 -131 37 -131 103c0 5 0 11 2 18l87 298c23 80 135 50 185 102c62 64 17 226 135 226h119c36 0 48 -15 48 -38c0 -45 -47 -121 -47 -169c0 -75 131 -37 131 -103c0 -5 0 -11 -2 -18l-87 -298
c-23 -80 -135 -50 -185 -102c-62 -64 -17 -226 -135 -226h-119c-36 0 -48 15 -48 38c0 45 47 121 47 169z" />
    <glyph glyph-name="less" unicode="&#x3c;" horiz-adv-x="662" 
d="M203 437l413 -407l-10 -36l-431 425l10 36l678 425l-11 -36z" />
    <glyph glyph-name="dollar" unicode="$" horiz-adv-x="702" 
d="M208 111c31 0 50 -6 50 -36c0 -19 -6 -42 -6 -60s6 -31 29 -31h49l4 16h26l-4 -16h48c59 0 57 87 99 115c15 10 33 11 52 11c11 0 23 -1 34 -1c31 0 60 6 71 43l42 147c3 9 4 19 4 27c0 50 -43 82 -86 109l-332 29c-36 22 -53 62 -53 107c0 18 2 37 8 56l45 154
c12 40 41 45 74 45c14 0 29 -1 43 -1c20 0 39 2 54 12c46 30 44 123 107 123h47l41 144h27l-42 -144h47c25 0 31 -14 31 -34c0 -19 -6 -43 -6 -62c0 -32 20 -39 53 -39c16 0 35 1 51 1c27 0 47 -4 47 -28c0 -5 0 -10 -2 -17h-27c2 6 3 11 3 15c0 21 -18 25 -41 25
c-15 0 -33 -2 -48 -2c-29 0 -45 7 -45 35c0 16 4 35 4 51c0 17 -5 31 -27 31h-47l-5 -16h-26l5 16h-47c-55 0 -54 -81 -94 -106c-13 -8 -29 -10 -46 -10c-14 0 -28 1 -41 1c-29 0 -54 -5 -64 -40l-44 -154c-5 -17 -8 -32 -8 -48c0 -38 16 -72 46 -91l331 -29
c48 -30 94 -70 94 -127c0 -10 -2 -21 -5 -33l-42 -147c-12 -43 -45 -48 -81 -48h-35c-22 0 -44 -2 -61 -13c-48 -32 -44 -131 -112 -131h-48l-42 -144h-26l42 144h-49c-26 0 -33 15 -33 35c0 21 8 47 8 69c0 34 -23 41 -58 41c-15 0 -30 -1 -44 -1c-29 0 -53 4 -53 30
c0 5 1 11 3 18h26c-2 -6 -2 -12 -2 -16c0 -22 20 -26 45 -26c14 0 28 1 42 1z" />
    <glyph glyph-name="Ccedilla" unicode="&#xc7;" horiz-adv-x="911" 
d="M171 280c0 -86 187 -4 187 -105c0 -43 -28 -104 -28 -146c0 -26 12 -45 50 -45h71l14 26h21l-14 -26h85c114 0 86 163 156 220c67 55 202 -7 233 99h26c-33 -115 -180 -47 -253 -106c-76 -61 -46 -237 -169 -237h-91l-57 -106h62c16 0 21 -8 21 -20
c0 -17 -10 -42 -10 -59c0 -46 85 -6 85 -45c0 -3 0 -6 -1 -10l-33 -113c-14 -48 -74 -18 -104 -42s-20 -92 -68 -92h-68c-16 0 -21 8 -21 20c0 17 10 41 10 58c0 46 -85 6 -85 45c0 3 1 7 2 11h21c-1 -3 -2 -7 -2 -9c0 -33 72 1 72 -38c0 -15 -9 -36 -9 -51
c0 -10 4 -17 18 -17h67c41 0 32 59 58 79s76 -4 88 36l33 113c1 3 1 6 1 8c0 33 -72 0 -72 39c0 15 10 36 10 51c0 10 -5 16 -19 16h-87l67 126h-65c-41 0 -54 19 -54 48c0 44 30 110 30 156c0 12 -2 24 -8 33c-36 55 -196 1 -196 81c0 7 1 16 4 25l91 314
c33 115 181 47 254 106c76 61 46 237 169 237h177c41 0 54 -19 54 -48c0 -44 -30 -110 -30 -156c0 -12 1 -24 7 -33c36 -55 197 -1 197 -81c0 -7 -1 -16 -4 -25h-27c3 9 4 16 4 23c0 86 -187 4 -187 105c0 43 29 104 29 146c0 26 -12 45 -50 45h-177
c-114 0 -86 -163 -156 -220c-67 -55 -203 7 -234 -99l-91 -314c-3 -9 -4 -16 -4 -23z" />
    <glyph glyph-name="zacute" unicode="&#x17a;" horiz-adv-x="500" 
d="M280 850l6 24h434l-14 -49l-645 -801h413l-7 -24h-434l14 49l646 801h-413zM614 1333h28l-188 -184h-21z" />
    <glyph glyph-name="thorn" unicode="&#xfe;" horiz-adv-x="689" 
d="M681 706c0 -73 127 -38 127 -102c0 -5 0 -12 -2 -18l-87 -298c-23 -78 -132 -51 -181 -102c-62 -64 -14 -226 -133 -226h-116c-35 0 -47 14 -47 36c0 46 54 126 54 175c0 65 -107 43 -111 97l-228 -788h-27l418 1440h26l-91 -314c32 49 117 38 156 82
c59 66 8 226 127 226h115c36 0 48 -15 48 -38c0 -46 -48 -122 -48 -170zM782 602c0 57 -111 30 -111 94c0 45 48 118 48 160c0 21 -12 34 -45 34h-115c-110 0 -65 -149 -121 -209c-43 -47 -141 -25 -161 -94c-29 -100 -57 -199 -86 -299c-2 -6 -3 -11 -3 -16
c0 -57 111 -30 111 -94c0 -45 -47 -118 -47 -160c0 -21 11 -34 44 -34h116c110 0 64 149 120 209c43 47 141 26 161 95l87 298c2 6 2 11 2 16z" />
    <glyph glyph-name="P" unicode="P" horiz-adv-x="689" 
d="M690 796c0 -40 32 -44 73 -44h23c36 0 67 -3 67 -34c0 -5 -1 -12 -3 -19l-56 -194c-14 -49 -53 -53 -95 -53h-23c-27 0 -54 -2 -74 -16c-53 -38 -42 -152 -121 -152h-277l-83 -284h-26l267 920h303c29 0 37 -16 37 -37c0 -26 -12 -60 -12 -87zM745 746
c-36 0 -64 3 -64 39c0 24 10 55 10 78c0 19 -7 33 -33 33h-277l-170 -588h277c70 0 60 103 108 136c18 12 41 14 65 14h23c37 0 71 3 84 47l56 194c2 7 3 12 3 17c0 27 -29 30 -60 30h-22z" />
    <glyph glyph-name="F" unicode="F" horiz-adv-x="608" 
d="M95 0l267 920h486l-7 -24h-460l-152 -525h447l-7 -24h-447l-101 -347h-26z" />
    <glyph glyph-name="Agrave" unicode="&#xc0;" horiz-adv-x="749" 
d="M13 0l604 920h49l70 -920h-26l-20 254h-481l-167 -254h-29zM516 1173h28l75 -184h-21zM689 278l-49 633l-415 -633h464z" />
    <glyph glyph-name="v" unicode="v" horiz-adv-x="567" 
d="M260 874h27l-2 -863l499 863h29l-505 -874h-49z" />
    <glyph glyph-name="R" unicode="R" horiz-adv-x="682" 
d="M693 803c0 -38 27 -44 65 -44c13 0 27 1 40 1c32 0 60 -4 60 -33c0 -5 -1 -12 -3 -19l-54 -185c-13 -46 -47 -52 -86 -52c-13 0 -28 1 -41 1c-24 0 -46 -3 -64 -15c-25 -17 -37 -52 -50 -83l117 -374h-28l-107 341c-12 -18 -27 -30 -52 -30h-278l-91 -311h-26l267 920
h304c28 0 36 -16 36 -37c0 -24 -9 -55 -9 -80zM740 754c-34 0 -57 5 -57 39c0 22 8 49 8 70c0 19 -7 33 -32 33h-278l-162 -561h277c67 0 61 99 108 130c16 11 35 12 56 12h39c34 0 64 5 76 46l54 185c2 7 3 12 3 17c0 25 -25 29 -53 29h-39z" />
    <glyph glyph-name="Ydieresis" unicode="&#x178;" horiz-adv-x="702" 
d="M274 920h26l138 -612l493 612h32l-518 -644l-81 -276h-26l80 276zM484 1127c13 0 -1 -19 4 -25s26 2 22 -11s-21 -6 -29 -12s-5 -25 -18 -25s1 19 -4 25s-26 -1 -22 12s20 5 28 11s6 25 19 25zM726 1127c13 0 -1 -19 4 -25s26 2 22 -11s-21 -6 -29 -12s-5 -25 -18 -25
s1 19 -4 25s-26 -1 -22 12s20 5 28 11s6 25 19 25z" />
    <glyph glyph-name="one" unicode="1" horiz-adv-x="459" 
d="M250 0l262 902l-242 -156l10 36l214 138h49l-267 -920h-26z" />
    <glyph glyph-name="G" unicode="G" horiz-adv-x="965" 
d="M171 280c0 -86 187 -4 187 -105c0 -43 -28 -104 -28 -146c0 -26 12 -45 50 -45h177c91 0 80 133 143 176c22 15 51 18 80 18c14 0 28 -1 42 -1c47 0 90 6 106 62l31 108h-386l7 24h412l-107 -371h-27l63 215c-43 -73 -159 -16 -222 -62c-66 -48 -49 -193 -149 -193h-177
c-41 0 -54 19 -54 48c0 44 30 110 30 156c0 12 -2 24 -8 33c-36 55 -196 1 -196 81c0 7 1 16 4 25l91 314c33 115 181 47 254 106c76 61 46 237 169 237h177c41 0 54 -19 54 -48c0 -44 -30 -110 -30 -156c0 -12 1 -24 7 -33c36 -55 197 -1 197 -81c0 -7 -1 -16 -4 -25h-27
c3 9 4 16 4 23c0 86 -187 4 -187 105c0 43 29 104 29 146c0 26 -12 45 -50 45h-177c-114 0 -86 -163 -156 -220c-67 -55 -203 7 -234 -99l-91 -314c-3 -9 -4 -16 -4 -23z" />
    <glyph glyph-name="eogonek" unicode="&#x119;" horiz-adv-x="668" 
d="M160 272c0 -58 115 -29 115 -95c0 -45 -46 -116 -46 -158c0 -21 11 -35 44 -35h57l31 35l4 -19l-14 -16h41c65 0 55 95 98 126c45 33 133 -14 154 57h26c-23 -81 -123 -27 -174 -64c-49 -36 -37 -143 -111 -143h-54l-105 -121c-47 -46 -129 -58 -147 -119l-33 -113
c-1 -3 -1 -7 -1 -9c0 -33 71 1 71 -38c0 -15 -9 -36 -9 -51c0 -10 4 -17 18 -17h68c41 0 31 59 57 79s76 -4 88 36h21c-14 -48 -74 -18 -104 -42s-20 -92 -68 -92h-67c-16 0 -22 8 -22 20c0 17 11 41 11 58c0 46 -86 6 -86 45c0 3 1 7 2 11l33 113c20 68 110 86 163 138
l88 102h-43c-36 0 -48 15 -48 38c0 45 47 121 47 169c0 75 -131 37 -131 103c0 5 0 11 2 18l87 298c23 80 135 50 185 102c62 64 17 226 135 226h119c36 0 48 -15 48 -38c0 -45 -47 -121 -47 -169c0 -75 131 -37 131 -103c0 -5 0 -11 -2 -18c-16 -54 -31 -107 -47 -161h-542
l-40 -137c-2 -6 -3 -11 -3 -16zM768 602c0 58 -115 29 -115 95c0 45 46 116 46 158c0 21 -11 35 -44 35h-119c-110 0 -65 -149 -122 -209c-44 -47 -144 -24 -165 -95l-40 -137h517l39 137c2 6 3 11 3 16z" />
    <glyph glyph-name="lacute" unicode="&#x13a;" horiz-adv-x="188" 
d="M81 0l311 1070h26l-311 -1070h-26zM466 1338h28l-188 -184h-21z" />
    <glyph glyph-name="seven" unicode="7" 
d="M313 896l7 24h520l-14 -49l-653 -871h-32l672 896h-500z" />
    <glyph glyph-name="Ecircumflex" unicode="&#xca;" horiz-adv-x="628" 
d="M95 0l267 920h486l-7 -24h-460l-152 -525h447l-7 -24h-447l-94 -323h460l-7 -24h-486zM600 1156l-199 -167h-22l211 184h30l105 -184h-23z" />
    <glyph glyph-name="m" unicode="m" horiz-adv-x="979" 
d="M686 720c0 31 -59 19 -59 54c0 27 30 71 30 96c0 12 -7 20 -26 20h-85c-64 0 -51 -92 -92 -123c-41 -32 -121 8 -140 -56l-207 -711h-26l254 874h26l-42 -145c28 40 99 14 136 45c44 37 25 140 98 140h85c22 0 30 -9 30 -23c0 -28 -31 -76 -31 -106c0 -44 74 -25 76 -62
c26 49 101 19 140 51c44 37 24 140 97 140h86c22 0 29 -9 29 -23c0 -28 -31 -76 -31 -106c0 -44 77 -24 77 -63c0 -3 -1 -7 -2 -11l-206 -711h-26l206 711c1 3 1 6 1 9c0 31 -59 19 -59 54c0 27 30 71 30 96c0 12 -7 20 -26 20h-86c-64 0 -50 -92 -91 -123
c-41 -32 -122 8 -141 -56l-206 -711h-26l206 711c1 3 1 6 1 9z" />
    <glyph glyph-name="ring" unicode="&#x2da;" horiz-adv-x="284" 
d="M450 869c-11 0 -19 1 -19 11c0 7 3 16 3 23c0 5 -2 9 -9 9h-38c-20 0 -17 -29 -31 -39c-5 -4 -12 -4 -19 -4h-5c-11 0 -20 0 -24 -13l-16 -56c-1 -2 -1 -4 -1 -5c0 -8 8 -8 17 -8h5c10 0 19 -1 19 -11c0 -7 -3 -16 -3 -23c0 -5 2 -9 9 -9h38c20 0 17 29 31 39
c5 4 12 4 19 4h5c11 0 21 0 25 13l16 56c1 2 1 4 1 5c0 8 -9 8 -18 8h-5zM326 769c0 13 -11 14 -25 14h-5c-12 0 -23 1 -23 11c0 2 0 4 1 6l16 56c5 16 18 17 32 17h5c9 0 18 0 25 5c17 12 14 50 40 50h38c9 0 12 -5 12 -12c0 -9 -4 -20 -4 -29c0 -13 10 -14 24 -14h5
c12 0 23 -1 23 -11c0 -2 0 -4 -1 -6l-16 -56c-5 -16 -18 -17 -32 -17h-5c-9 0 -18 0 -25 -5c-17 -12 -13 -50 -39 -50h-38c-9 0 -12 5 -12 12c0 9 4 20 4 29z" />
    <glyph glyph-name="Ntilde" unicode="&#xd1;" horiz-adv-x="844" 
d="M95 0l267 920h49l313 -913l265 913h26l-267 -920h-49l-313 913l-265 -913h-26zM472 994h-21c13 45 70 18 98 40c29 23 18 88 64 88c57 0 37 -93 94 -93c38 0 30 55 54 74s70 -4 81 33h21c-13 -45 -69 -18 -97 -40c-29 -23 -19 -89 -65 -89c-57 0 -37 94 -94 94
c-39 0 -30 -55 -54 -74s-70 4 -81 -33z" />
    <glyph glyph-name="bracketright" unicode="]" horiz-adv-x="378" 
d="M321 966h215l-431 -1486h-215l7 24h189l417 1438h-189z" />
    <glyph glyph-name="asciitilde" unicode="~" horiz-adv-x="662" 
d="M168 306h-26c16 56 94 37 129 74c45 48 9 166 96 166c117 0 70 -194 187 -194c78 0 44 105 83 149c29 33 95 20 109 67h26c-16 -56 -94 -37 -129 -74c-45 -48 -9 -166 -96 -166c-117 0 -70 194 -187 194c-78 0 -44 -105 -83 -149c-29 -33 -95 -20 -109 -67z" />
    <glyph glyph-name="Idotaccent" unicode="&#x130;" horiz-adv-x="242" 
d="M107 0l267 920h26l-267 -920h-26zM375 1127c13 0 -1 -19 4 -25s26 2 22 -11s-21 -6 -29 -12s-5 -25 -18 -25s1 19 -4 25s-26 -1 -22 12s20 5 28 11s6 25 19 25z" />
    <glyph glyph-name="H" unicode="H" horiz-adv-x="810" 
d="M95 0l267 920h26l-159 -549h566l160 549h26l-267 -920h-26l100 347h-566l-101 -347h-26z" />
    <glyph glyph-name="Ugrave" unicode="&#xd9;" horiz-adv-x="802" 
d="M256 112c31 0 50 -8 50 -39c0 -18 -5 -39 -5 -56c0 -19 6 -33 30 -33h130c60 0 58 89 102 117c14 9 30 11 47 11s34 -2 51 -2c30 0 56 6 67 43l223 767h26l-223 -767c-12 -42 -43 -49 -77 -49c-18 0 -36 2 -54 2c-20 0 -39 -3 -55 -13c-49 -32 -45 -133 -114 -133h-130
c-27 0 -34 16 -34 37c0 20 6 45 6 66c0 35 -21 43 -57 43c-18 0 -37 -2 -55 -2c-29 0 -51 5 -51 31c0 5 1 11 3 18l222 767h26l-222 -767c-2 -6 -3 -11 -3 -16c0 -23 20 -27 45 -27c17 0 35 2 52 2zM542 1173h29l74 -184h-21z" />
    <glyph glyph-name="Z" unicode="Z" horiz-adv-x="689" 
d="M293 896l7 24h622l-14 -49l-850 -847h605l-7 -24h-623l14 49l850 847h-604z" />
    <glyph glyph-name="Yacute" unicode="&#xdd;" horiz-adv-x="702" 
d="M274 920h26l138 -612l493 612h32l-518 -644l-81 -276h-26l80 276zM715 1173h28l-188 -184h-21z" />
    <glyph glyph-name="uhungarumlaut" unicode="&#x171;" 
d="M147 150c0 -48 104 -3 104 -59c0 -24 -16 -59 -16 -82c0 -15 7 -25 28 -25h99c64 0 49 91 88 123c38 31 113 -3 130 56l207 711h26l-254 -874h-26l42 146c-27 -37 -93 -16 -127 -46c-42 -38 -20 -140 -93 -140h-99c-25 0 -32 12 -32 29c0 26 18 65 18 92
c0 66 -122 11 -122 67c0 4 0 9 2 15l207 711h26l-206 -711c-1 -5 -2 -9 -2 -13zM399 1149l171 184h28l-178 -184h-21zM772 1333h28l-178 -184h-21z" />
    <glyph glyph-name="uni1E9E" unicode="&#x1e9e;" horiz-adv-x="1310" 
d="M237 68c0 35 -28 38 -63 38h-21c-31 0 -59 2 -59 29c0 5 1 11 3 17h26c-2 -6 -2 -11 -2 -15c0 -23 23 -26 50 -26c7 0 14 1 21 1c31 0 54 -4 54 -34c0 -20 -9 -46 -9 -66c0 -16 7 -28 29 -28h114c59 0 52 87 93 115c17 12 40 12 63 12h5c34 0 66 1 78 41l43 147
c3 10 4 18 4 27c0 48 -40 81 -78 109l-306 29c-32 23 -47 61 -47 104c0 19 2 39 8 59l45 154c12 41 44 44 79 44c7 0 14 -1 21 -1c22 0 43 2 60 13c44 30 39 123 102 123h111c24 0 30 -13 30 -31c0 -20 -8 -47 -8 -68c0 -32 22 -37 55 -37h33c28 0 51 -3 51 -27
c0 -5 -1 -10 -3 -16h-26c2 5 2 10 2 14c0 21 -19 24 -43 24c-10 0 -21 -1 -31 -1c-28 0 -48 4 -48 32c0 18 7 41 7 59c0 16 -5 27 -26 27h-110c-55 0 -52 -80 -90 -106c-14 -10 -32 -11 -51 -11h-22c-30 0 -57 -3 -67 -38l-44 -154c-5 -17 -8 -34 -8 -50
c0 -37 13 -69 41 -89l306 -29c43 -32 84 -72 84 -126c0 -11 -2 -22 -5 -34l-43 -147c-22 -77 -116 -26 -166 -61c-46 -33 -38 -131 -106 -131h-114c-25 0 -32 13 -32 32c0 23 10 53 10 76zM883 68c0 35 -27 38 -62 38h-22c-31 0 -58 2 -58 29c0 5 1 11 3 17h26
c-2 -6 -2 -11 -2 -15c0 -23 23 -26 50 -26c7 0 14 1 21 1c31 0 54 -4 54 -34c0 -20 -9 -46 -9 -66c0 -16 6 -28 28 -28h114c59 0 53 87 94 115c17 12 40 12 63 12h5c34 0 66 1 78 41l43 147c3 9 3 16 3 24c0 46 -42 76 -80 104l-304 37c-32 23 -47 61 -47 104
c0 19 3 39 9 59l45 154c12 41 43 44 78 44c7 0 14 -1 21 -1c22 0 44 2 61 13c44 30 39 123 102 123h110c24 0 31 -13 31 -31c0 -20 -8 -47 -8 -68c0 -32 22 -37 55 -37h33c28 0 51 -3 51 -27c0 -5 -1 -10 -3 -16h-26c2 5 2 10 2 14c0 21 -19 24 -43 24c-10 0 -21 -1 -31 -1
c-28 0 -48 4 -48 32c0 18 7 41 7 59c0 16 -5 27 -26 27h-111c-55 0 -51 -80 -89 -106c-14 -10 -32 -11 -51 -11h-22c-30 0 -57 -3 -67 -38l-45 -154c-5 -17 -7 -34 -7 -50c0 -37 13 -69 41 -89l304 -37c43 -31 85 -68 85 -121c0 -10 -1 -20 -4 -31l-43 -147
c-22 -77 -116 -26 -166 -61c-46 -33 -39 -131 -107 -131h-114c-25 0 -32 13 -32 32c0 23 10 53 10 76z" />
    <glyph glyph-name="B" unicode="B" horiz-adv-x="709" 
d="M715 808c0 -35 32 -37 64 -37h15c29 0 55 -2 55 -29c0 -5 -1 -10 -3 -16l-48 -167c-11 -38 -40 -43 -71 -43c-12 0 -23 1 -35 1c-19 0 -37 -2 -52 -12c-40 -27 -38 -107 -87 -118c32 -11 4 -75 29 -94c7 -6 18 -7 31 -7c23 0 53 6 75 6c21 0 35 -5 35 -25
c0 -5 -1 -9 -3 -16l-32 -113c-10 -34 -31 -41 -57 -41c-22 0 -48 6 -71 6c-13 0 -25 -2 -36 -8c-40 -21 -45 -95 -95 -95h-334l267 920h334c25 0 31 -12 31 -30c0 -24 -12 -58 -12 -82zM822 740c0 24 -24 25 -51 25h-7c-29 0 -59 1 -59 33c0 21 12 50 12 71
c0 16 -6 27 -28 27h-308l-147 -507h308c61 0 50 88 90 117c41 30 121 -12 140 53l48 167c2 5 2 10 2 14zM227 365l-99 -341h308c41 0 48 62 82 79c9 4 19 6 29 6c22 0 45 -7 66 -7c22 0 41 7 49 36l32 113c2 6 3 10 3 14c0 17 -13 22 -30 22c-21 0 -48 -7 -70 -7
c-10 0 -19 2 -25 6c-24 17 4 79 -37 79h-308z" />
    <glyph glyph-name="dash" horiz-adv-x="425" 
d="M176 425l7 24h320l-7 -24h-320z" />
    <glyph glyph-name="D" unicode="D" horiz-adv-x="851" 
d="M95 0l267 920h344c41 0 52 -21 52 -51c0 -38 -19 -90 -19 -129c0 -15 3 -28 11 -38c42 -52 214 13 214 -72c0 -8 -2 -16 -5 -26l-83 -288c-36 -124 -187 -41 -266 -98c-75 -54 -58 -218 -171 -218h-344zM128 24h318c104 0 89 152 158 202c73 53 213 -24 246 90l83 288
c3 9 4 17 4 24c0 78 -158 18 -197 66c-7 9 -10 21 -10 35c0 36 17 85 17 120c0 27 -10 47 -48 47h-318z" />
    <glyph glyph-name="Otilde" unicode="&#xd5;" horiz-adv-x="945" 
d="M523 994h-21c13 45 70 18 98 40c29 23 18 88 64 88c57 0 37 -93 94 -93c38 0 30 55 54 74s71 -4 82 33h21c-13 -45 -70 -18 -98 -40c-29 -23 -19 -89 -65 -89c-57 0 -37 94 -94 94c-39 0 -30 -55 -54 -74s-70 4 -81 -33zM1041 640c0 86 -187 4 -187 105
c0 43 29 104 29 146c0 26 -12 45 -50 45h-177c-114 0 -86 -163 -156 -220c-67 -55 -203 7 -234 -99l-91 -314c-3 -9 -4 -16 -4 -23c0 -86 187 -4 187 -105c0 -43 -28 -104 -28 -146c0 -26 12 -45 50 -45h177c114 0 86 163 156 220c67 55 202 -7 233 99l91 314c3 9 4 16 4 23
zM840 960c41 0 54 -19 54 -48c0 -44 -30 -110 -30 -156c0 -12 1 -24 7 -33c36 -55 197 -1 197 -81c0 -7 -1 -16 -4 -25l-92 -314c-33 -115 -180 -47 -253 -106c-76 -61 -46 -237 -169 -237h-177c-41 0 -54 19 -54 48c0 44 30 110 30 156c0 12 -2 24 -8 33
c-36 55 -196 1 -196 81c0 7 1 16 4 25l91 314c33 115 181 47 254 106c76 61 46 237 169 237h177z" />
    <glyph glyph-name="odieresis" unicode="&#xf6;" horiz-adv-x="675" 
d="M470 1287c13 0 -1 -19 4 -25s26 1 22 -12s-21 -5 -29 -11s-5 -25 -18 -25s1 19 -4 25s-26 -2 -22 11s20 6 28 12s6 25 19 25zM712 1287c13 0 -1 -19 4 -25s26 1 22 -12s-21 -5 -29 -11s-5 -25 -18 -25s1 19 -4 25s-26 -2 -22 11s20 6 28 12s6 25 19 25zM768 602
c0 58 -115 29 -115 95c0 45 46 116 46 158c0 21 -11 35 -44 35h-119c-110 0 -65 -149 -122 -209c-44 -47 -144 -24 -165 -95l-86 -298c-2 -6 -3 -11 -3 -16c0 -58 115 -29 115 -95c0 -45 -46 -116 -46 -158c0 -21 11 -35 44 -35h119c110 0 65 149 122 209
c44 47 144 24 165 95l86 298c2 6 3 11 3 16zM265 167c0 75 -131 37 -131 103c0 5 0 11 2 18l87 298c23 80 135 50 185 102c62 64 17 226 135 226h119c36 0 48 -15 48 -38c0 -45 -47 -121 -47 -169c0 -75 131 -37 131 -103c0 -5 0 -11 -2 -18l-87 -298
c-23 -80 -135 -50 -185 -102c-62 -64 -17 -226 -135 -226h-119c-36 0 -48 15 -48 38c0 45 47 121 47 169z" />
    <glyph glyph-name="parenright" unicode=")" horiz-adv-x="371" 
d="M290 672c0 -99 165 -71 165 -160c0 -7 -1 -16 -4 -25l-154 -534c-32 -110 -191 -85 -256 -166c-81 -100 -19 -313 -122 -379l-9 17c114 54 46 269 125 369c60 76 207 58 236 159l154 534c2 9 4 16 4 23c0 82 -148 61 -148 152c0 86 111 231 111 310c0 18 -5 33 -20 43
l18 17c10 -10 13 -23 13 -39c0 -82 -113 -232 -113 -321z" />
    <glyph glyph-name="greater" unicode="&#x3e;" horiz-adv-x="662" 
d="M711 437l-413 407l10 36l431 -425l-10 -36l-677 -425l10 36z" />
    <glyph glyph-name="breve" unicode="&#x2d8;" horiz-adv-x="284" 
d="M327 771c-31 0 -7 51 -47 51c-19 0 -44 -8 -62 -8c-12 0 -20 3 -20 15c0 3 1 8 2 12l14 47h20l-13 -47c-1 -4 -2 -7 -2 -10c0 -9 6 -12 15 -12c16 0 42 9 59 9c4 0 8 -1 11 -2c15 -6 11 -33 30 -33h75c24 0 32 35 61 35c17 0 38 -9 54 -9c12 0 21 5 26 22l14 47h21
l-14 -47c-6 -21 -18 -27 -33 -27c-18 0 -39 8 -58 8c-40 0 -45 -51 -77 -51h-76z" />
    <glyph glyph-name="otilde" unicode="&#xf5;" horiz-adv-x="675" 
d="M387 1153h-20c13 45 69 18 97 40c29 23 19 89 65 89c57 0 37 -93 94 -93c38 0 30 55 54 74s70 -4 81 33h21c-13 -45 -70 -18 -98 -40c-29 -23 -18 -89 -64 -89c-57 0 -37 94 -94 94c-39 0 -30 -55 -54 -74s-71 3 -82 -34zM768 602c0 58 -115 29 -115 95
c0 45 46 116 46 158c0 21 -11 35 -44 35h-119c-110 0 -65 -149 -122 -209c-44 -47 -144 -24 -165 -95l-86 -298c-2 -6 -3 -11 -3 -16c0 -58 115 -29 115 -95c0 -45 -46 -116 -46 -158c0 -21 11 -35 44 -35h119c110 0 65 149 122 209c44 47 144 24 165 95l86 298
c2 6 3 11 3 16zM265 167c0 75 -131 37 -131 103c0 5 0 11 2 18l87 298c23 80 135 50 185 102c62 64 17 226 135 226h119c36 0 48 -15 48 -38c0 -45 -47 -121 -47 -169c0 -75 131 -37 131 -103c0 -5 0 -11 -2 -18l-87 -298c-23 -80 -135 -50 -185 -102
c-62 -64 -17 -226 -135 -226h-119c-36 0 -48 15 -48 38c0 45 47 121 47 169z" />
    <glyph glyph-name="Aogonek" unicode="&#x104;" horiz-adv-x="749" 
d="M472 -449c0 46 -85 6 -85 45c0 3 1 7 2 11l32 113c20 68 111 86 164 138l125 144l-20 252h-481l-167 -254h-29l604 920h49l70 -920h-7l-140 -161c-47 -46 -129 -58 -147 -119l-32 -113c-1 -3 -2 -7 -2 -9c0 -33 72 1 72 -38c0 -15 -9 -36 -9 -51c0 -10 4 -17 18 -17h67
c41 0 32 59 58 79s76 -4 88 36h21c-14 -48 -74 -18 -104 -42s-20 -92 -68 -92h-68c-16 0 -21 8 -21 20c0 17 10 41 10 58zM689 278l-49 633l-415 -633h464z" />
    <glyph glyph-name="Zdotaccent" unicode="&#x17b;" horiz-adv-x="689" 
d="M293 896l7 24h622l-14 -49l-850 -847h605l-7 -24h-623l14 49l850 847h-604zM598 1127c13 0 -1 -19 4 -25s26 2 22 -11s-21 -6 -29 -12s-5 -25 -18 -25s1 19 -4 25s-26 -1 -22 12s20 5 28 11s6 25 19 25z" />
    <glyph glyph-name="Lcaron" unicode="&#x13d;" horiz-adv-x="621" 
d="M95 0l267 920h26l-260 -896h458l-7 -24h-484zM706 920h30l-203 -299h-22z" />
    <glyph glyph-name="three" unicode="3" 
d="M551 330c-28 0 -49 3 -49 31c0 18 8 42 8 60c0 15 -5 27 -26 27h-111l7 24h111c55 0 48 81 86 107c14 9 32 11 50 11h23c29 0 55 3 65 37l45 154c2 5 2 9 2 13c0 21 -22 24 -46 24h-23c-28 0 -49 3 -49 31c0 18 7 42 7 60c0 15 -5 27 -26 27h-107c-55 0 -49 -81 -87 -107
c-14 -9 -31 -11 -49 -11h-24c-29 0 -54 -3 -64 -37h-27c11 39 43 43 76 43h25c21 0 41 1 57 12c44 30 36 124 100 124h107c24 0 30 -12 30 -30c0 -21 -9 -49 -9 -70c0 -32 24 -36 57 -36h25c28 0 53 -3 53 -28c0 -4 0 -9 -2 -15l-45 -154c-10 -35 -35 -41 -63 -41
c-16 0 -33 2 -49 2s-31 -2 -44 -10c-38 -24 -39 -95 -82 -107c14 -4 18 -15 18 -29c0 -21 -9 -49 -9 -70c0 -32 24 -36 57 -36h25c28 0 53 -3 53 -28c0 -4 -1 -9 -3 -15l-44 -154c-11 -39 -43 -43 -76 -43h-24c-21 0 -42 -1 -58 -12c-44 -30 -36 -124 -100 -124h-107
c-24 0 -30 12 -30 30c0 21 9 49 9 70c0 32 -24 36 -57 36h-25c-28 0 -53 3 -53 28c0 4 0 9 2 15h27c-2 -5 -3 -9 -3 -13c0 -21 22 -24 46 -24h23c28 0 49 -3 49 -31c0 -18 -7 -42 -7 -60c0 -15 5 -27 26 -27h107c55 0 49 81 87 107c14 9 31 11 49 11h24c29 0 55 3 65 37
l44 154c2 5 2 9 2 13c0 21 -21 24 -45 24h-24z" />
    <glyph glyph-name="ydieresis" unicode="&#xff;" horiz-adv-x="567" 
d="M260 874h27l10 -822l487 822h29l-826 -1394h-29l313 529zM415 1287c13 0 -1 -19 4 -25s26 1 22 -12s-20 -5 -28 -11s-6 -25 -19 -25s1 19 -4 25s-25 -2 -21 11s20 6 28 12s5 25 18 25zM658 1287c13 0 -1 -19 4 -25s25 1 21 -12s-20 -5 -28 -11s-5 -25 -18 -25s1 19 -4 25
s-26 -2 -22 11s20 6 28 12s6 25 19 25z" />
    <glyph glyph-name="uring" unicode="&#x16f;" 
d="M147 150c0 -48 104 -3 104 -59c0 -24 -16 -59 -16 -82c0 -15 7 -25 28 -25h99c64 0 49 91 88 123c38 31 113 -3 130 56l207 711h26l-254 -874h-26l42 146c-27 -37 -93 -16 -127 -46c-42 -38 -20 -140 -93 -140h-99c-25 0 -32 12 -32 29c0 26 18 65 18 92
c0 66 -122 11 -122 67c0 4 0 9 2 15l207 711h26l-206 -711c-1 -5 -2 -9 -2 -13zM626 1282c-10 0 -19 1 -19 11c0 7 3 16 3 23c0 5 -2 9 -9 9h-38c-20 0 -17 -29 -31 -39c-5 -4 -12 -4 -19 -4h-5c-11 0 -21 0 -25 -13l-16 -56c-1 -2 -1 -4 -1 -5c0 -8 9 -8 18 -8h5
c11 0 19 -1 19 -11c0 -7 -3 -16 -3 -23c0 -5 2 -9 9 -9h38c20 0 17 29 31 39c5 4 12 4 19 4h5c11 0 20 0 24 13l17 56c1 2 0 3 0 4c0 8 -8 9 -17 9h-5zM502 1182c0 13 -11 14 -25 14h-5c-12 0 -23 1 -23 11c0 2 0 4 1 6l16 56c5 16 18 17 32 17h5c9 0 18 0 25 5
c17 12 13 50 39 50h38c9 0 12 -5 12 -12c0 -9 -4 -20 -4 -29c0 -13 11 -14 25 -14h5c12 0 23 -1 23 -11c0 -2 0 -4 -1 -6l-16 -56c-5 -16 -18 -17 -32 -17h-5c-9 0 -18 0 -25 -5c-17 -12 -14 -50 -40 -50h-38c-9 0 -11 5 -11 12c0 9 4 20 4 29z" />
    <glyph glyph-name="period" unicode="." horiz-adv-x="242" 
d="M141 71c13 0 0 -18 4 -24s25 2 21 -11s-19 -5 -27 -11s-6 -25 -19 -25s0 19 -4 25s-25 -2 -21 11s20 5 28 11s5 24 18 24z" />
    <glyph glyph-name="Oslash" unicode="&#xd8;" horiz-adv-x="945" 
d="M879 701c-16 8 -25 21 -25 44c0 43 29 104 29 146c0 26 -12 45 -50 45h-177c-114 0 -86 -163 -156 -220c-67 -55 -203 7 -234 -99l-91 -314c-3 -9 -4 -16 -4 -23c0 -55 82 -42 137 -53zM840 960c41 0 54 -19 54 -48c0 -44 -30 -110 -30 -156c0 -23 8 -38 24 -47l255 211
h35l-265 -220c60 -13 155 4 155 -58c0 -7 -1 -16 -4 -25l-92 -314c-33 -115 -180 -47 -253 -106c-76 -61 -46 -237 -169 -237h-177c-41 0 -54 19 -54 48c0 44 30 110 30 156c0 23 -9 38 -25 47l-255 -211h-35l266 220c-60 13 -155 -4 -155 58c0 7 1 16 4 25l91 314
c33 115 181 47 254 106c76 61 46 237 169 237h177zM334 219c16 -8 24 -21 24 -44c0 -43 -28 -104 -28 -146c0 -26 12 -45 50 -45h177c114 0 86 163 156 220c67 55 202 -7 233 99l91 314c3 9 4 16 4 23c0 55 -81 42 -136 53z" />
    <glyph glyph-name="macron" unicode="&#xaf;" horiz-adv-x="284" 
d="M190 794l6 22h364l-6 -22h-364z" />
    <glyph glyph-name="at" unicode="@" horiz-adv-x="905" 
d="M151 280c0 -86 187 -4 187 -105c0 -43 -29 -104 -29 -146c0 -26 12 -45 50 -45h177c58 0 73 87 123 110c12 6 26 8 40 8c35 0 75 -13 109 -13c32 0 57 11 70 54h26c-14 -48 -44 -59 -79 -59s-77 12 -114 12c-16 0 -32 -2 -46 -9c-56 -27 -69 -127 -136 -127h-177
c-41 0 -54 19 -54 48c0 44 30 111 30 157c0 12 -2 23 -8 32c-35 55 -195 1 -195 81c0 7 1 16 4 25l91 314c33 115 180 47 253 106c76 62 46 237 169 237h177c41 0 54 -19 54 -48c0 -44 -31 -111 -31 -157c0 -12 2 -23 8 -32c35 -55 195 -1 195 -81c0 -7 -1 -16 -4 -25
l-65 -227c-9 -32 -29 -39 -53 -39c-23 0 -49 6 -73 6c-11 0 -21 -1 -31 -6c-37 -19 -46 -87 -91 -87h-81l36 126c-19 -22 -61 -10 -82 -30c-28 -26 -12 -96 -62 -96h-65c-17 0 -22 8 -22 20c0 18 12 45 12 63c0 46 -85 7 -85 46c0 3 1 6 2 10l32 114c14 48 75 19 105 43
c31 25 20 96 70 96h64c16 0 21 -8 21 -18c0 -19 -16 -48 -16 -68c0 -35 60 -15 67 -40l36 126h26l-106 -368h55c37 0 47 55 78 70c8 4 16 5 25 5c22 0 46 -7 67 -7c20 0 36 7 44 34l66 227c2 9 4 16 4 23c0 86 -186 4 -186 105c0 43 29 104 29 146c0 26 -12 45 -50 45h-177
c-114 0 -86 -163 -156 -220c-67 -55 -202 7 -233 -99l-91 -314c-2 -9 -4 -16 -4 -23zM721 525c0 31 -68 1 -68 38c0 15 10 38 10 53c0 10 -4 16 -18 16h-64c-41 0 -32 -59 -57 -80c-24 -20 -73 4 -84 -35l-33 -114c-1 -3 -2 -6 -2 -8c0 -31 68 -1 68 -38
c0 -15 -10 -38 -10 -53c0 -10 4 -16 18 -16h65c41 0 31 59 56 80c24 20 74 -4 85 35l33 114c1 3 1 6 1 8z" />
    <glyph glyph-name="icircumflex" unicode="&#xee;" horiz-adv-x="257" 
d="M115 0l254 874h26l-253 -874h-27zM390 1316l-199 -167h-22l211 184h30l105 -184h-23z" />
    <glyph glyph-name="Adieresis" unicode="&#xc4;" horiz-adv-x="749" 
d="M13 0l604 920h49l70 -920h-26l-20 254h-481l-167 -254h-29zM507 1127c13 0 -1 -19 4 -25s26 2 22 -11s-21 -6 -29 -12s-5 -25 -18 -25s1 19 -4 25s-26 -1 -22 12s20 5 28 11s6 25 19 25zM749 1127c13 0 -1 -19 4 -25s26 2 22 -11s-21 -6 -29 -12s-5 -25 -18 -25
s1 19 -4 25s-26 -1 -22 12s20 5 28 11s6 25 19 25zM689 278l-49 633l-415 -633h464z" />
    <glyph glyph-name="adieresis" unicode="&#xe4;" horiz-adv-x="635" 
d="M615 707c0 -66 112 -40 112 -99c0 -5 0 -10 -2 -16l-172 -592h-26l41 141c-27 -38 -96 -14 -131 -44c-42 -36 -23 -137 -94 -137h-103c-24 0 -32 12 -32 29c0 25 16 61 16 87c0 69 -127 9 -127 67c0 4 0 9 2 15l50 172c21 71 110 26 155 61s30 137 101 137h103
c23 0 31 -11 31 -27c0 -26 -20 -66 -20 -93c0 -58 103 -16 109 -61l71 245c2 5 2 10 2 14c0 51 -96 33 -96 91c0 45 51 119 51 161c0 20 -11 32 -43 32h-103c-108 0 -60 -145 -113 -206c-36 -41 -115 -32 -141 -80l-20 11c34 44 116 34 155 77c59 65 9 222 126 222h103
c35 0 47 -14 47 -36c0 -45 -52 -123 -52 -171zM436 1287c13 0 -1 -19 4 -25s25 1 21 -12s-20 -5 -28 -11s-6 -25 -19 -25s1 19 -4 25s-25 -2 -21 11s20 6 28 12s6 25 19 25zM678 1287c13 0 -1 -19 4 -25s26 1 22 -12s-21 -5 -29 -11s-5 -25 -18 -25s1 19 -4 25
s-26 -2 -22 11s20 6 28 12s6 25 19 25zM625 343c0 50 -110 0 -110 59c0 23 14 54 14 76c0 15 -7 26 -28 26h-103c-62 0 -49 -89 -88 -120s-117 8 -135 -54l-50 -172c-1 -5 -2 -9 -2 -13c0 -50 110 0 110 -59c0 -23 -14 -54 -14 -76c0 -15 7 -26 28 -26h103
c62 0 49 89 88 120s117 -8 135 54c17 57 33 115 50 172c1 5 2 9 2 13z" />
    <glyph glyph-name="circumflex" unicode="&#x2c6;" horiz-adv-x="284" 
d="M403 903l-198 -167h-23l211 184h31l104 -184h-23z" />
    <glyph glyph-name="comma" unicode="," horiz-adv-x="317" 
d="M243 175h33l-320 -437h-24z" />
    <glyph glyph-name="question" unicode="?" horiz-adv-x="594" 
d="M631 857c0 -33 29 -35 59 -35h15c27 0 51 -2 51 -27c0 -4 0 -8 -2 -14l-45 -154c-20 -69 -105 -23 -149 -55c-42 -31 -32 -124 -96 -124h-37l-69 -239h-26l76 263h63c56 0 46 80 83 107c38 28 112 -12 129 48l44 154c1 5 2 8 2 12c0 49 -108 -4 -108 54c0 19 10 45 10 64
c0 14 -6 25 -26 25h-99c-56 0 -46 -80 -83 -107c-38 -28 -112 12 -129 -48h-27c20 69 106 23 150 55c42 31 32 124 96 124h99c23 0 30 -11 30 -28c0 -22 -11 -53 -11 -75zM305 71c13 0 0 -18 4 -24s25 2 21 -11s-20 -5 -28 -11s-5 -25 -18 -25s0 19 -4 25s-25 -2 -21 11
s20 5 28 11s5 24 18 24z" />
    <glyph glyph-name="q" unicode="q" horiz-adv-x="689" 
d="M261 168c0 73 -127 38 -127 102c0 5 0 12 2 18l87 298c23 78 132 51 181 102c62 64 15 226 134 226h115c35 0 48 -14 48 -36c0 -46 -55 -126 -55 -175c0 -65 107 -43 111 -97l78 268h26l-404 -1394h-26l228 788c-32 -49 -117 -38 -156 -82c-59 -66 -8 -226 -127 -226
h-115c-36 0 -48 15 -48 38c0 46 48 122 48 170zM754 602c0 57 -111 30 -111 94c0 45 47 118 47 160c0 21 -11 34 -44 34h-115c-110 0 -65 -149 -121 -209c-43 -47 -141 -26 -161 -95l-86 -298c-2 -6 -3 -11 -3 -16c0 -57 111 -30 111 -94c0 -45 -47 -118 -47 -160
c0 -21 11 -34 44 -34h115c110 0 65 149 121 209c43 47 141 25 161 94c29 100 57 199 86 299c2 6 3 11 3 16z" />
    <glyph glyph-name="Ucircumflex" unicode="&#xdb;" horiz-adv-x="802" 
d="M256 112c31 0 50 -8 50 -39c0 -18 -5 -39 -5 -56c0 -19 6 -33 30 -33h130c60 0 58 89 102 117c14 9 30 11 47 11s34 -2 51 -2c30 0 56 6 67 43l223 767h26l-223 -767c-12 -42 -43 -49 -77 -49c-18 0 -36 2 -54 2c-20 0 -39 -3 -55 -13c-49 -32 -45 -133 -114 -133h-130
c-27 0 -34 16 -34 37c0 20 6 45 6 66c0 35 -21 43 -57 43c-18 0 -37 -2 -55 -2c-29 0 -51 5 -51 31c0 5 1 11 3 18l222 767h26l-222 -767c-2 -6 -3 -11 -3 -16c0 -23 20 -27 45 -27c17 0 35 2 52 2zM662 1156l-198 -167h-23l211 184h31l104 -184h-23z" />
    <glyph glyph-name="f" unicode="f" horiz-adv-x="398" 
d="M575 1086c-16 0 -13 -26 -33 -26c-6 0 -12 1 -18 1c-7 0 -13 -2 -15 -11l-51 -176h145l-7 -24h-145l-246 -850h-26l246 850h-144l7 24h144l51 176c4 13 13 17 24 17c7 0 15 -2 22 -2c6 0 11 1 16 4c16 10 16 41 37 41h33c9 0 11 -6 11 -13c0 -5 -1 -12 -1 -17
c0 -11 5 -15 17 -15c7 0 16 2 23 2c4 0 7 -1 10 -2l-22 -15c0 2 1 4 1 5c0 5 -4 6 -9 6c-6 0 -13 -1 -19 -1c-10 0 -11 6 -11 12v5c0 5 -1 9 -7 9h-33z" />
    <glyph glyph-name="Atilde" unicode="&#xc3;" horiz-adv-x="749" 
d="M13 0l604 920h49l70 -920h-26l-20 254h-481l-167 -254h-29zM425 994h-21c13 45 70 18 98 40c29 23 18 88 64 88c57 0 37 -93 94 -93c38 0 30 55 54 74s70 -4 81 33h21c-13 -45 -70 -18 -98 -40c-29 -23 -18 -89 -64 -89c-57 0 -37 94 -94 94c-39 0 -30 -55 -54 -74
s-70 4 -81 -33zM689 278l-49 633l-415 -633h464z" />
    <glyph glyph-name="K" unicode="K" horiz-adv-x="716" 
d="M362 920h26l-163 -561l714 561h40l-462 -363l195 -557h-28l-189 540l-281 -221l-93 -319h-26z" />
    <glyph glyph-name="colon" unicode=":" horiz-adv-x="242" 
d="M141 71c13 0 0 -18 4 -24s25 2 21 -11s-19 -5 -27 -11s-6 -25 -19 -25s0 19 -4 25s-25 -2 -21 11s20 5 28 11s5 24 18 24zM374 874c13 0 0 -19 4 -25s25 2 21 -11s-20 -5 -28 -11s-5 -24 -18 -24s0 18 -4 24s-25 -2 -21 11s20 5 28 11s5 25 18 25z" />
    <glyph glyph-name="perthousandzero" horiz-adv-x="466" 
d="M480 285c0 37 -82 -1 -82 43c0 16 10 39 10 55c0 11 -4 19 -20 19h-77c-45 0 -36 -65 -65 -87s-86 6 -99 -40l-36 -124c-1 -4 -2 -7 -2 -10c0 -37 82 1 82 -43c0 -16 -10 -39 -10 -55c0 -11 5 -19 21 -19h76c45 0 36 65 65 87s86 -6 99 40l36 124c1 4 2 7 2 10zM182 88
c0 53 -99 6 -99 51c0 3 1 8 2 12l36 124c16 55 85 20 120 47c35 26 23 104 77 104h77c19 0 24 -10 24 -23c0 -19 -11 -46 -11 -65c0 -53 99 -6 99 -51c0 -3 -1 -8 -2 -12l-37 -124c-16 -55 -84 -20 -119 -47c-35 -26 -24 -104 -78 -104h-76c-19 0 -24 10 -24 23
c0 19 11 46 11 65z" />
    <glyph glyph-name="zero" unicode="0" horiz-adv-x="702" 
d="M783 633c0 56 -105 39 -105 103c0 47 48 120 48 164c0 21 -12 36 -46 36h-115c-111 0 -68 -151 -125 -215c-43 -49 -140 -36 -160 -104l-91 -314c-2 -6 -2 -11 -2 -16c0 -56 104 -39 104 -103c0 -47 -47 -120 -47 -164c0 -21 11 -36 45 -36h115c111 0 68 151 125 215
c43 49 140 36 160 104l91 314c2 6 3 11 3 16zM281 173c0 73 -121 48 -121 112c0 5 1 11 3 18l91 314c22 77 131 59 180 112c63 68 18 231 138 231h115c37 0 50 -15 50 -39c0 -47 -48 -124 -48 -174c0 -73 120 -48 120 -112c0 -5 0 -11 -2 -18l-92 -314
c-22 -77 -130 -59 -179 -112c-63 -68 -19 -231 -139 -231h-115c-37 0 -49 15 -49 39c0 47 48 124 48 174z" />
    <glyph glyph-name="Edieresis" unicode="&#xcb;" horiz-adv-x="628" 
d="M95 0l267 920h486l-7 -24h-460l-152 -525h447l-7 -24h-447l-94 -323h460l-7 -24h-486zM471 1127c13 0 -1 -19 4 -25s26 2 22 -11s-21 -6 -29 -12s-5 -25 -18 -25s1 19 -4 25s-26 -1 -22 12s20 5 28 11s6 25 19 25zM713 1127c13 0 -1 -19 4 -25s26 2 22 -11
s-21 -6 -29 -12s-5 -25 -18 -25s1 19 -4 25s-26 -1 -22 12s20 5 28 11s6 25 19 25z" />
    <glyph glyph-name="parenleft" unicode="(" horiz-adv-x="371" 
d="M70 -70c0 -83 153 -60 153 -153c0 -85 -111 -230 -111 -309c0 -18 6 -33 21 -43l-18 -17c-10 10 -13 23 -13 39c0 82 112 231 112 320c0 101 -170 70 -170 161c0 8 1 16 4 25l154 534c32 112 194 85 261 166c82 99 20 313 123 379l9 -17c-115 -54 -47 -269 -127 -369
c-61 -77 -210 -56 -240 -159l-154 -534c-3 -9 -4 -16 -4 -23z" />
    <glyph glyph-name="g" unicode="g" horiz-adv-x="689" 
d="M271 198c0 73 -130 35 -130 99c0 5 1 11 3 17l83 286c23 78 131 47 180 97c60 61 17 217 131 217h115c34 0 46 -14 46 -35c0 -44 -50 -119 -50 -166c0 -64 108 -40 112 -94l74 255h26l-344 -1185c-23 -78 -123 -35 -173 -77c-53 -46 -28 -172 -118 -172h-116
c-29 0 -38 14 -38 34c0 33 25 83 25 117c0 7 -2 13 -4 18l11 7c2 -4 2 -10 2 -15c0 -31 -24 -77 -24 -107c0 -18 9 -30 35 -30h116c81 0 57 114 105 155c44 38 133 1 153 70l176 606c-32 -48 -116 -35 -155 -78c-57 -63 -10 -217 -124 -217h-115c-35 0 -47 15 -47 37
c0 44 45 115 45 161zM758 615c0 57 -113 27 -113 91c0 43 44 111 44 151c0 20 -11 33 -43 33h-115c-105 0 -63 -143 -118 -200c-43 -45 -140 -21 -160 -90l-83 -286c-2 -6 -2 -10 -2 -15c0 -57 112 -27 112 -91c0 -43 -43 -111 -43 -151c0 -20 11 -33 43 -33h115
c105 0 63 143 118 200c43 45 139 21 159 90l83 286c2 6 3 10 3 15z" />
    <glyph glyph-name="S" unicode="S" horiz-adv-x="702" 
d="M249 64c0 34 -23 41 -58 41c-15 0 -30 -1 -44 -1c-29 0 -53 4 -53 30c0 5 1 11 3 18h26c-2 -6 -2 -12 -2 -16c0 -22 20 -26 45 -26c14 0 28 1 42 1c31 0 50 -6 50 -36c0 -19 -6 -42 -6 -60s6 -31 29 -31h123c59 0 57 87 99 115c15 10 33 11 52 11c11 0 23 -1 34 -1
c31 0 60 6 71 43l42 147c3 9 4 19 4 27c0 50 -43 82 -86 109l-332 29c-36 22 -53 62 -53 107c0 18 2 37 8 56l45 154c12 40 41 45 74 45c14 0 29 -1 43 -1c20 0 39 2 54 12c46 30 44 123 107 123h120c25 0 31 -14 31 -34c0 -19 -6 -43 -6 -62c0 -32 20 -39 53 -39
c16 0 35 1 51 1c27 0 47 -4 47 -28c0 -5 0 -10 -2 -17h-27c2 6 3 11 3 15c0 21 -18 25 -41 25c-15 0 -33 -2 -48 -2c-29 0 -45 7 -45 35c0 16 4 35 4 51c0 17 -5 31 -27 31h-120c-55 0 -54 -81 -94 -106c-13 -8 -29 -10 -46 -10c-14 0 -28 1 -41 1c-29 0 -54 -5 -64 -40
l-44 -154c-5 -17 -8 -32 -8 -48c0 -38 16 -72 46 -91l331 -29c48 -30 94 -70 94 -127c0 -10 -2 -21 -5 -33l-42 -147c-12 -43 -45 -48 -81 -48h-35c-22 0 -44 -2 -61 -13c-48 -32 -44 -131 -112 -131h-123c-26 0 -33 15 -33 35c0 21 8 47 8 69z" />
    <glyph glyph-name="Abreve" unicode="&#x102;" horiz-adv-x="749" 
d="M13 0l604 920h49l70 -920h-26l-20 254h-481l-167 -254h-29zM560 1024c-31 0 -7 51 -47 51c-19 0 -45 -8 -63 -8c-12 0 -19 3 -19 15c0 3 1 8 2 12l13 47h21l-13 -47c-1 -4 -2 -7 -2 -10c0 -9 6 -12 15 -12c16 0 42 9 59 9c4 0 8 -1 11 -2c15 -6 10 -33 29 -33h76
c24 0 32 35 61 35c17 0 37 -9 53 -9c12 0 22 5 27 22l14 47h21l-14 -47c-6 -21 -18 -27 -33 -27c-18 0 -39 8 -58 8c-40 0 -45 -51 -77 -51h-76zM689 278l-49 633l-415 -633h464z" />
    <glyph glyph-name="Aring" unicode="&#xc5;" horiz-adv-x="749" 
d="M13 0l604 920h49l70 -920h-26l-20 254h-481l-167 -254h-29zM689 278l-49 633l-415 -633h464zM683 1122c-10 0 -19 1 -19 11c0 7 3 16 3 23c0 5 -2 9 -9 9h-38c-20 0 -17 -29 -31 -39c-5 -4 -12 -4 -19 -4h-5c-11 0 -20 0 -24 -13l-17 -56c-1 -2 0 -4 0 -5
c0 -8 8 -8 17 -8h5c10 0 19 -1 19 -11c0 -7 -3 -16 -3 -23c0 -5 2 -9 9 -9h38c20 0 17 29 31 39c5 4 12 4 19 4h5c11 0 21 0 25 13l16 56c1 2 1 4 1 5c0 8 -9 8 -18 8h-5zM559 1022c0 13 -11 14 -25 14h-5c-12 0 -23 1 -23 11c0 2 0 4 1 6l16 56c5 16 18 17 32 17h5
c9 0 18 0 25 5c17 12 14 50 40 50h37c9 0 12 -5 12 -12c0 -9 -4 -20 -4 -29c0 -13 11 -14 25 -14h5c12 0 23 -1 23 -11c0 -2 0 -4 -1 -6l-16 -56c-5 -16 -18 -17 -32 -17h-5c-9 0 -18 0 -25 -5c-17 -12 -14 -50 -40 -50h-37c-9 0 -12 5 -12 12c0 9 4 20 4 29z" />
    <glyph glyph-name="tcaron" unicode="&#x165;" horiz-adv-x="365" 
d="M254 850l7 24h162l57 196h26l-57 -196h162l-7 -24h-162l-246 -850h-26l246 850h-162zM767 1070h30l-202 -299h-22z" />
    <glyph glyph-name="exclam" unicode="!" horiz-adv-x="323" 
d="M210 209l206 711h26l-206 -711h-26zM183 71c13 0 0 -18 4 -24s26 2 22 -11s-20 -5 -28 -11s-5 -25 -18 -25s0 19 -4 25s-26 -2 -22 11s20 5 28 11s5 24 18 24z" />
    <glyph glyph-name="Eacute" unicode="&#xc9;" horiz-adv-x="628" 
d="M95 0l267 920h486l-7 -24h-460l-152 -525h447l-7 -24h-447l-94 -323h460l-7 -24h-486zM702 1173h28l-188 -184h-21z" />
    <glyph glyph-name="lcaron" unicode="&#x13e;" horiz-adv-x="188" 
d="M81 0l311 1070h26l-311 -1070h-26zM557 1070h30l-203 -299h-22z" />
    <glyph glyph-name="I" unicode="I" horiz-adv-x="242" 
d="M107 0l267 920h26l-267 -920h-26z" />
    <glyph glyph-name="AE" unicode="&#xc6;" horiz-adv-x="1087" 
d="M13 0l808 920h485l-7 -24h-446l-152 -525h430l-7 -24h-430l-94 -323h446l-7 -24h-472l75 257h-371l-226 -257h-32zM292 281h357l176 607z" />
    <glyph glyph-name="space" unicode=" " horiz-adv-x="405" 
 />
    </font>
</defs>
</svg>
